<?xml version="1.0" encoding="UTF-8" standalone="no"?>
<svg
   xmlns:dc="http://purl.org/dc/elements/1.1/"
   xmlns:cc="http://creativecommons.org/ns#"
   xmlns:rdf="http://www.w3.org/1999/02/22-rdf-syntax-ns#"
   xmlns:svg="http://www.w3.org/2000/svg"
   xmlns="http://www.w3.org/2000/svg"
   id="svg4"
   version="1.1"
   viewBox="0 0 249.001 309.99999"
   height="310"
   width="249.00101">
  <metadata
     id="metadata10">
    <rdf:RDF>
      <cc:Work
         rdf:about="">
        <dc:format>image/svg+xml</dc:format>
        <dc:type
           rdf:resource="http://purl.org/dc/dcmitype/StillImage" />
        <dc:title></dc:title>
      </cc:Work>
    </rdf:RDF>
  </metadata>
  <defs
     id="defs8" />
  <path
     id="path2"
     d="m 249.001,309.99899 h -7 v -92 h -115 v 6 h -5 v -6 h -122 V -0.00100708 h 249 z m -40.5,-288.999997 a 7.511,7.511 0 0 0 -7.5,7.5 V 189.49899 a 7.5,7.5 0 1 0 15,0 V 28.498993 a 7.509,7.509 0 0 0 -7.5,-7.5 z m -42,0 a 7.511,7.511 0 0 0 -7.5,7.5 V 189.49899 a 7.5,7.5 0 1 0 15,0 V 28.498993 a 7.51,7.51 0 0 0 -7.5,-7.5 z m -42.005,0 a 7.509,7.509 0 0 0 -7.5,7.5 V 189.49899 a 7.5,7.5 0 1 0 15,0 V 28.498993 a 7.511,7.511 0 0 0 -7.495,-7.5 z m -42,0 a 7.511,7.511 0 0 0 -7.5,7.5 V 189.49899 a 7.5,7.5 0 1 0 15,0 V 28.498993 a 7.511,7.511 0 0 0 -7.495,-7.5 z m -42,0 a 7.511,7.511 0 0 0 -7.5,7.5 V 189.49899 a 7.5,7.5 0 1 0 15,0 V 28.498993 a 7.51,7.51 0 0 0 -7.495,-7.5 z" />
</svg>
