<svg xmlns="http://www.w3.org/2000/svg" width="242.001" height="310.001" viewBox="0 0 242.001 310.001"><path d="M5921.5,13580a42.364,42.364,0,1,1,16.542-3.34A42.245,42.245,0,0,1,5921.5,13580Zm70.5-92H5750v-6h101v-212h141v218Zm-27.5-198a7.508,7.508,0,0,0-7.5,7.5v161a7.5,7.5,0,1,0,15,0v-161A7.51,7.51,0,0,0,5964.5,13290Zm-42,0a7.51,7.51,0,0,0-7.5,7.5v161a7.5,7.5,0,1,0,15,0v-161A7.51,7.51,0,0,0,5922.5,13290Zm-42,0a7.51,7.51,0,0,0-7.5,7.5v161a7.5,7.5,0,1,0,15,0v-161A7.509,7.509,0,0,0,5880.5,13290Z" transform="translate(-5749.999 -13270)"/></svg>