<svg xmlns="http://www.w3.org/2000/svg" width="283.001" height="310.001" viewBox="0 0 283.001 310.001"><path d="M5980.5,13580a42.362,42.362,0,1,1,16.543-3.34A42.245,42.245,0,0,1,5980.5,13580Zm-89,0a42.362,42.362,0,1,1,16.543-3.34A42.248,42.248,0,0,1,5891.5,13580Zm-89,0a42.362,42.362,0,1,1,16.543-3.34A42.248,42.248,0,0,1,5802.5,13580Zm230.5-92H5750v-218h283v218Zm-36.5-200a7.508,7.508,0,0,0-7.5,7.5v161a7.5,7.5,0,1,0,15,0v-161A7.51,7.51,0,0,0,5996.5,13288Zm-42,0a7.51,7.51,0,0,0-7.5,7.5v161a7.5,7.5,0,1,0,15,0v-161A7.508,7.508,0,0,0,5954.5,13288Zm-42,0a7.51,7.51,0,0,0-7.5,7.5v161a7.5,7.5,0,1,0,15,0v-161A7.508,7.508,0,0,0,5912.5,13288Zm-42,0a7.508,7.508,0,0,0-7.5,7.5v161a7.5,7.5,0,1,0,15,0v-161A7.51,7.51,0,0,0,5870.5,13288Zm-42,0a7.512,7.512,0,0,0-7.5,7.5v161a7.5,7.5,0,1,0,15.006,0v-161A7.51,7.51,0,0,0,5828.5,13288Zm-42,0a7.51,7.51,0,0,0-7.5,7.5v161a7.5,7.5,0,1,0,15,0v-161A7.508,7.508,0,0,0,5786.5,13288Z" transform="translate(-5749.999 -13270)"/></svg>