<?xml version="1.0" encoding="UTF-8" standalone="no"?>
<svg
   xmlns:dc="http://purl.org/dc/elements/1.1/"
   xmlns:cc="http://creativecommons.org/ns#"
   xmlns:rdf="http://www.w3.org/1999/02/22-rdf-syntax-ns#"
   xmlns:svg="http://www.w3.org/2000/svg"
   xmlns="http://www.w3.org/2000/svg"
   id="svg4"
   version="1.1"
   viewBox="0 0 141.001 309.99999"
   height="310"
   width="141.00101">
  <metadata
     id="metadata10">
    <rdf:RDF>
      <cc:Work
         rdf:about="">
        <dc:format>image/svg+xml</dc:format>
        <dc:type
           rdf:resource="http://purl.org/dc/dcmitype/StillImage" />
        <dc:title></dc:title>
      </cc:Work>
    </rdf:RDF>
  </metadata>
  <defs
     id="defs8" />
  <path
     id="path2"
     d="M 81.501,310 A 42.364,42.364 0 1 1 98.043,306.66 42.245,42.245 0 0 1 81.501,310 Z m 59.5,-92 h -141 V 0 h 141 z m -28.5,-203 a 7.508,7.508 0 0 0 -7.5,7.5 v 161 a 7.5,7.5 0 1 0 15,0 v -161 a 7.51,7.51 0 0 0 -7.5,-7.5 z m -42,0 a 7.51,7.51 0 0 0 -7.5,7.5 v 161 a 7.5,7.5 0 1 0 15,0 v -161 a 7.51,7.51 0 0 0 -7.5,-7.5 z m -42,0 a 7.51,7.51 0 0 0 -7.5,7.5 v 161 a 7.5,7.5 0 1 0 15,0 v -161 a 7.508,7.508 0 0 0 -7.5,-7.5 z" />
</svg>
