<?xml version="1.0" encoding="UTF-8" standalone="no"?>
<svg
   xmlns:dc="http://purl.org/dc/elements/1.1/"
   xmlns:cc="http://creativecommons.org/ns#"
   xmlns:rdf="http://www.w3.org/1999/02/22-rdf-syntax-ns#"
   xmlns:svg="http://www.w3.org/2000/svg"
   xmlns="http://www.w3.org/2000/svg"
   id="svg4"
   version="1.1"
   viewBox="0 0 283.001 309.99999"
   height="310"
   width="283.00101">
  <metadata
     id="metadata10">
    <rdf:RDF>
      <cc:Work
         rdf:about="">
        <dc:format>image/svg+xml</dc:format>
        <dc:type
           rdf:resource="http://purl.org/dc/dcmitype/StillImage" />
        <dc:title></dc:title>
      </cc:Work>
    </rdf:RDF>
  </metadata>
  <defs
     id="defs8" />
  <path
     id="path2"
     d="m 230.501,309.99899 a 42.362,42.362 0 1 1 16.543,-3.34 42.245,42.245 0 0 1 -16.543,3.34 z m -89,0 a 42.362,42.362 0 1 1 16.543,-3.34 42.248,42.248 0 0 1 -16.543,3.34 z m 141.5,-92 h -283 V -0.00100708 h 283 z m -36.5,-202.999997 a 7.509,7.509 0 0 0 -7.5,7.5 V 183.49899 a 7.5,7.5 0 1 0 15,0 V 22.498993 a 7.51,7.51 0 0 0 -7.5,-7.5 z m -42,0 a 7.51,7.51 0 0 0 -7.5,7.5 V 183.49899 a 7.5,7.5 0 1 0 15,0 V 22.498993 a 7.509,7.509 0 0 0 -7.5,-7.5 z m -42,0 a 7.51,7.51 0 0 0 -7.5,7.5 V 183.49899 a 7.5,7.5 0 1 0 15,0 V 22.498993 a 7.508,7.508 0 0 0 -7.5,-7.5 z m -42,0 a 7.509,7.509 0 0 0 -7.5,7.5 V 183.49899 a 7.5,7.5 0 1 0 15,0 V 22.498993 a 7.51,7.51 0 0 0 -7.5,-7.5 z m -42,0 a 7.512,7.512 0 0 0 -7.5,7.5 V 183.49899 a 7.503,7.503 0 0 0 15.006,0 V 22.498993 a 7.51,7.51 0 0 0 -7.506,-7.5 z m -42,0 a 7.51,7.51 0 0 0 -7.5,7.5 V 183.49899 a 7.5,7.5 0 1 0 15,0 V 22.498993 a 7.508,7.508 0 0 0 -7.5,-7.5 z" />
</svg>
