<?xml version="1.0" encoding="UTF-8" standalone="no"?>
<svg
   xmlns:dc="http://purl.org/dc/elements/1.1/"
   xmlns:cc="http://creativecommons.org/ns#"
   xmlns:rdf="http://www.w3.org/1999/02/22-rdf-syntax-ns#"
   xmlns:svg="http://www.w3.org/2000/svg"
   xmlns="http://www.w3.org/2000/svg"
   id="svg4"
   version="1.1"
   viewBox="0 0 188.998 310"
   height="310"
   width="188.998">
  <metadata
     id="metadata10">
    <rdf:RDF>
      <cc:Work
         rdf:about="">
        <dc:format>image/svg+xml</dc:format>
        <dc:type
           rdf:resource="http://purl.org/dc/dcmitype/StillImage" />
        <dc:title></dc:title>
      </cc:Work>
    </rdf:RDF>
  </metadata>
  <defs
     id="defs8" />
  <path
     id="path2"
     d="m 139.499,309 a 42.364,42.364 0 1 1 16.543,-3.34 42.242,42.242 0 0 1 -16.543,3.34 z m -89,0 A 42.364,42.364 0 1 1 67.042,305.66 42.242,42.242 0 0 1 50.499,309 Z m 138.5,-91 h -189 V 0 h 189 z m -31.5,-198 a 7.509,7.509 0 0 0 -7.5,7.5 v 161 a 7.5,7.5 0 1 0 15,0 v -161 a 7.509,7.509 0 0 0 -7.5,-7.5 z m -42,0 a 7.507,7.507 0 0 0 -7.5,7.5 v 161 a 7.5,7.5 0 1 0 15,0 v -161 a 7.51,7.51 0 0 0 -7.5,-7.5 z m -42,0 a 7.509,7.509 0 0 0 -7.5,7.5 v 161 a 7.5,7.5 0 1 0 15,0 v -161 a 7.509,7.509 0 0 0 -7.5,-7.5 z m -42,0 a 7.509,7.509 0 0 0 -7.5,7.5 v 161 a 7.5,7.5 0 1 0 15,0 v -161 a 7.507,7.507 0 0 0 -7.5,-7.5 z" />
</svg>
