<svg xmlns="http://www.w3.org/2000/svg" width="248.999" height="310" viewBox="0 0 248.999 310"><path d="M7434,13887v-92H7319v6h-5v-6H7207v-218h234v310h-7Zm-123-162.449v9.45a5,5,0,0,0,10,0v-9.449l13.108,13.1a2.5,2.5,0,0,0,3.534,0,2.513,2.513,0,0,0,0-3.537l-16.265-16.262a2.316,2.316,0,0,0-.376-.311v-27.129l23.494,13.564a2.455,2.455,0,0,0,.077.481l5.956,22.218a2.5,2.5,0,0,0,4.831-1.293l-4.8-17.907,6.9,3.987a5,5,0,0,0,5-8.66l-6.9-3.984,17.9-4.795a2.5,2.5,0,1,0-1.29-4.831l-22.218,5.953a2.438,2.438,0,0,0-.457.171l-23.5-13.564,23.5-13.564a2.689,2.689,0,0,0,.457.174l22.218,5.953a2.494,2.494,0,0,0,3.06-1.771,2.5,2.5,0,0,0-1.767-3.06l-17.907-4.8,6.9-3.987a5,5,0,0,0,1.83-6.827,5,5,0,0,0-6.831-1.83l-6.9,3.983,4.8-17.9a2.5,2.5,0,1,0-4.827-1.3l-5.959,22.214a2.638,2.638,0,0,0-.077.488L7321,13673.1v-27.132a2.631,2.631,0,0,0,.376-.311l16.265-16.262a2.5,2.5,0,1,0-3.534-3.537L7321,13638.966V13631a5,5,0,0,0-10,0v7.967l-13.1-13.1a2.5,2.5,0,1,0-3.541,3.533l16.265,16.266a2.488,2.488,0,0,0,.38.311v27.132l-23.5-13.564a2.7,2.7,0,0,0-.08-.488l-5.949-22.214a2.513,2.513,0,0,0-2.418-1.853,2.5,2.5,0,0,0-2.416,3.148l4.8,17.9-8.187-4.726a5,5,0,1,0-4.994,8.661l8.18,4.722-17.9,4.8a2.5,2.5,0,0,0-1.767,3.06,2.5,2.5,0,0,0,3.063,1.771l22.214-5.953a2.575,2.575,0,0,0,.46-.174l23.494,13.564-23.494,13.564a2.394,2.394,0,0,0-.46-.171l-22.214-5.953a2.541,2.541,0,0,0-.649-.086,2.5,2.5,0,0,0-.647,4.917l17.9,4.795-8.18,4.723a5,5,0,1,0,5,8.661l8.184-4.723-4.8,17.9a2.5,2.5,0,0,0,1.767,3.06,2.494,2.494,0,0,0,3.063-1.767l5.949-22.218a2.527,2.527,0,0,0,.08-.481l23.5-13.564v27.129a2.211,2.211,0,0,0-.38.311l-16.265,16.262a2.5,2.5,0,0,0,3.541,3.537l13.1-13.1ZM7202,13757h-10v-180h10Z" transform="translate(-7192 -13576.999)"/></svg>