<svg xmlns="http://www.w3.org/2000/svg" width="242" height="310" viewBox="0 0 242 310"><path d="M7363.5,13887a42.369,42.369,0,1,1,16.543-3.34A42.245,42.245,0,0,1,7363.5,13887Zm70.5-92H7192v-6h116v-212h126v218Zm-66.647-66.536v9.448a5,5,0,0,0,10,0v-9.448l13.107,13.1a2.512,2.512,0,0,0,3.538,0,2.514,2.514,0,0,0,0-3.537l-16.265-16.266a2.667,2.667,0,0,0-.38-.307v-27.128l23.5,13.563a2.218,2.218,0,0,0,.077.481l5.953,22.218a2.5,2.5,0,0,0,4.83-1.293l-4.8-17.906,6.9,3.986a5,5,0,1,0,5-8.66l-6.9-3.983,17.9-4.8a2.5,2.5,0,0,0,1.771-3.063,2.5,2.5,0,0,0-3.063-1.767l-22.214,5.952a2.531,2.531,0,0,0-.46.171l-23.494-13.564,23.494-13.564a2.64,2.64,0,0,0,.46.175l22.214,5.952a2.5,2.5,0,0,0,2.813-3.666,2.477,2.477,0,0,0-1.516-1.164l-17.907-4.8,6.9-3.987a4.995,4.995,0,0,0,1.833-6.827,5,5,0,0,0-6.831-1.83l-6.9,3.984,4.8-17.9a2.5,2.5,0,0,0-2.413-3.148,2.505,2.505,0,0,0-2.414,1.852l-5.956,22.215a2.3,2.3,0,0,0-.077.487l-23.5,13.564v-27.132a2.582,2.582,0,0,0,.38-.311l16.265-16.262a2.508,2.508,0,0,0,0-3.537,2.5,2.5,0,0,0-3.538,0l-13.107,13.107v-7.971a5,5,0,0,0-10,0v7.968l-13.1-13.1a2.5,2.5,0,0,0-3.538,0,2.5,2.5,0,0,0,0,3.534l16.262,16.265a2.544,2.544,0,0,0,.38.311v27.132l-23.494-13.564a2.677,2.677,0,0,0-.08-.487l-5.953-22.215a2.5,2.5,0,1,0-4.83,1.3l4.8,17.9-8.183-4.727a5,5,0,1,0-5,8.661l8.183,4.723-17.907,4.8a2.494,2.494,0,0,0-1.516,1.164,2.464,2.464,0,0,0-.248,1.9,2.5,2.5,0,0,0,3.06,1.771l22.218-5.952a2.627,2.627,0,0,0,.46-.175l23.494,13.564-23.494,13.564a2.552,2.552,0,0,0-.46-.171l-22.218-5.952a2.5,2.5,0,1,0-1.293,4.83l17.9,4.8-8.183,4.722a5,5,0,1,0,5,8.661l8.18-4.723-4.792,17.9a2.5,2.5,0,0,0,1.764,3.061,2.5,2.5,0,0,0,3.063-1.768l5.953-22.218a2.579,2.579,0,0,0,.08-.481l23.494-13.563v27.128a2.652,2.652,0,0,0-.38.307l-16.262,16.266a2.5,2.5,0,0,0,3.538,3.537l13.1-13.1ZM7293,13757v-180h10v180h-10Z" transform="translate(-7192 -13576.999)"/></svg>