<?xml version="1.0" encoding="UTF-8" standalone="no"?>
<svg
   xmlns:dc="http://purl.org/dc/elements/1.1/"
   xmlns:cc="http://creativecommons.org/ns#"
   xmlns:rdf="http://www.w3.org/1999/02/22-rdf-syntax-ns#"
   xmlns:svg="http://www.w3.org/2000/svg"
   xmlns="http://www.w3.org/2000/svg"
   id="svg4"
   version="1.1"
   viewBox="0 0 141 310"
   height="310"
   width="141">
  <metadata
     id="metadata10">
    <rdf:RDF>
      <cc:Work
         rdf:about="">
        <dc:format>image/svg+xml</dc:format>
        <dc:type
           rdf:resource="http://purl.org/dc/dcmitype/StillImage" />
        <dc:title></dc:title>
      </cc:Work>
    </rdf:RDF>
  </metadata>
  <defs
     id="defs8" />
  <path
     id="path2"
     d="M 141,218 H 0 V 0 H 141 Z M 65.354,151.458 v 9.451 a 5,5 0 0 0 10,0 v -9.451 l 13.107,13.107 a 2.5020974,2.5020974 0 0 0 3.538,-3.539 L 75.731,144.765 a 2.423,2.423 0 0 0 -0.377,-0.312 v -27.129 l 23.5,13.564 a 2.32,2.32 0 0 0 0.076,0.484 l 5.955,22.216 a 2.5,2.5 0 0 0 4.83,-1.291 l -4.8,-17.909 6.9,3.984 a 5,5 0 0 0 5,-8.658 l -6.9,-3.981 17.9,-4.8 a 2.489,2.489 0 0 0 1.769,-3.061 2.5,2.5 0 0 0 -2.416,-1.853 2.533,2.533 0 0 0 -0.645,0.08 l -22.216,5.951 a 2.646,2.646 0 0 0 -0.457,0.173 l -23.5,-13.564 23.5,-13.564001 a 2.631,2.631 0 0 0 0.457,0.173 l 22.216,5.955001 a 2.5,2.5 0 0 0 3.061,-1.770001 2.5,2.5 0 0 0 -1.766,-3.06 l -17.906,-4.8 6.9,-3.985 a 5,5 0 1 0 -5,-8.658 l -6.9,3.981 4.8,-17.9 a 2.5,2.5 0 0 0 -1.77,-3.064 2.5,2.5 0 0 0 -3.057,1.77 l -5.958,22.216 a 2.309,2.309 0 0 0 -0.076,0.485 L 75.351,100.002 V 72.872999 a 2.67,2.67 0 0 0 0.377,-0.312 L 92,56.299999 a 2.50033,2.50033 0 0 0 -3.538,-3.534 l -13.107,13.107 v -7.97 a 5,5 0 0 0 -10,0 v 7.966 l -13.1,-13.1 a 2.50033,2.50033 0 1 0 -3.538,3.534 l 16.265,16.266 a 2.726,2.726 0 0 0 0.377,0.312 V 100.01 L 41.865,86.445999 a 2.372,2.372 0 0 0 -0.083,-0.485 l -5.948,-22.213 a 2.5013573,2.5013573 0 1 0 -4.833,1.292 l 4.795,17.9 -8.181,-4.723 a 5,5 0 0 0 -6.831,1.832 5,5 0 0 0 1.831,6.827 l 8.181,4.722 -17.9,4.8 a 2.5,2.5 0 0 0 -1.766,3.06 2.5,2.5 0 0 0 2.416,1.854001 2.532,2.532 0 0 0 0.644,-0.08 l 22.216,-5.955001 a 2.536,2.536 0 0 0 0.46,-0.173 L 60.36,108.668 36.866,122.232 a 2.509,2.509 0 0 0 -0.46,-0.173 L 14.19,116.108 a 2.5,2.5 0 0 0 -1.294,4.829 l 17.9,4.8 -8.181,4.722 a 5.0011891,5.0011891 0 0 0 5,8.663 L 35.796,134.395 31,152.304 a 2.459,2.459 0 0 0 0.246,1.894 2.5,2.5 0 0 0 4.583,-0.6 l 5.948,-22.216 a 2.374,2.374 0 0 0 0.083,-0.484 l 23.494,-13.564 v 27.129 a 2.242,2.242 0 0 0 -0.377,0.312 l -16.265,16.261 a 2.5020974,2.5020974 0 1 0 3.538,3.539 l 13.1,-13.106 z" />
</svg>
