<?xml version="1.0" encoding="UTF-8" standalone="no"?>
<svg
   xmlns:dc="http://purl.org/dc/elements/1.1/"
   xmlns:cc="http://creativecommons.org/ns#"
   xmlns:rdf="http://www.w3.org/1999/02/22-rdf-syntax-ns#"
   xmlns:svg="http://www.w3.org/2000/svg"
   xmlns="http://www.w3.org/2000/svg"
   id="svg4"
   version="1.1"
   viewBox="0 0 283.002 310"
   height="310"
   width="283.00201">
  <metadata
     id="metadata10">
    <rdf:RDF>
      <cc:Work
         rdf:about="">
        <dc:format>image/svg+xml</dc:format>
        <dc:type
           rdf:resource="http://purl.org/dc/dcmitype/StillImage" />
        <dc:title></dc:title>
      </cc:Work>
    </rdf:RDF>
  </metadata>
  <defs
     id="defs8" />
  <path
     id="path2"
     d="M 283,218 H 0 V 0 H 283 Z M 136.353,151.458 v 9.451 a 5,5 0 0 0 10,0 v -9.451 l 13.107,13.107 a 2.5,2.5 0 0 0 3.535,0 2.509,2.509 0 0 0 0,-3.539 L 146.73,144.765 a 2.539,2.539 0 0 0 -0.377,-0.312 v -27.129 l 23.494,13.564 a 2.529,2.529 0 0 0 0.08,0.484 l 5.955,22.216 a 2.5,2.5 0 0 0 4.83,-1.291 l -4.8,-17.909 6.9,3.984 a 5,5 0 0 0 5,-8.658 l -6.9,-3.981 17.9,-4.8 a 2.492,2.492 0 0 0 1.769,-3.061 2.5,2.5 0 0 0 -2.416,-1.853 2.533,2.533 0 0 0 -0.645,0.08 l -22.216,5.951 a 2.666,2.666 0 0 0 -0.458,0.173 l -23.5,-13.564 23.5,-13.564001 a 2.621,2.621 0 0 0 0.458,0.173 L 197.52,101.223 a 2.5,2.5 0 0 0 3.06,-1.770001 2.5,2.5 0 0 0 -1.766,-3.06 l -17.909,-4.8 6.9,-3.985 a 5,5 0 1 0 -5,-8.658 l -6.9,3.981 4.8,-17.9 a 2.5,2.5 0 0 0 -1.769,-3.064 2.5,2.5 0 0 0 -3.057,1.77 l -5.958,22.216 a 2.552,2.552 0 0 0 -0.08,0.485 L 146.347,100.002 V 72.872999 a 2.957,2.957 0 0 0 0.377,-0.312 l 16.265,-16.266 a 2.5,2.5 0 1 0 -3.535,-3.534 l -13.107,13.107 v -7.97 a 5,5 0 0 0 -10,0 v 7.966 l -13.1,-13.1 a 2.50033,2.50033 0 1 0 -3.538,3.534 l 16.261,16.266 a 2.981,2.981 0 0 0 0.381,0.312 V 100.005 L 112.857,86.440999 a 2.372,2.372 0 0 0 -0.083,-0.485 l -5.952,-22.213 a 2.5,2.5 0 0 0 -4.583,-0.605 2.484,2.484 0 0 0 -0.246,1.9 l 4.795,17.9 -8.184,-4.723 a 5,5 0 1 0 -5,8.659 l 8.181,4.722 -17.905,4.8 a 2.5,2.5 0 0 0 -1.766,3.06 2.506,2.506 0 0 0 2.418,1.854001 2.537,2.537 0 0 0 0.645,-0.08 l 22.216,-5.955001 a 2.613,2.613 0 0 0 0.461,-0.173 L 131.348,108.666 107.854,122.23 a 2.527,2.527 0 0 0 -0.461,-0.173 l -22.216,-5.951 a 2.5,2.5 0 1 0 -1.294,4.829 l 17.9,4.8 -8.181,4.722 a 5.0011891,5.0011891 0 0 0 5,8.663 l 8.181,-4.727 L 102,152.3 a 2.461,2.461 0 0 0 0.246,1.893 2.5,2.5 0 0 0 4.58,-0.6 l 5.952,-22.216 a 2.374,2.374 0 0 0 0.083,-0.484 l 23.494,-13.564 v 27.129 a 2.486,2.486 0 0 0 -0.381,0.312 l -16.261,16.261 a 2.5020974,2.5020974 0 1 0 3.538,3.539 l 13.1,-13.106 z" />
</svg>
