<?xml version="1.0" encoding="UTF-8" standalone="no"?>
<svg
   xmlns:dc="http://purl.org/dc/elements/1.1/"
   xmlns:cc="http://creativecommons.org/ns#"
   xmlns:rdf="http://www.w3.org/1999/02/22-rdf-syntax-ns#"
   xmlns:svg="http://www.w3.org/2000/svg"
   xmlns="http://www.w3.org/2000/svg"
   id="svg4"
   version="1.1"
   viewBox="0 0 335.996 310.00001"
   height="310"
   width="335.996">
  <metadata
     id="metadata10">
    <rdf:RDF>
      <cc:Work
         rdf:about="">
        <dc:format>image/svg+xml</dc:format>
        <dc:type
           rdf:resource="http://purl.org/dc/dcmitype/StillImage" />
        <dc:title></dc:title>
      </cc:Work>
    </rdf:RDF>
  </metadata>
  <defs
     id="defs8" />
  <path
     id="path2"
     d="m 257.959,306.65801 a 42.614,42.614 0 1 1 16.541,3.342 42.293,42.293 0 0 1 -16.541,-3.342 z m -104,0 a 42.632,42.632 0 1 1 16.541,3.342 42.262,42.262 0 0 1 -16.545,-3.342 z M 23,267.50001 a 42.5,42.5 0 1 1 42.5,42.5 42.5,42.5 0 0 1 -42.5,-42.5 z m 301,6.5 a 49.88,49.88 0 0 0 -30.374,-46 H 336 v 46 z m -100,0 h -4 a 49.877,49.877 0 0 0 -30.37,-46 h 64.744 a 49.877,49.877 0 0 0 -30.37,46 z m -104,0 h -4 a 49.963,49.963 0 0 0 -30.373,-46 h 64.744 a 49.876,49.876 0 0 0 -30.37,46 z m -104,0 H 0 v -46 h 46.37 a 49.963,49.963 0 0 0 -30.373,46 z m 193,-50 v -6 H 102 V 7.0800779e-6 H 336 V 218.00001 H 214 v 6 z m -122,-44 V 7.0800779e-6 H 97 V 180.00001 Z" />
</svg>
