<?xml version="1.0" encoding="UTF-8" standalone="no"?>
<svg
   xmlns:dc="http://purl.org/dc/elements/1.1/"
   xmlns:cc="http://creativecommons.org/ns#"
   xmlns:rdf="http://www.w3.org/1999/02/22-rdf-syntax-ns#"
   xmlns:svg="http://www.w3.org/2000/svg"
   xmlns="http://www.w3.org/2000/svg"
   id="svg4"
   version="1.1"
   viewBox="0 0 283 310.00001"
   height="310"
   width="283">
  <metadata
     id="metadata10">
    <rdf:RDF>
      <cc:Work
         rdf:about="">
        <dc:format>image/svg+xml</dc:format>
        <dc:type
           rdf:resource="http://purl.org/dc/dcmitype/StillImage" />
        <dc:title></dc:title>
      </cc:Work>
    </rdf:RDF>
  </metadata>
  <defs
     id="defs8" />
  <path
     id="path2"
     d="m 179,267.50001 a 42.5,42.5 0 1 1 42.5,42.5 42.5,42.5 0 0 1 -42.5,-42.5 z m -104,0 a 42.5,42.5 0 1 1 42.5,42.5 42.5,42.5 0 0 1 -42.5,-42.5 z m 196,6.5 a 49.954,49.954 0 0 0 -30.374,-46 H 283 v 46 z m -104,0 a 49.953,49.953 0 0 0 -30.373,-46 h 64.748 a 49.954,49.954 0 0 0 -30.374,46 z m -167,0 v -46 h 97.372 a 49.958,49.958 0 0 0 -30.373,46 z m 156,-50 v -6 H 49 V 7.0800779e-6 H 283 V 218.00001 H 161 v 6 z m -122,-44 V 7.0800779e-6 H 44 V 180.00001 Z" />
</svg>
