<svg xmlns="http://www.w3.org/2000/svg" width="483" height="310.001" viewBox="0 0 483 310.001"><path d="M6154.956,13576.66A42.5,42.5,0,0,1,6171.5,13495h-104a42.343,42.343,0,1,1-16.543,3.34,42.247,42.247,0,0,1,16.543-3.34h-241.5a50.558,50.558,0,0,0-19.992,0h-9l-44-225h436l44,225h-61.5a42.5,42.5,0,1,1-16.543,81.662ZM5773,13537.5a42.5,42.5,0,1,1,42.5,42.5A42.5,42.5,0,0,1,5773,13537.5Zm448,6.5a49.875,49.875,0,0,0-30.37-46H6233v46Zm-100,0h-4a49.88,49.88,0,0,0-30.374-46h64.748a49.873,49.873,0,0,0-30.374,46Zm-255,0a49.962,49.962,0,0,0-30.367-46h211.74a49.881,49.881,0,0,0-30.373,46Zm-116,0v-46h46.368a49.967,49.967,0,0,0-30.366,46Z" transform="translate(-5749.999 -13270)"/></svg>