<?xml version="1.0" encoding="UTF-8" standalone="no"?>
<svg
   xmlns:dc="http://purl.org/dc/elements/1.1/"
   xmlns:cc="http://creativecommons.org/ns#"
   xmlns:rdf="http://www.w3.org/1999/02/22-rdf-syntax-ns#"
   xmlns:svg="http://www.w3.org/2000/svg"
   xmlns="http://www.w3.org/2000/svg"
   xmlns:sodipodi="http://sodipodi.sourceforge.net/DTD/sodipodi-0.dtd"
   xmlns:inkscape="http://www.inkscape.org/namespaces/inkscape"
   width="283"
   height="310"
   viewBox="0 0 283 310"
   version="1.1"
   id="svg12"
   sodipodi:docname="truck-end-6x2-flatbed.svg"
   inkscape:version="0.92.4 (5da689c313, 2019-01-14)">
  <metadata
     id="metadata18">
    <rdf:RDF>
      <cc:Work
         rdf:about="">
        <dc:format>image/svg+xml</dc:format>
        <dc:type
           rdf:resource="http://purl.org/dc/dcmitype/StillImage" />
      </cc:Work>
    </rdf:RDF>
  </metadata>
  <defs
     id="defs16" />
  <sodipodi:namedview
     pagecolor="#ffffff"
     bordercolor="#666666"
     borderopacity="1"
     objecttolerance="10"
     gridtolerance="10"
     guidetolerance="10"
     inkscape:pageopacity="0"
     inkscape:pageshadow="2"
     inkscape:window-width="742"
     inkscape:window-height="480"
     id="namedview14"
     showgrid="false"
     inkscape:zoom="0.76129032"
     inkscape:cx="141.5"
     inkscape:cy="155"
     inkscape:window-x="0"
     inkscape:window-y="0"
     inkscape:window-maximized="0"
     inkscape:current-layer="svg12" />
  <g
     transform="translate(-724 -385)"
     id="g10">
    <path
       d="M172,270.5A42.5,42.5,0,1,1,214.5,313,42.5,42.5,0,0,1,172,270.5Zm-104,0A42.5,42.5,0,1,1,110.5,313,42.5,42.5,0,0,1,68,270.5ZM60,277H-7V231H90.372A49.961,49.961,0,0,0,60,277h0Zm216,0H264a49.959,49.959,0,0,0-30.372-46H276v46Zm-112,0h-4a49.959,49.959,0,0,0-30.372-46h64.745A49.961,49.961,0,0,0,164,277Zm-15-50v-6h5v6ZM27,221V198H276v23Z"
       transform="translate(731 382)"
       id="path8" />
  </g>
</svg>
