<?xml version="1.0" encoding="UTF-8" standalone="no"?>
<svg
   xmlns:dc="http://purl.org/dc/elements/1.1/"
   xmlns:cc="http://creativecommons.org/ns#"
   xmlns:rdf="http://www.w3.org/1999/02/22-rdf-syntax-ns#"
   xmlns:svg="http://www.w3.org/2000/svg"
   xmlns="http://www.w3.org/2000/svg"
   id="svg4"
   version="1.1"
   viewBox="0 0 406 309.99999"
   height="310"
   width="406">
  <metadata
     id="metadata10">
    <rdf:RDF>
      <cc:Work
         rdf:about="">
        <dc:format>image/svg+xml</dc:format>
        <dc:type
           rdf:resource="http://purl.org/dc/dcmitype/StillImage" />
        <dc:title></dc:title>
      </cc:Work>
    </rdf:RDF>
  </metadata>
  <defs
     id="defs8" />
  <path
     id="path2"
     d="m 312.501,309.99899 a 42.5,42.5 0 1 1 0,-85 H 4.001 V -0.00100708 h 402 V 224.99899 h -93.5 a 42.5,42.5 0 1 1 0,85 z m 63,-288.999997 a 7.512,7.512 0 0 0 -7.5,7.5 V 189.49899 a 7.5,7.5 0 1 0 15,0 V 28.498993 a 7.512,7.512 0 0 0 -7.5,-7.5 z m -42,0 a 7.512,7.512 0 0 0 -7.5,7.5 V 189.49899 a 7.5,7.5 0 1 0 15,0 V 28.498993 a 7.51,7.51 0 0 0 -7.5,-7.5 z m -42,0 a 7.51,7.51 0 0 0 -7.5,7.5 V 189.49899 a 7.5,7.5 0 1 0 15,0 V 28.498993 a 7.512,7.512 0 0 0 -7.5,-7.5 z m -42,0 a 7.512,7.512 0 0 0 -7.5,7.5 V 189.49899 a 7.5,7.5 0 1 0 15,0 V 28.498993 a 7.512,7.512 0 0 0 -7.5,-7.5 z m -42,0 a 7.512,7.512 0 0 0 -7.5,7.5 V 189.49899 a 7.5,7.5 0 1 0 15,0 V 28.498993 a 7.51,7.51 0 0 0 -7.5,-7.5 z m -42,0 a 7.512,7.512 0 0 0 -7.5,7.5 V 189.49899 a 7.5,7.5 0 1 0 15,0 V 28.498993 a 7.51,7.51 0 0 0 -7.5,-7.5 z m -42,0 a 7.51,7.51 0 0 0 -7.5,7.5 V 189.49899 a 7.5,7.5 0 1 0 15,0 V 28.498993 a 7.512,7.512 0 0 0 -7.5,-7.5 z m -42,0 a 7.512,7.512 0 0 0 -7.5,7.5 V 189.49899 a 7.5,7.5 0 1 0 15,0 V 28.498993 a 7.512,7.512 0 0 0 -7.5,-7.5 z m -42,0 a 7.512,7.512 0 0 0 -7.5,7.5 V 189.49899 a 7.5,7.5 0 1 0 15,0 V 28.498993 a 7.51,7.51 0 0 0 -7.5,-7.5 z m 366.5,252.999997 h -44.01 c 0.01,-0.306 0.01,-0.642 0.01,-1 a 49.9,49.9 0 0 0 -28.182,-45 h 72.182 z m -143.99,0 H 0.001 v -46 h 290.182 a 49.9,49.9 0 0 0 -28.182,45 c 0,0.328 0,0.667 0.01,1 z" />
</svg>
