<svg xmlns="http://www.w3.org/2000/svg" width="283" height="310" viewBox="0 0 283 310"><g transform="translate(-724 -385)"><path d="M172,270.5A42.5,42.5,0,1,1,214.5,313,42.5,42.5,0,0,1,172,270.5Zm-104,0A42.5,42.5,0,1,1,110.5,313,42.5,42.5,0,0,1,68,270.5ZM60,277H-7V231H90.372A49.961,49.961,0,0,0,60,277Zm216,0H264a49.959,49.959,0,0,0-30.372-46H276Zm-112,0h-4a49.959,49.959,0,0,0-30.372-46h64.745A49.961,49.961,0,0,0,164,277Zm-15-50v-6h5v6ZM27,221V110L71,3H276V221Z" transform="translate(731 382)"/></g></svg>