<svg xmlns="http://www.w3.org/2000/svg" width="483" height="310" viewBox="0 0 483 310"><g transform="translate(-524 -385)"><path d="M172,270.5A42.5,42.5,0,0,1,214.5,228h-104A42.5,42.5,0,1,1,68,270.5,42.5,42.5,0,0,1,110.5,228H-160s-44-61.75-44-118S-160,3-160,3H232s44,50.75,44,107-44,118-44,118H214.5A42.5,42.5,0,1,1,172,270.5ZM276,277H264a49.959,49.959,0,0,0-30.372-46H276Zm-112,0h-4a49.959,49.959,0,0,0-30.372-46h64.745A49.961,49.961,0,0,0,164,277Zm-371,0V231H90.372A49.961,49.961,0,0,0,60,277Z" transform="translate(731 382)"/></g></svg>