<svg xmlns="http://www.w3.org/2000/svg" width="242" height="310" viewBox="0 0 242 310"><path d="M7369.5,13887a42.362,42.362,0,1,1,16.543-3.34A42.249,42.249,0,0,1,7369.5,13887Zm-50.5-36H7192v-46h157.374a49.876,49.876,0,0,0-30.374,46Zm115,0h-15a49.877,49.877,0,0,0-30.373-46H7434Zm-98-50h-5v-6h-90v-218h193v218h-98v6Zm-2-76.448V13734a5,5,0,0,0,10,0v-9.449l13.108,13.1a2.5,2.5,0,0,0,3.534-3.537l-16.266-16.262a2.355,2.355,0,0,0-.376-.311v-27.129l23.494,13.564a2.315,2.315,0,0,0,.08.481l5.953,22.218a2.5,2.5,0,0,0,2.405,1.854,2.5,2.5,0,0,0,2.425-3.147l-4.8-17.907,6.9,3.987a5,5,0,0,0,5-8.66l-6.9-3.984,17.9-4.795a2.5,2.5,0,0,0-1.293-4.831l-22.218,5.953a2.425,2.425,0,0,0-.457.171l-23.5-13.564,23.5-13.564a2.721,2.721,0,0,0,.457.174l22.218,5.953a2.494,2.494,0,0,0,3.06-1.771,2.495,2.495,0,0,0-1.764-3.06l-17.91-4.8,6.9-3.987a5,5,0,0,0,1.833-6.827,5,5,0,0,0-6.831-1.83l-6.9,3.983,4.8-17.9a2.5,2.5,0,1,0-4.827-1.3l-5.957,22.214a2.44,2.44,0,0,0-.08.488L7344,13673.1v-27.132a2.574,2.574,0,0,0,.376-.311l16.266-16.262a2.5,2.5,0,1,0-3.534-3.537L7344,13638.966V13631a5,5,0,0,0-10,0v7.967l-13.1-13.1a2.5,2.5,0,1,0-3.538,3.533l16.262,16.266a2.641,2.641,0,0,0,.38.311v27.132l-23.494-13.564a2.723,2.723,0,0,0-.08-.488l-5.953-22.214a2.513,2.513,0,0,0-2.418-1.853,2.5,2.5,0,0,0-2.413,3.148l4.8,17.9-8.183-4.726a5,5,0,1,0-5,8.661l8.183,4.722-17.907,4.8a2.5,2.5,0,0,0,1.3,4.83l22.218-5.953a2.591,2.591,0,0,0,.457-.174l23.5,13.564-23.5,13.564a2.425,2.425,0,0,0-.457-.171l-22.218-5.953a2.54,2.54,0,0,0-.649-.086,2.5,2.5,0,0,0-.644,4.917l17.9,4.795-8.183,4.723a5,5,0,1,0,5,8.661l8.18-4.723-4.8,17.9a2.5,2.5,0,0,0,2.417,3.146,2.51,2.51,0,0,0,2.413-1.854l5.953-22.218a2.515,2.515,0,0,0,.08-.481l23.494-13.564v27.129a2.337,2.337,0,0,0-.38.311l-16.262,16.262a2.508,2.508,0,0,0,0,3.537,2.5,2.5,0,0,0,3.538,0l13.1-13.1ZM7226,13757v-180h10v180h-10Z" transform="translate(-7192 -13576.999)"/></svg>