<?xml version="1.0" encoding="UTF-8" standalone="no"?>
<svg
   xmlns:dc="http://purl.org/dc/elements/1.1/"
   xmlns:cc="http://creativecommons.org/ns#"
   xmlns:rdf="http://www.w3.org/1999/02/22-rdf-syntax-ns#"
   xmlns:svg="http://www.w3.org/2000/svg"
   xmlns="http://www.w3.org/2000/svg"
   id="svg4"
   version="1.1"
   viewBox="0 0 483 310"
   height="310"
   width="483">
  <metadata
     id="metadata10">
    <rdf:RDF>
      <cc:Work
         rdf:about="">
        <dc:format>image/svg+xml</dc:format>
        <dc:type
           rdf:resource="http://purl.org/dc/dcmitype/StillImage" />
        <dc:title></dc:title>
      </cc:Work>
    </rdf:RDF>
  </metadata>
  <defs
     id="defs8" />
  <path
     id="path2"
     d="m 404.957,306.659 a 42.5,42.5 0 0 1 16.544,-81.658 h -104 a 42.372,42.372 0 1 1 -16.542,3.341 42.256,42.256 0 0 1 16.542,-3.341 h -241.5 a 50.551,50.551 0 0 0 -20.01,0 H 3.001 v -23 h 480 v 23 h -61.5 a 42.5,42.5 0 1 1 -16.545,81.66 z M 23.001,267.501 a 42.5,42.5 0 1 1 42.5,42.5 42.5,42.5 0 0 1 -42.5,-42.5 z m 348,6.5 h -4 a 49.874,49.874 0 0 0 -30.375,-46 h 64.745 a 49.883,49.883 0 0 0 -30.371,46 v 0 z m 112,0 h -12 a 49.879,49.879 0 0 0 -30.371,-46 h 42.371 z m -367,0 a 49.962,49.962 0 0 0 -30.368,-46 h 211.74 a 49.871,49.871 0 0 0 -30.371,46 z m -116,0 v -46 h 46.366 a 49.962,49.962 0 0 0 -30.368,46 z" />
</svg>
