<svg xmlns="http://www.w3.org/2000/svg" width="335.998" height="310.001" viewBox="0 0 335.998 310.001"><path d="M6007.957,13576.657a42.6,42.6,0,1,1,16.54,3.344A42.333,42.333,0,0,1,6007.957,13576.657Zm-104,0A42.6,42.6,0,1,1,5920.5,13580,42.281,42.281,0,0,1,5903.954,13576.657ZM5773,13537.5a42.5,42.5,0,1,1,42.5,42.5A42.5,42.5,0,0,1,5773,13537.5Zm313,6.5-12,0a49.879,49.879,0,0,0-30.373-46H6086v46Zm-112,0h-4a49.876,49.876,0,0,0-30.37-46h64.745a49.876,49.876,0,0,0-30.37,46Zm-104,0h-4a49.963,49.963,0,0,0-30.37-46h64.744a49.879,49.879,0,0,0-30.373,46Zm-104,0v0l-15.995,0v-46h46.371a49.961,49.961,0,0,0-30.373,46ZM5959,13494v-6H5837v-218h249v218H5964v6Z" transform="translate(-5749.999 -13270)"/></svg>