<?xml version="1.0" encoding="UTF-8" standalone="no"?>
<svg
   xmlns:dc="http://purl.org/dc/elements/1.1/"
   xmlns:cc="http://creativecommons.org/ns#"
   xmlns:rdf="http://www.w3.org/1999/02/22-rdf-syntax-ns#"
   xmlns:svg="http://www.w3.org/2000/svg"
   xmlns="http://www.w3.org/2000/svg"
   xmlns:sodipodi="http://sodipodi.sourceforge.net/DTD/sodipodi-0.dtd"
   xmlns:inkscape="http://www.inkscape.org/namespaces/inkscape"
   width="180"
   height="310"
   viewBox="0 0 180 310"
   version="1.1"
   id="svg12"
   sodipodi:docname="truck-front.svg"
   inkscape:version="0.92.4 (5da689c313, 2019-01-14)">
  <metadata
     id="metadata18">
    <rdf:RDF>
      <cc:Work
         rdf:about="">
        <dc:format>image/svg+xml</dc:format>
        <dc:type
           rdf:resource="http://purl.org/dc/dcmitype/StillImage" />
      </cc:Work>
    </rdf:RDF>
  </metadata>
  <defs
     id="defs16" />
  <sodipodi:namedview
     pagecolor="#ffffff"
     bordercolor="#666666"
     borderopacity="1"
     objecttolerance="10"
     gridtolerance="10"
     guidetolerance="10"
     inkscape:pageopacity="0"
     inkscape:pageshadow="2"
     inkscape:window-width="1918"
     inkscape:window-height="1018"
     id="namedview14"
     showgrid="false"
     inkscape:zoom="0.76129032"
     inkscape:cx="90"
     inkscape:cy="155"
     inkscape:window-x="1273"
     inkscape:window-y="0"
     inkscape:window-maximized="0"
     inkscape:current-layer="svg12" />
  <g
     transform="translate(-31 -385)"
     id="g10">
    <path
       d="M44,267.452A42.5,42.5,0,1,1,86.5,310,42.525,42.525,0,0,1,44,267.452Zm136,6.507H136.644a50.888,50.888,0,0,0,.356-6.007,50,50,0,1,0-100,0c0,.106,0,.211,0,.317L0,263.889V136.8L11.094,126.06V79.918H0V65.536H8.838l2.256-14.374,8.061-12.912,11.285-7.908,11.607-3.228,38.047.646L152.963,0H180V273.959h0ZM33,130.8h84V84.746H33Z"
       transform="translate(31 385)"
       id="path8" />
  </g>
</svg>
