<svg xmlns="http://www.w3.org/2000/svg" width="483" height="309.999" viewBox="0 0 483 309.999"><path d="M7613.5,13887a42.5,42.5,0,1,1,0-85h-104a42.366,42.366,0,1,1-16.543,3.34,42.234,42.234,0,0,1,16.543-3.34H7195v-225h480v225h-61.5a42.5,42.5,0,1,1,0,85Zm-185.147-158.54v9.451a5,5,0,0,0,10,0v-9.451l13.108,13.107a2.468,2.468,0,0,0,1.767.729,2.5,2.5,0,0,0,1.767-4.266l-16.266-16.266a2.718,2.718,0,0,0-.376-.311v-27.128l23.494,13.567a2.339,2.339,0,0,0,.08.48l5.953,22.219a2.5,2.5,0,0,0,2.407,1.854,2.449,2.449,0,0,0,.652-.088,2.5,2.5,0,0,0,1.771-3.06l-4.8-17.907,6.9,3.983a5,5,0,0,0,5-8.657l-6.9-3.983,17.9-4.8a2.5,2.5,0,0,0-1.292-4.83l-22.219,5.953a2.454,2.454,0,0,0-.456.17l-23.5-13.563,23.5-13.564a2.445,2.445,0,0,0,.456.171l22.219,5.956a2.53,2.53,0,0,0,.648.086,2.5,2.5,0,0,0,2.162-3.753,2.474,2.474,0,0,0-1.518-1.164l-17.907-4.795,6.9-3.987a4.994,4.994,0,0,0,1.83-6.827,5,5,0,0,0-6.828-1.834l-6.9,3.984,4.8-17.9a2.5,2.5,0,1,0-4.827-1.3l-5.957,22.215a2.372,2.372,0,0,0-.08.488l-23.494,13.564v-27.133a2.831,2.831,0,0,0,.376-.31l16.266-16.262a2.5,2.5,0,1,0-3.534-3.541l-13.108,13.111v-7.971a5,5,0,0,0-10,0v7.967l-13.1-13.107a2.5,2.5,0,0,0-3.541,3.537l16.265,16.266a2.649,2.649,0,0,0,.38.31v27.133l-23.493-13.564a2.617,2.617,0,0,0-.084-.488l-5.949-22.215a2.5,2.5,0,1,0-4.834,1.3l4.8,17.9-8.187-4.723a5,5,0,1,0-4.995,8.66l8.18,4.723-17.9,4.8a2.5,2.5,0,0,0,1.3,4.831l22.214-5.956a2.4,2.4,0,0,0,.459-.171l23.5,13.564-23.5,13.563a2.1,2.1,0,0,0-.459-.17l-22.214-5.957a2.5,2.5,0,1,0-1.294,4.834l17.9,4.8-8.179,4.723a5,5,0,1,0,5,8.66l8.183-4.722-4.8,17.9a2.5,2.5,0,0,0,1.766,3.06,2.5,2.5,0,0,0,3.064-1.767l5.949-22.219a2.564,2.564,0,0,0,.084-.48l23.493-13.567v27.128a2.556,2.556,0,0,0-.38.311l-16.265,16.266a2.5,2.5,0,0,0,3.541,3.537l13.1-13.106ZM7563,13851h-4a49.877,49.877,0,0,0-30.373-46h64.748a49.878,49.878,0,0,0-30.374,46Zm-104,0H7192v-46h297.373a49.883,49.883,0,0,0-30.373,46Zm216,0h-12a49.885,49.885,0,0,0-30.374-46H7675Z" transform="translate(-7192 -13577.001)"/></svg>