<svg xmlns="http://www.w3.org/2000/svg" width="335.998" height="310" viewBox="0 0 335.998 310"><g transform="translate(-8034.002 -1860)"><path d="M6007.959,13351.66A42.614,42.614,0,1,1,6024.5,13355,42.351,42.351,0,0,1,6007.959,13351.66Zm-104,0A42.621,42.621,0,1,1,5920.5,13355,42.307,42.307,0,0,1,5903.957,13351.66ZM5773,13312.5a42.5,42.5,0,1,1,42.5,42.5A42.5,42.5,0,0,1,5773,13312.5Zm313,6.5v0l-12,0a49.88,49.88,0,0,0-30.373-46H6086v46Zm-112,0h-4a49.877,49.877,0,0,0-30.369-46h64.744a49.877,49.877,0,0,0-30.369,46Zm-104,0h-4a49.961,49.961,0,0,0-30.37-46h64.744a49.878,49.878,0,0,0-30.373,46Zm-104,0v0l-15.994,0v-46h46.371a49.959,49.959,0,0,0-30.373,46Z" transform="translate(2284.001 -11185.002)"/><g transform="translate(7282 1266)"><path d="M149,227v-6h5v6Zm-78-6L27,3H276V221Z" transform="translate(812 591)"/></g></g></svg>