<?xml version="1.0" encoding="UTF-8" standalone="no"?>
<svg
   xmlns:dc="http://purl.org/dc/elements/1.1/"
   xmlns:cc="http://creativecommons.org/ns#"
   xmlns:rdf="http://www.w3.org/1999/02/22-rdf-syntax-ns#"
   xmlns:svg="http://www.w3.org/2000/svg"
   xmlns="http://www.w3.org/2000/svg"
   xmlns:sodipodi="http://sodipodi.sourceforge.net/DTD/sodipodi-0.dtd"
   xmlns:inkscape="http://www.inkscape.org/namespaces/inkscape"
   width="312"
   height="310"
   viewBox="0 0 312 310"
   version="1.1"
   id="svg12"
   sodipodi:docname="truck-big-start.svg"
   inkscape:version="0.92.4 (5da689c313, 2019-01-14)">
  <metadata
     id="metadata18">
    <rdf:RDF>
      <cc:Work
         rdf:about="">
        <dc:format>image/svg+xml</dc:format>
        <dc:type
           rdf:resource="http://purl.org/dc/dcmitype/StillImage" />
      </cc:Work>
    </rdf:RDF>
  </metadata>
  <defs
     id="defs16" />
  <sodipodi:namedview
     pagecolor="#ffffff"
     bordercolor="#666666"
     borderopacity="1"
     objecttolerance="10"
     gridtolerance="10"
     guidetolerance="10"
     inkscape:pageopacity="0"
     inkscape:pageshadow="2"
     inkscape:window-width="1918"
     inkscape:window-height="1018"
     id="namedview14"
     showgrid="false"
     inkscape:zoom="0.76129032"
     inkscape:cx="156"
     inkscape:cy="155"
     inkscape:window-x="1273"
     inkscape:window-y="0"
     inkscape:window-maximized="0"
     inkscape:current-layer="svg12" />
  <g
     transform="translate(-232 -748)"
     id="g10">
    <path
       d="M-75,267.452A42.524,42.524,0,0,1-32.5,224.9,42.524,42.524,0,0,1,10,267.452,42.524,42.524,0,0,1-32.5,310,42.524,42.524,0,0,1-75,267.452Zm-2.911,6.508h-53.346l-.5-131.858,5.316-5.3H0L11.094,126.06V79.918H0V65.536H8.838l2.256-14.374,8.061-12.911,11.285-7.908,11.607-3.228,38.047.645L152.963,0H180V273.959H11.911A46.4,46.4,0,0,0,13,263.948,46.078,46.078,0,0,0-33,217.9a46.078,46.078,0,0,0-46,46.051,46.42,46.42,0,0,0,1.09,10.012h0ZM33,130.8h84V84.746H33Z"
       transform="translate(364 748)"
       id="path8" />
  </g>
</svg>
