<?xml version="1.0" encoding="UTF-8" standalone="no"?>
<svg
   xmlns:dc="http://purl.org/dc/elements/1.1/"
   xmlns:cc="http://creativecommons.org/ns#"
   xmlns:rdf="http://www.w3.org/1999/02/22-rdf-syntax-ns#"
   xmlns:svg="http://www.w3.org/2000/svg"
   xmlns="http://www.w3.org/2000/svg"
   id="svg4"
   version="1.1"
   viewBox="0 0 483 309.99999"
   height="310"
   width="483">
  <metadata
     id="metadata10">
    <rdf:RDF>
      <cc:Work
         rdf:about="">
        <dc:format>image/svg+xml</dc:format>
        <dc:type
           rdf:resource="http://purl.org/dc/dcmitype/StillImage" />
        <dc:title></dc:title>
      </cc:Work>
    </rdf:RDF>
  </metadata>
  <defs
     id="defs8" />
  <path
     id="path2"
     d="m 421.501,309.99899 a 42.5,42.5 0 1 1 0,-85 h -104 a 42.359,42.359 0 1 1 -16.542,3.34 42.234,42.234 0 0 1 16.542,-3.34 H 3.001 V -0.00100708 h 480 V 224.99899 h -61.5 a 42.5,42.5 0 1 1 0,85 z m 31,-288.999997 a 7.513,7.513 0 0 0 -7.5,7.5 V 189.49899 a 7.5,7.5 0 1 0 15,0 V 28.498993 a 7.51,7.51 0 0 0 -7.5,-7.5 z m -42,0 a 7.51,7.51 0 0 0 -7.5,7.5 V 189.49899 a 7.5,7.5 0 1 0 15,0 V 28.498993 a 7.511,7.511 0 0 0 -7.5,-7.5 z m -42,0 a 7.511,7.511 0 0 0 -7.5,7.5 V 189.49899 a 7.5,7.5 0 1 0 15,0 V 28.498993 a 7.511,7.511 0 0 0 -7.5,-7.5 z m -42,0 a 7.511,7.511 0 0 0 -7.5,7.5 V 189.49899 a 7.5,7.5 0 1 0 15,0 V 28.498993 a 7.51,7.51 0 0 0 -7.5,-7.5 z m -42,0 a 7.51,7.51 0 0 0 -7.5,7.5 V 189.49899 a 7.5,7.5 0 1 0 15,0 V 28.498993 a 7.511,7.511 0 0 0 -7.5,-7.5 z m -42,0 a 7.51,7.51 0 0 0 -7.5,7.5 V 189.49899 a 7.5,7.5 0 1 0 15,0 V 28.498993 a 7.511,7.511 0 0 0 -7.5,-7.5 z m -42,0 a 7.511,7.511 0 0 0 -7.5,7.5 V 189.49899 a 7.5,7.5 0 1 0 15,0 V 28.498993 a 7.51,7.51 0 0 0 -7.5,-7.5 z m -42,0 a 7.511,7.511 0 0 0 -7.5,7.5 V 189.49899 a 7.5,7.5 0 1 0 15,0 V 28.498993 a 7.51,7.51 0 0 0 -7.5,-7.5 z m -42,0 a 7.51,7.51 0 0 0 -7.5,7.5 V 189.49899 a 7.5,7.5 0 1 0 15,0 V 28.498993 a 7.511,7.511 0 0 0 -7.5,-7.5 z m -42,0 a 7.511,7.511 0 0 0 -7.5,7.5 V 189.49899 a 7.5,7.5 0 1 0 15,0 V 28.498993 a 7.511,7.511 0 0 0 -7.5,-7.5 z m -42,0 a 7.511,7.511 0 0 0 -7.5,7.5 V 189.49899 a 7.5,7.5 0 1 0 15,0 V 28.498993 a 7.51,7.51 0 0 0 -7.5,-7.5 z m 338.5,252.999997 h -4 a 49.878,49.878 0 0 0 -30.374,-46 h 64.748 a 49.878,49.878 0 0 0 -30.374,46 z m 112,0 h -12 a 49.878,49.878 0 0 0 -30.37,-46 h 42.37 z m -216,0 h -267 v -46 h 297.373 a 49.889,49.889 0 0 0 -30.373,46 z" />
</svg>
