<?xml version="1.0" encoding="UTF-8" standalone="no"?>
<svg
   xmlns:dc="http://purl.org/dc/elements/1.1/"
   xmlns:cc="http://creativecommons.org/ns#"
   xmlns:rdf="http://www.w3.org/1999/02/22-rdf-syntax-ns#"
   xmlns:svg="http://www.w3.org/2000/svg"
   xmlns="http://www.w3.org/2000/svg"
   xmlns:sodipodi="http://sodipodi.sourceforge.net/DTD/sodipodi-0.dtd"
   xmlns:inkscape="http://www.inkscape.org/namespaces/inkscape"
   width="406"
   height="310.001"
   viewBox="0 0 406 310.001"
   version="1.1"
   id="svg12"
   sodipodi:docname="truck-end-6x2-tandem.svg"
   inkscape:version="0.92.4 (5da689c313, 2019-01-14)">
  <metadata
     id="metadata18">
    <rdf:RDF>
      <cc:Work
         rdf:about="">
        <dc:format>image/svg+xml</dc:format>
        <dc:type
           rdf:resource="http://purl.org/dc/dcmitype/StillImage" />
      </cc:Work>
    </rdf:RDF>
  </metadata>
  <defs
     id="defs16" />
  <sodipodi:namedview
     pagecolor="#ffffff"
     bordercolor="#666666"
     borderopacity="1"
     objecttolerance="10"
     gridtolerance="10"
     guidetolerance="10"
     inkscape:pageopacity="0"
     inkscape:pageshadow="2"
     inkscape:window-width="1918"
     inkscape:window-height="1018"
     id="namedview14"
     showgrid="false"
     inkscape:zoom="0.49462642"
     inkscape:cx="305.64521"
     inkscape:cy="152.34704"
     inkscape:window-x="1273"
     inkscape:window-y="0"
     inkscape:window-maximized="0"
     inkscape:current-layer="svg12" />
  <g
     transform="translate(-601 -385)"
     id="g10">
    <path
       d="M140,270.5A42.5,42.5,0,0,1,182.5,228H-126V3H276V228H182.5A42.5,42.5,0,1,1,140,270.5ZM276,277H231.991c.006-.319.01-.655.01-1a49.679,49.679,0,0,0-28.181-45H276v46h0Zm-406,0V231H160.18A49.678,49.678,0,0,0,132,276c0,.33,0,.667.01,1h0Z"
       transform="translate(731 382)"
       id="path8" />
  </g>
</svg>
