<svg xmlns="http://www.w3.org/2000/svg" width="335.996" height="310" viewBox="0 0 335.996 310"><path d="M7466.5,13887a42.39,42.39,0,1,1,16.548-3.343A42.262,42.262,0,0,1,7466.5,13887Zm-103.994,0a42.376,42.376,0,1,1,16.544-3.343A42.313,42.313,0,0,1,7362.5,13887Zm-105,0a42.371,42.371,0,1,1,16.543-3.34A42.245,42.245,0,0,1,7257.5,13887Zm158.5-36h-4a49.875,49.875,0,0,0-30.37-46h64.744a49.876,49.876,0,0,0-30.37,46Zm-104,0h-4a49.96,49.96,0,0,0-30.374-46h64.744a49.876,49.876,0,0,0-30.37,46Zm215.994,0h-12a49.877,49.877,0,0,0-30.373-46H7528Zm-320,0h-16v-46h46.371A49.961,49.961,0,0,0,7208,13851Zm198-50h-5v-6H7294v-218h234v218H7406v6Zm-5-76.448V13734a5,5,0,0,0,10,0v-9.449l13.1,13.1a2.5,2.5,0,0,0,3.538,0,2.514,2.514,0,0,0,0-3.537l-16.266-16.262a2.472,2.472,0,0,0-.376-.311v-27.129l23.494,13.564a2.279,2.279,0,0,0,.077.481l5.953,22.218a2.491,2.491,0,0,0,3.064,1.767,2.5,2.5,0,0,0,1.767-3.06l-4.8-17.907,6.9,3.987a5,5,0,1,0,5-8.66l-6.9-3.984,17.9-4.795a2.5,2.5,0,0,0-1.293-4.831l-22.214,5.953a2.406,2.406,0,0,0-.46.171L7416,13681.757l23.494-13.564a2.713,2.713,0,0,0,.46.174l22.214,5.953a2.5,2.5,0,0,0,2.813-3.666,2.477,2.477,0,0,0-1.516-1.164l-17.907-4.8,6.9-3.987a4.995,4.995,0,0,0,1.833-6.827,5,5,0,0,0-6.831-1.83l-6.9,3.983,4.8-17.9a2.493,2.493,0,0,0-1.767-3.063,2.5,2.5,0,0,0-3.06,1.768l-5.957,22.214a2.432,2.432,0,0,0-.077.488L7411,13673.1v-27.132a2.815,2.815,0,0,0,.376-.311l16.266-16.262a2.5,2.5,0,0,0-3.538-3.537l-13.1,13.107V13631a5,5,0,0,0-10,0v7.967l-13.1-13.1a2.5,2.5,0,0,0-3.538,3.533l16.262,16.266a2.7,2.7,0,0,0,.38.311v27.132l-23.493-13.564a2.714,2.714,0,0,0-.081-.488l-5.953-22.214a2.5,2.5,0,1,0-4.83,1.3l4.8,17.9-8.183-4.726a5,5,0,1,0-5,8.661l8.184,4.722-17.907,4.8a2.5,2.5,0,0,0-1.516,1.164,2.468,2.468,0,0,0-.247,1.9,2.5,2.5,0,0,0,3.06,1.771l22.219-5.953a2.578,2.578,0,0,0,.459-.174l23.494,13.564-23.494,13.564a2.361,2.361,0,0,0-.459-.171l-22.219-5.953a2.531,2.531,0,0,0-.649-.086,2.5,2.5,0,0,0-.644,4.917l17.9,4.795-8.183,4.723a5,5,0,1,0,5,8.661l8.18-4.723-4.792,17.9a2.5,2.5,0,0,0,1.763,3.06,2.5,2.5,0,0,0,3.064-1.767l5.953-22.218a2.582,2.582,0,0,0,.081-.481l23.493-13.564v27.129a2.38,2.38,0,0,0-.38.311l-16.262,16.262a2.508,2.508,0,0,0,0,3.537,2.5,2.5,0,0,0,3.538,0l13.1-13.1ZM7279,13757v-180h10v180h-10Z" transform="translate(-7192 -13576.999)"/></svg>