<svg xmlns="http://www.w3.org/2000/svg" width="405.998" height="309.999" viewBox="0 0 405.998 309.999"><path d="M7504.5,13887a42.5,42.5,0,1,1,0-85H7196v-225h402v225h-93.5a42.5,42.5,0,1,1,0,85Zm-114.143-158.54v9.451a5,5,0,0,0,10,0v-9.451l13.107,13.107a2.464,2.464,0,0,0,1.764.729,2.5,2.5,0,0,0,1.771-4.266l-16.266-16.266a3.1,3.1,0,0,0-.376-.311v-27.128l23.493,13.567a2.318,2.318,0,0,0,.077.48l5.957,22.219a2.5,2.5,0,0,0,2.407,1.854,2.454,2.454,0,0,0,.652-.088,2.5,2.5,0,0,0,1.771-3.06l-4.8-17.907,6.9,3.983a5,5,0,0,0,5-8.657l-6.9-3.983,17.9-4.8a2.5,2.5,0,1,0-1.289-4.83l-22.219,5.953a2.383,2.383,0,0,0-.459.17l-23.494-13.563,23.494-13.564a2.449,2.449,0,0,0,.459.171l22.219,5.956a2.53,2.53,0,0,0,.648.086,2.5,2.5,0,0,0,2.411-1.856,2.5,2.5,0,0,0-1.767-3.061l-17.908-4.795,6.9-3.987a5,5,0,0,0,1.83-6.827,5,5,0,0,0-6.831-1.834l-6.9,3.984,4.8-17.9a2.5,2.5,0,0,0-4.83-1.3l-5.957,22.215a2.4,2.4,0,0,0-.077.488l-23.493,13.564v-27.133a3.155,3.155,0,0,0,.376-.31l16.266-16.262a2.5,2.5,0,1,0-3.534-3.541l-13.107,13.111v-7.971a5,5,0,0,0-10,0v7.967l-13.108-13.107a2.5,2.5,0,0,0-3.538,0,2.508,2.508,0,0,0,0,3.537l16.266,16.266a2.617,2.617,0,0,0,.38.31v27.133l-23.5-13.564a2.728,2.728,0,0,0-.08-.488l-5.953-22.215a2.5,2.5,0,1,0-4.83,1.3l4.8,17.9-8.183-4.723a5,5,0,1,0-5,8.66l8.184,4.723-17.907,4.8a2.5,2.5,0,0,0,1.3,4.831l22.217-5.956a2.266,2.266,0,0,0,.46-.171l23.494,13.564-23.494,13.563a2.1,2.1,0,0,0-.46-.17l-22.217-5.957a2.5,2.5,0,1,0-1.293,4.834l17.9,4.8-8.183,4.723a5,5,0,1,0,5,8.66l8.18-4.722-4.792,17.9a2.5,2.5,0,0,0,1.763,3.06,2.5,2.5,0,0,0,3.064-1.767l5.953-22.219a2.6,2.6,0,0,0,.08-.48l23.5-13.567v27.128a2.486,2.486,0,0,0-.38.311l-16.266,16.266a2.5,2.5,0,0,0,1.771,4.269,2.481,2.481,0,0,0,1.767-.731l13.106-13.106ZM7598,13851h-44.007c0-.08,0-.162,0-.245v-.021c0-.223.007-.475.007-.729a49.906,49.906,0,0,0-28.181-45H7598v46Zm-143.99,0H7192v-46H7482.18a49.906,49.906,0,0,0-28.181,45c0,.326,0,.664.011,1Z" transform="translate(-7192 -13577.001)"/></svg>