<?xml version="1.0" encoding="UTF-8" standalone="no"?>
<svg
   xmlns:dc="http://purl.org/dc/elements/1.1/"
   xmlns:cc="http://creativecommons.org/ns#"
   xmlns:rdf="http://www.w3.org/1999/02/22-rdf-syntax-ns#"
   xmlns:svg="http://www.w3.org/2000/svg"
   xmlns="http://www.w3.org/2000/svg"
   id="svg6"
   version="1.1"
   viewBox="0 0 180 310"
   height="310"
   width="180">
  <metadata
     id="metadata12">
    <rdf:RDF>
      <cc:Work
         rdf:about="">
        <dc:format>image/svg+xml</dc:format>
        <dc:type
           rdf:resource="http://purl.org/dc/dcmitype/StillImage" />
        <dc:title></dc:title>
      </cc:Work>
    </rdf:RDF>
  </metadata>
  <defs
     id="defs10" />
  <g
     id="g4"
     transform="translate(-341,-385)">
    <path
       id="path2"
       transform="translate(341,385)"
       d="M 44,267.452 A 42.5,42.5 0 1 1 86.5,310 42.5,42.5 0 0 1 44,267.452 Z m 136,6.507 h -43.356 a 50.888,50.888 0 0 0 0.356,-6.007 50,50 0 1 0 -100,0 v 0.317 L 0,263.889 V 148.8 L 11.094,138.06 V 91.918 H 0 V 77.536 H 8.838 L 11.094,63.162 19.155,50.25 30.44,42.342 42.047,39.114 180,39 Z M 33,136.8 h 84 V 90.746 H 33 Z" />
  </g>
</svg>
