<?xml version="1.0" encoding="UTF-8" standalone="no"?>
<svg
   xmlns:dc="http://purl.org/dc/elements/1.1/"
   xmlns:cc="http://creativecommons.org/ns#"
   xmlns:rdf="http://www.w3.org/1999/02/22-rdf-syntax-ns#"
   xmlns:svg="http://www.w3.org/2000/svg"
   xmlns="http://www.w3.org/2000/svg"
   id="svg4"
   version="1.1"
   viewBox="0 0 335.997 310"
   height="310"
   width="335.99701">
  <metadata
     id="metadata10">
    <rdf:RDF>
      <cc:Work
         rdf:about="">
        <dc:format>image/svg+xml</dc:format>
        <dc:type
           rdf:resource="http://purl.org/dc/dcmitype/StillImage" />
        <dc:title></dc:title>
      </cc:Work>
    </rdf:RDF>
  </metadata>
  <defs
     id="defs8" />
  <path
     id="path2"
     d="m 257.956,306.657 a 42.6,42.6 0 1 1 16.543,3.343 42.338,42.338 0 0 1 -16.543,-3.343 z m -104,0 A 42.612,42.612 0 1 1 170.499,310 42.221,42.221 0 0 1 153.955,306.657 Z M 22.999,267.5 a 42.5,42.5 0 1 1 42.5,42.5 42.5,42.5 0 0 1 -42.5,-42.5 z m 313,6.5 v 0 h -12 a 49.875,49.875 0 0 0 -30.374,-46 h 42.374 z m -112,0 h -4 a 49.873,49.873 0 0 0 -30.371,-46 h 64.745 a 49.873,49.873 0 0 0 -30.371,46 z m -104,0 h -4 A 49.954,49.954 0 0 0 85.628,228 h 64.745 a 49.868,49.868 0 0 0 -30.371,46 z m -104,0 v 0 H 0.006 v -46 h 46.371 a 49.952,49.952 0 0 0 -30.374,46 z m 193,-50 v -6 h -122 v -23 h 249 v 23 h -122 v 6 z" />
</svg>
