<?xml version="1.0" encoding="UTF-8" standalone="no"?>
<svg
   xmlns:dc="http://purl.org/dc/elements/1.1/"
   xmlns:cc="http://creativecommons.org/ns#"
   xmlns:rdf="http://www.w3.org/1999/02/22-rdf-syntax-ns#"
   xmlns:svg="http://www.w3.org/2000/svg"
   xmlns="http://www.w3.org/2000/svg"
   id="svg10"
   version="1.1"
   viewBox="0 0 180 310"
   height="310"
   width="180">
  <metadata
     id="metadata16">
    <rdf:RDF>
      <cc:Work
         rdf:about="">
        <dc:format>image/svg+xml</dc:format>
        <dc:type
           rdf:resource="http://purl.org/dc/dcmitype/StillImage" />
        <dc:title></dc:title>
      </cc:Work>
    </rdf:RDF>
  </metadata>
  <defs
     id="defs14" />
  <g
     id="g8"
     transform="translate(-10230,-620)">
    <path
       d="M 13,0 H 39 V 31 H 0 V 13 A 13,13 0 0 1 13,0 Z M -97,267.452 A 42.5,42.5 0 1 1 -54.5,310 42.5,42.5 0 0 1 -97,267.452 Z m 136,6.507 H -4.356 a 50.888,50.888 0 0 0 0.356,-6.007 50,50 0 1 0 -100,0 v 0.317 l -37,-4.38 V 148.8 l 11.094,-10.74 V 91.918 H -141 V 77.536 h 8.838 l 2.256,-14.374 8.061,-12.912 11.285,-7.908 11.607,-3.228 L 39,39 Z M -108,136.8 h 84 V 90.746 h -84 z"
       transform="translate(10371,620)"
       id="path6" />
  </g>
</svg>
