<svg xmlns="http://www.w3.org/2000/svg" width="283" height="310" viewBox="0 0 283 310"><path d="M7413.5,13887a42.362,42.362,0,1,1,16.543-3.34A42.249,42.249,0,0,1,7413.5,13887Zm-104,0a42.366,42.366,0,1,1,16.543-3.34A42.245,42.245,0,0,1,7309.5,13887Zm53.5-36h-4a49.878,49.878,0,0,0-30.374-46h64.748a49.877,49.877,0,0,0-30.373,46Zm112,0h-12a49.877,49.877,0,0,0-30.373-46H7475Zm-216,0h-67v-46h97.373A49.885,49.885,0,0,0,7259,13851Zm94-50h-5v-6H7241v-218h234v218H7353v6Zm-4-76.448V13734a5,5,0,0,0,10,0v-9.449l13.107,13.1a2.5,2.5,0,0,0,3.534,0,2.508,2.508,0,0,0,0-3.537l-16.265-16.262a2.355,2.355,0,0,0-.376-.311v-27.129l23.494,13.564a2.273,2.273,0,0,0,.08.481l5.953,22.218a2.5,2.5,0,0,0,4.831-1.293l-4.8-17.907,6.9,3.987a5,5,0,0,0,5-8.66l-6.9-3.984,17.9-4.795a2.5,2.5,0,0,0-1.293-4.831l-22.218,5.953a2.477,2.477,0,0,0-.457.171l-23.5-13.564,23.5-13.564a2.705,2.705,0,0,0,.457.174l22.218,5.953a2.493,2.493,0,0,0,3.06-1.771,2.5,2.5,0,0,0-1.763-3.06l-17.911-4.8,6.9-3.987a5,5,0,0,0,1.833-6.827,5,5,0,0,0-6.831-1.83l-6.9,3.983,4.8-17.9a2.5,2.5,0,1,0-4.827-1.3l-5.956,22.214a2.372,2.372,0,0,0-.08.488L7359,13673.1v-27.132a2.548,2.548,0,0,0,.376-.311l16.265-16.262a2.5,2.5,0,1,0-3.534-3.537L7359,13638.966V13631a5,5,0,0,0-10,0v7.967l-13.1-13.1a2.5,2.5,0,1,0-3.537,3.533l16.262,16.266a2.613,2.613,0,0,0,.38.311v27.132l-23.494-13.564a2.4,2.4,0,0,0-.083-.488l-5.949-22.214a2.514,2.514,0,0,0-2.418-1.853,2.5,2.5,0,0,0-2.416,3.148l4.8,17.9-8.183-4.726a5,5,0,1,0-5,8.661l8.18,4.722-17.9,4.8a2.5,2.5,0,0,0-1.767,3.06,2.5,2.5,0,0,0,3.063,1.771l22.218-5.953a2.44,2.44,0,0,0,.457-.174l23.5,13.564-23.5,13.564a2.425,2.425,0,0,0-.457-.171l-22.218-5.953a2.541,2.541,0,0,0-.649-.086,2.5,2.5,0,0,0-.644,4.917l17.9,4.795-8.18,4.723a5,5,0,1,0,5,8.661l8.18-4.723-4.8,17.9a2.5,2.5,0,0,0,1.767,3.06,2.494,2.494,0,0,0,3.063-1.767l5.949-22.218a2.348,2.348,0,0,0,.083-.481l23.494-13.564v27.129a2.317,2.317,0,0,0-.38.311l-16.262,16.262a2.507,2.507,0,0,0,0,3.537,2.5,2.5,0,0,0,3.537,0l13.1-13.1ZM7226,13757v-180h10v180h-10Z" transform="translate(-7192 -13576.999)"/></svg>