<?xml version="1.0" encoding="UTF-8" standalone="no"?>
<svg
   xmlns:dc="http://purl.org/dc/elements/1.1/"
   xmlns:cc="http://creativecommons.org/ns#"
   xmlns:rdf="http://www.w3.org/1999/02/22-rdf-syntax-ns#"
   xmlns:svg="http://www.w3.org/2000/svg"
   xmlns="http://www.w3.org/2000/svg"
   id="svg4"
   version="1.1"
   viewBox="0 0 283.001 309.99999"
   height="310"
   width="283.00101">
  <metadata
     id="metadata10">
    <rdf:RDF>
      <cc:Work
         rdf:about="">
        <dc:format>image/svg+xml</dc:format>
        <dc:type
           rdf:resource="http://purl.org/dc/dcmitype/StillImage" />
        <dc:title></dc:title>
      </cc:Work>
    </rdf:RDF>
  </metadata>
  <defs
     id="defs8" />
  <path
     id="path2"
     d="m 221.501,309.99899 a 42.362,42.362 0 1 1 16.543,-3.34 42.248,42.248 0 0 1 -16.543,3.34 z m -104,0 a 42.364,42.364 0 1 1 16.542,-3.34 42.245,42.245 0 0 1 -16.542,3.34 z m 53.5,-36 h -4 a 49.878,49.878 0 0 0 -30.373,-46 h 64.744 a 49.879,49.879 0 0 0 -30.37,46 z m -104,0 h -67 v -46 h 97.374 a 49.888,49.888 0 0 0 -30.374,46 z m 204,0 a 49.878,49.878 0 0 0 -30.373,-46 h 42.373 v 46 z m -110,-50 h -5 v -6 h -122 V -0.00100708 h 249 V 217.99899 h -122 z m 82.5,-202.999997 a 7.511,7.511 0 0 0 -7.5,7.5 V 189.49899 a 7.5,7.5 0 1 0 15,0 V 28.498993 a 7.51,7.51 0 0 0 -7.5,-7.5 z m -42,0 a 7.511,7.511 0 0 0 -7.5,7.5 V 189.49899 a 7.5,7.5 0 1 0 15,0 V 28.498993 a 7.51,7.51 0 0 0 -7.5,-7.5 z m -42,0 a 7.509,7.509 0 0 0 -7.5,7.5 V 189.49899 a 7.5,7.5 0 1 0 15,0 V 28.498993 a 7.511,7.511 0 0 0 -7.5,-7.5 z m -42,0 a 7.511,7.511 0 0 0 -7.5,7.5 V 189.49899 a 7.5,7.5 0 1 0 15,0 V 28.498993 a 7.511,7.511 0 0 0 -7.5,-7.5 z m -42,0 a 7.511,7.511 0 0 0 -7.5,7.5 V 189.49899 a 7.5,7.5 0 1 0 15,0 V 28.498993 a 7.51,7.51 0 0 0 -7.5,-7.5 z" />
</svg>
