<?xml version="1.0" encoding="UTF-8" standalone="no"?>
<svg
   xmlns:dc="http://purl.org/dc/elements/1.1/"
   xmlns:cc="http://creativecommons.org/ns#"
   xmlns:rdf="http://www.w3.org/1999/02/22-rdf-syntax-ns#"
   xmlns:svg="http://www.w3.org/2000/svg"
   xmlns="http://www.w3.org/2000/svg"
   id="svg4"
   version="1.1"
   viewBox="0 0 335.997 310"
   height="310"
   width="335.99701">
  <metadata
     id="metadata10">
    <rdf:RDF>
      <cc:Work
         rdf:about="">
        <dc:format>image/svg+xml</dc:format>
        <dc:type
           rdf:resource="http://purl.org/dc/dcmitype/StillImage" />
        <dc:title></dc:title>
      </cc:Work>
    </rdf:RDF>
  </metadata>
  <defs
     id="defs8" />
  <path
     id="path2"
     d="m 257.958,306.658 a 42.614,42.614 0 1 1 16.541,3.34 42.351,42.351 0 0 1 -16.541,-3.34 z m -104,0 a 42.621,42.621 0 1 1 16.541,3.34 42.307,42.307 0 0 1 -16.543,-3.34 z M 22.999,267.498 a 42.5,42.5 0 1 1 42.5,42.5 42.5,42.5 0 0 1 -42.5,-42.5 z m 313,6.5 v 0 h -12 a 49.88,49.88 0 0 0 -30.373,-46 h 42.373 z m -112,0 h -4 a 49.877,49.877 0 0 0 -30.369,-46 h 64.744 a 49.877,49.877 0 0 0 -30.369,46 z m -104,0 h -4 a 49.961,49.961 0 0 0 -30.37,-46 h 64.744 a 49.878,49.878 0 0 0 -30.373,46 z m -104,0 v 0 H 0.005 v -46 h 46.371 a 49.959,49.959 0 0 0 -30.373,46 z" />
</svg>
