<svg xmlns="http://www.w3.org/2000/svg" width="483" height="310.001" viewBox="0 0 483 310.001"><path d="M6154.959,13576.66A42.5,42.5,0,0,1,6171.5,13495h-104a42.359,42.359,0,1,1-16.543,3.34,42.247,42.247,0,0,1,16.543-3.34H5826a50.558,50.558,0,0,0-19.992,0h-53v-225h480v225h-61.5a42.5,42.5,0,1,1-16.543,81.662ZM6195,13298.506V13459.5a7.5,7.5,0,1,0,15,0v-160.993a7.5,7.5,0,1,0-15,0Zm-42,0V13459.5a7.5,7.5,0,1,0,15,0v-160.993a7.5,7.5,0,1,0-15,0Zm-42,0V13459.5a7.5,7.5,0,1,0,15,0v-160.993a7.5,7.5,0,1,0-15,0Zm-42,0V13459.5a7.5,7.5,0,1,0,15,0v-160.993a7.5,7.5,0,1,0-15,0Zm-42,0V13459.5a7.5,7.5,0,1,0,15,0v-160.993a7.5,7.5,0,1,0-15,0Zm-42,0V13459.5a7.5,7.5,0,1,0,15,0v-160.993a7.5,7.5,0,1,0-15,0Zm-42.005,0V13459.5a7.5,7.5,0,1,0,15,0v-160.993a7.5,7.5,0,1,0-15,0Zm-42,0V13459.5a7.5,7.5,0,1,0,15,0v-160.993a7.5,7.5,0,1,0-15,0Zm-42,0V13459.5a7.5,7.5,0,1,0,15,0v-160.993a7.5,7.5,0,1,0-15,0Zm-42,0V13459.5a7.5,7.5,0,1,0,15,0v-160.993a7.5,7.5,0,1,0-15,0Zm-42,0V13459.5a7.5,7.5,0,1,0,15,0v-160.993a7.5,7.5,0,1,0-15,0Zm-2,239a42.5,42.5,0,1,1,42.5,42.5A42.5,42.5,0,0,1,5773,13537.5Zm448,6.5a49.883,49.883,0,0,0-30.37-46H6233v46Zm-100,0h-4a49.877,49.877,0,0,0-30.374-46h64.751a49.873,49.873,0,0,0-30.374,46Zm-255,0a49.964,49.964,0,0,0-30.363-46h211.737a49.892,49.892,0,0,0-30.373,46Zm-116,0v-46h46.371a49.965,49.965,0,0,0-30.37,46Z" transform="translate(-5749.999 -13270)"/></svg>