<?xml version="1.0" encoding="UTF-8" standalone="no"?>
<svg
   xmlns:dc="http://purl.org/dc/elements/1.1/"
   xmlns:cc="http://creativecommons.org/ns#"
   xmlns:rdf="http://www.w3.org/1999/02/22-rdf-syntax-ns#"
   xmlns:svg="http://www.w3.org/2000/svg"
   xmlns="http://www.w3.org/2000/svg"
   id="svg8"
   version="1.1"
   viewBox="0 0 515.435 390"
   height="390"
   width="515.435">
  <metadata
     id="metadata14">
    <rdf:RDF>
      <cc:Work
         rdf:about="">
        <dc:format>image/svg+xml</dc:format>
        <dc:type
           rdf:resource="http://purl.org/dc/dcmitype/StillImage" />
        <dc:title></dc:title>
      </cc:Work>
    </rdf:RDF>
  </metadata>
  <defs
     id="defs12" />
  <g
     id="g6"
     transform="translate(-544,-1811)">
    <path
       id="path4"
       transform="translate(551,1907)"
       d="m 331,249 a 45,45 0 1 1 45,45 45,45 0 0 1 -45,-45 z m -8.967,14 H -7 V 3 l 477.222,0.52 8.907,2.939 4.338,4.9 14.275,229.817 10.693,2.916 V 259.5 l -10.693,3.5 h -66.988 c -0.06,-0.933 -0.122,-1.86 -0.183,-2.757 v -0.029 -0.005 C 430.278,255.809 430,251.661 430,248.5 430,219 405.776,195 376,195 c -29.776,0 -54,24 -54,53.5 0,0.746 0,1.6 -0.005,2.59 v 0.012 c -0.01,3.083 -0.023,7.305 0.04,11.9 v 0 z" />
  </g>
</svg>
