<?xml version="1.0" encoding="UTF-8" standalone="no"?>
<svg
   xmlns:dc="http://purl.org/dc/elements/1.1/"
   xmlns:cc="http://creativecommons.org/ns#"
   xmlns:rdf="http://www.w3.org/1999/02/22-rdf-syntax-ns#"
   xmlns:svg="http://www.w3.org/2000/svg"
   xmlns="http://www.w3.org/2000/svg"
   id="svg6"
   version="1.1"
   viewBox="0 0 585.435 350"
   height="350"
   width="585.435">
  <metadata
     id="metadata12">
    <rdf:RDF>
      <cc:Work
         rdf:about="">
        <dc:format>image/svg+xml</dc:format>
        <dc:type
           rdf:resource="http://purl.org/dc/dcmitype/StillImage" />
        <dc:title></dc:title>
      </cc:Work>
    </rdf:RDF>
  </metadata>
  <defs
     id="defs10" />
  <g
     id="g4"
     transform="translate(-1508,-987)">
    <path
       id="path2"
       transform="translate(1585,1018)"
       d="m 331,274 a 45,45 0 1 1 45,45 45,45 0 0 1 -45,-45 z m -8.967,14 H -77 V 3 l 547.222,0.52 8.907,2.939 4.338,4.9 14.275,254.817 10.693,2.916 V 284.5 l -10.693,3.5 h -66.988 c -0.059,-0.9 -0.116,-1.76 -0.185,-2.785 v -0.005 c -0.293,-4.4 -0.571,-8.549 -0.571,-11.71 0,-29.5 -24.224,-53.5 -54,-53.5 -29.776,0 -54,24 -54,53.5 0,0.746 0,1.6 -0.005,2.59 v 0.012 c -0.01,3.082 -0.023,7.3 0.04,11.9 v 0 z" />
  </g>
</svg>
