<?xml version="1.0" encoding="UTF-8" standalone="no"?>
<svg
   xmlns:dc="http://purl.org/dc/elements/1.1/"
   xmlns:cc="http://creativecommons.org/ns#"
   xmlns:rdf="http://www.w3.org/1999/02/22-rdf-syntax-ns#"
   xmlns:svg="http://www.w3.org/2000/svg"
   xmlns="http://www.w3.org/2000/svg"
   xmlns:sodipodi="http://sodipodi.sourceforge.net/DTD/sodipodi-0.dtd"
   xmlns:inkscape="http://www.inkscape.org/namespaces/inkscape"
   width="306"
   height="350"
   viewBox="0 0 306 350"
   version="1.1"
   id="svg8"
   sodipodi:docname="van-front-h1.svg"
   inkscape:version="0.92.4 (5da689c313, 2019-01-14)">
  <metadata
     id="metadata14">
    <rdf:RDF>
      <cc:Work
         rdf:about="">
        <dc:format>image/svg+xml</dc:format>
        <dc:type
           rdf:resource="http://purl.org/dc/dcmitype/StillImage" />
      </cc:Work>
    </rdf:RDF>
  </metadata>
  <defs
     id="defs12" />
  <sodipodi:namedview
     pagecolor="#ffffff"
     bordercolor="#666666"
     borderopacity="1"
     objecttolerance="10"
     gridtolerance="10"
     guidetolerance="10"
     inkscape:pageopacity="0"
     inkscape:pageshadow="2"
     inkscape:window-width="1918"
     inkscape:window-height="1018"
     id="namedview10"
     showgrid="false"
     inkscape:zoom="0.67428571"
     inkscape:cx="153"
     inkscape:cy="175"
     inkscape:window-x="1273"
     inkscape:window-y="0"
     inkscape:window-maximized="0"
     inkscape:current-layer="svg8" />
  <g
     transform="translate(-3326 -3370)"
     id="g6">
    <path
       d="M63,249a45,45,0,1,1,45,45A45,45,0,0,1,63,249Zm-8.892,14h-9.46L-7,254.306V158.653l5.128-5.644,10.792-14.8,30.244-14.842L76.751,111.22H93.337l88.745-89.609,14.863-10.77,26.279-5.816L299,3V263H163c-.131-2.321-.283-4.587-.428-6.779v-.005c-.293-4.4-.571-8.554-.571-11.715,0-29.5-24.224-53.5-54-53.5s-54,24-54,53.5c0,.753,0,1.645-.005,2.589-.013,3.893-.032,9.777.114,15.91h0Z"
       transform="translate(3333 3426)"
       id="path4" />
  </g>
</svg>
