<svg xmlns="http://www.w3.org/2000/svg" width="306.088" height="390" viewBox="0 0 306.088 390"><path d="M5820,13615a45,45,0,1,1,45,45A45,45,0,0,1,5820,13615Zm100,14c-.13-2.317-.281-4.58-.428-6.771v-.014c-.292-4.4-.569-8.554-.569-11.714,0-29.5-24.224-53.5-54-53.5s-54,24-54,53.5c0,.743,0,1.594,0,2.581v.007c-.014,3.9-.031,9.78.113,15.91h-9.462l-51.646-8.693v-95.654l5.125-5.643,10.792-14.8,30.244-14.844,37.59-12.15h16.585l87.872-88.855,7.391-10.781,17.662-18.715,12.873-12.517,19.472-14.752,19.99-11.762,19.291-6.671,21.2-1.934L6056,13629Zm97-328v-18a13,13,0,0,1,13-13h26v31Z" transform="translate(-5750.001 -13270.002)"/></svg>