<?xml version="1.0" encoding="UTF-8" standalone="no"?>
<svg
   xmlns:dc="http://purl.org/dc/elements/1.1/"
   xmlns:cc="http://creativecommons.org/ns#"
   xmlns:rdf="http://www.w3.org/1999/02/22-rdf-syntax-ns#"
   xmlns:svg="http://www.w3.org/2000/svg"
   xmlns="http://www.w3.org/2000/svg"
   id="svg8"
   version="1.1"
   viewBox="0 0 306 390"
   height="390"
   width="306">
  <metadata
     id="metadata14">
    <rdf:RDF>
      <cc:Work
         rdf:about="">
        <dc:format>image/svg+xml</dc:format>
        <dc:type
           rdf:resource="http://purl.org/dc/dcmitype/StillImage" />
        <dc:title></dc:title>
      </cc:Work>
    </rdf:RDF>
  </metadata>
  <defs
     id="defs12" />
  <g
     id="g6"
     transform="translate(-3326,-3330)">
    <path
       id="path4"
       transform="translate(3333,3426)"
       d="m 63,249 a 45,45 0 1 1 45,45 45,45 0 0 1 -45,-45 z m -8.892,14 h -9.46 L -7,254.306 v -95.653 l 5.128,-5.644 10.792,-14.8 30.244,-14.842 37.587,-12.147 H 93.337 L 182.082,21.611 196.945,10.841 223.224,5.025 299,3 V 263 H 163 c -0.131,-2.321 -0.283,-4.587 -0.428,-6.779 v -0.005 c -0.293,-4.4 -0.571,-8.554 -0.571,-11.715 0,-29.5 -24.224,-53.5 -54,-53.5 -29.776,0 -54,24 -54,53.5 0,0.753 0,1.645 -0.005,2.589 -0.013,3.893 -0.032,9.777 0.114,15.91 v 0 z" />
  </g>
</svg>
