<?xml version="1.0" encoding="UTF-8" standalone="no"?>
<svg
   xmlns:dc="http://purl.org/dc/elements/1.1/"
   xmlns:cc="http://creativecommons.org/ns#"
   xmlns:rdf="http://www.w3.org/1999/02/22-rdf-syntax-ns#"
   xmlns:svg="http://www.w3.org/2000/svg"
   xmlns="http://www.w3.org/2000/svg"
   id="svg8"
   version="1.1"
   viewBox="0 0 427.435 390"
   height="390"
   width="427.435">
  <metadata
     id="metadata14">
    <rdf:RDF>
      <cc:Work
         rdf:about="">
        <dc:format>image/svg+xml</dc:format>
        <dc:type
           rdf:resource="http://purl.org/dc/dcmitype/StillImage" />
        <dc:title></dc:title>
      </cc:Work>
    </rdf:RDF>
  </metadata>
  <defs
     id="defs12" />
  <g
     id="g6"
     transform="translate(-1666,-1338)">
    <path
       id="path4"
       transform="translate(1673.094,1409)"
       d="m 242.906,274 a 45,45 0 1 1 45,45 45,45 0 0 1 -45,-45 z m -8.968,14 H -7 V 3 l 395.66,0.52 7.384,2.939 3.6,4.9 11.836,254.817 8.865,2.916 V 284.5 l -8.865,3.5 h -68.819 c -0.059,-0.91 -0.12,-1.815 -0.178,-2.69 l -0.006,-0.1 c -0.293,-4.4 -0.571,-8.551 -0.571,-11.714 0,-29.5 -24.224,-53.5 -54,-53.5 -29.776,0 -54,24 -54,53.5 0,0.726 0,1.556 -0.005,2.516 v 0.074 c -0.01,3.084 -0.024,7.308 0.04,11.91 v 0 z" />
  </g>
</svg>
