<svg xmlns="http://www.w3.org/2000/svg" width="306.174" height="390" viewBox="0 0 306.174 390"><path d="M5820,13615a45,45,0,1,1,45,45A45,45,0,0,1,5820,13615Zm100,14c-.13-2.32-.281-4.587-.428-6.777v-.007c-.292-4.4-.569-8.554-.569-11.714,0-29.5-24.224-53.5-54-53.5s-54,24-54,53.5c0,.754,0,1.646,0,2.592-.014,3.891-.031,9.776.113,15.906h-9.462l-51.646-8.7v-95.647l5.125-5.643,10.792-14.8,30.244-14.841,37.59-12.149h16.585l88.746-89.61,19.178-17.356,17.648-11.389,16.25-7.864,19.65-5.444,44.365-1.755L6056,13629Zm97.176-328v-18a13,13,0,0,1,13-13h26v31Z" transform="translate(-5750.001 -13270.002)"/></svg>