<?xml version="1.0" encoding="UTF-8" standalone="no"?>
<svg
   xmlns:dc="http://purl.org/dc/elements/1.1/"
   xmlns:cc="http://creativecommons.org/ns#"
   xmlns:rdf="http://www.w3.org/1999/02/22-rdf-syntax-ns#"
   xmlns:svg="http://www.w3.org/2000/svg"
   xmlns="http://www.w3.org/2000/svg"
   xmlns:sodipodi="http://sodipodi.sourceforge.net/DTD/sodipodi-0.dtd"
   xmlns:inkscape="http://www.inkscape.org/namespaces/inkscape"
   width="428.436"
   height="350"
   viewBox="0 0 428.436 350"
   version="1.1"
   id="svg8"
   sodipodi:docname="van-end-l2-body.svg"
   inkscape:version="0.92.4 (5da689c313, 2019-01-14)">
  <metadata
     id="metadata14">
    <rdf:RDF>
      <cc:Work
         rdf:about="">
        <dc:format>image/svg+xml</dc:format>
        <dc:type
           rdf:resource="http://purl.org/dc/dcmitype/StillImage" />
      </cc:Work>
    </rdf:RDF>
  </metadata>
  <defs
     id="defs12" />
  <sodipodi:namedview
     pagecolor="#ffffff"
     bordercolor="#666666"
     borderopacity="1"
     objecttolerance="10"
     gridtolerance="10"
     guidetolerance="10"
     inkscape:pageopacity="0"
     inkscape:pageshadow="2"
     inkscape:window-width="742"
     inkscape:window-height="480"
     id="namedview10"
     showgrid="false"
     inkscape:zoom="0.66287613"
     inkscape:cx="214.218"
     inkscape:cy="175"
     inkscape:window-x="0"
     inkscape:window-y="0"
     inkscape:window-maximized="0"
     inkscape:current-layer="svg8" />
  <g
     transform="translate(-3171.999 -3028)"
     id="g6">
    <path
       d="M174,249a45,45,0,1,1,45,45A45,45,0,0,1,174,249Zm99.754,14c-.062-.959-.127-1.928-.184-2.783-.294-4.4-.572-8.555-.572-11.717a53.5,53.5,0,0,0-.756-8.971H344v1.65l7.436,2.916V259.5L344,263ZM-77,263V239.529H165.756A53.551,53.551,0,0,0,165,248.5c0,.727,0,1.557-.005,2.517v.074c-.01,3.083-.023,7.307.04,11.908h0Z"
       transform="translate(3249 3084)"
       id="path4" />
  </g>
</svg>
