<?xml version="1.0" encoding="UTF-8" standalone="no"?>
<svg
   xmlns:dc="http://purl.org/dc/elements/1.1/"
   xmlns:cc="http://creativecommons.org/ns#"
   xmlns:rdf="http://www.w3.org/1999/02/22-rdf-syntax-ns#"
   xmlns:svg="http://www.w3.org/2000/svg"
   xmlns="http://www.w3.org/2000/svg"
   id="svg4"
   version="1.1"
   viewBox="0 0 428.437 390.00001"
   height="390"
   width="428.43701">
  <metadata
     id="metadata10">
    <rdf:RDF>
      <cc:Work
         rdf:about="">
        <dc:format>image/svg+xml</dc:format>
        <dc:type
           rdf:resource="http://purl.org/dc/dcmitype/StillImage" />
        <dc:title></dc:title>
      </cc:Work>
    </rdf:RDF>
  </metadata>
  <defs
     id="defs8" />
  <path
     id="path2"
     d="m 296,390.00001 a 44.859,44.859 0 1 1 17.518,-3.536 44.7,44.7 0 0 1 -17.518,3.536 z m 125,-31 h -70.249 c -0.065,-1.051 -0.137,-2.091 -0.186,-2.782 -0.294,-4.387 -0.571,-8.531 -0.571,-11.719 a 53.333,53.333 0 0 0 -0.757,-8.98 l 71.763,0.01 v 1.651 l 7.435,2.916 v 15.4 z m -178.968,0 H 0 v -23.471 h 242.756 a 53.559,53.559 0 0 0 -0.757,8.97 c 0,0.731 0,1.56 -0.01,2.517 v 0.567 c -0.01,2.978 -0.017,7.056 0.043,11.416 z m 185.968,-28 h -79.633 c -6.057,-23.549 -27.591,-40 -52.368,-40 -24.777,0 -46.312,16.446 -52.362,40 H 5 V 1.4160156e-5 h 423 z m -218.353,-123.539 v 9.45 a 5,5 0 0 0 10,0 v -9.45 l 13.106,13.106 a 2.509,2.509 0 0 0 3.537,0 2.516,2.516 0 0 0 0,-3.54 l -16.265,-16.261 a 2.447,2.447 0 0 0 -0.378,-0.309 v -27.131 l 23.5,13.565 a 2.324,2.324 0 0 0 0.077,0.483 l 5.952,22.217 a 2.494,2.494 0 0 0 3.063,1.767 2.5,2.5 0 0 0 1.767,-3.061 l -4.8,-17.9 6.9,3.985 a 5.000756,5.000756 0 0 0 5,-8.662 l -6.9,-3.981 17.9,-4.795 a 2.5,2.5 0 0 0 -0.643,-4.917 2.52,2.52 0 0 0 -0.647,0.09 l -22.216,5.949 a 2.568,2.568 0 0 0 -0.459,0.175 l -23.5,-13.565 23.5,-13.565 a 2.329,2.329 0 0 0 0.459,0.172 l 22.216,5.955 a 2.5000374,2.5000374 0 0 0 1.293,-4.83 l -17.908,-4.8 6.9,-3.985 a 5,5 0 0 0 1.83,-6.828 5,5 0 0 0 -6.828,-1.829 l -6.9,3.985 4.8,-17.905 a 2.5,2.5 0 0 0 -2.412,-3.148 2.5,2.5 0 0 0 -2.415,1.852 l -5.956,22.217 a 2.344,2.344 0 0 0 -0.077,0.486 l -23.5,13.565 v -27.13 a 2.9,2.9 0 0 0 0.378,-0.312 l 16.265,-16.265 a 2.5006832,2.5006832 0 0 0 -3.537,-3.536 l -13.106,13.109 v -7.971 a 5,5 0 0 0 -10,0 v 7.967 l -13.1,-13.105 a 2.5,2.5 0 0 0 -3.541,0 2.509,2.509 0 0 0 0,3.536 l 16.265,16.265 a 2.949,2.949 0 0 0 0.378,0.313 v 27.13 l -23.492,-13.565 a 2.384,2.384 0 0 0 -0.084,-0.486 l -5.949,-22.213 a 2.512,2.512 0 0 0 -2.418,-1.855 2.5,2.5 0 0 0 -2.415,3.148 l 4.8,17.905 -8.185,-4.726 a 5.000756,5.000756 0 1 0 -5,8.662 l 8.185,4.721 -17.908,4.8 a 2.5009448,2.5009448 0 0 0 1.3,4.83 l 22.22,-5.955 a 2.3,2.3 0 0 0 0.456,-0.172 l 23.5,13.565 -23.5,13.565 a 2.337,2.337 0 0 0 -0.456,-0.175 l -22.22,-5.952 a 2.494,2.494 0 0 0 -3.06,1.77 2.5,2.5 0 0 0 1.767,3.064 l 17.9,4.795 -8.184,4.722 a 5.000323,5.000323 0 1 0 5,8.661 l 8.181,-4.725 -4.795,17.9 a 2.5,2.5 0 0 0 1.767,3.061 2.541,2.541 0 0 0 0.649,0.09 2.507,2.507 0 0 0 2.414,-1.853 l 5.949,-22.217 a 2.427,2.427 0 0 0 0.084,-0.483 l 23.492,-13.565 v 27.131 a 2.358,2.358 0 0 0 -0.378,0.309 L 193,217.03401 a 2.5035116,2.5035116 0 0 0 3.541,3.54 l 13.1,-13.105 z" />
</svg>
