<svg xmlns="http://www.w3.org/2000/svg" width="515.435" height="390" viewBox="0 0 515.435 390"><path d="M6088,13615a45,45,0,1,1,45,45A45,45,0,0,1,6088,13615Zm-338,14v-23.47h329.756a53.525,53.525,0,0,0-.757,8.972c0,.744,0,1.6,0,2.589v.01c-.011,3.086-.024,7.3.041,11.9Zm437.755,0c-.059-.936-.124-1.864-.182-2.76v-.03c-.295-4.4-.573-8.547-.573-11.708a53.545,53.545,0,0,0-.757-8.979l71.756.007v1.649l7.436,2.917v15.4L6258,13629Zm-2.393-28c-6.051-23.549-27.583-40-52.362-40s-46.312,16.448-52.362,40H5755v-331h510v331Z" transform="translate(-5750 -13269.999)"/></svg>