<?xml version="1.0" encoding="UTF-8" standalone="no"?>
<svg
   xmlns:dc="http://purl.org/dc/elements/1.1/"
   xmlns:cc="http://creativecommons.org/ns#"
   xmlns:rdf="http://www.w3.org/1999/02/22-rdf-syntax-ns#"
   xmlns:svg="http://www.w3.org/2000/svg"
   xmlns="http://www.w3.org/2000/svg"
   id="svg8"
   version="1.1"
   viewBox="0 0 306.091 390"
   height="390"
   width="306.091">
  <metadata
     id="metadata14">
    <rdf:RDF>
      <cc:Work
         rdf:about="">
        <dc:format>image/svg+xml</dc:format>
        <dc:type
           rdf:resource="http://purl.org/dc/dcmitype/StillImage" />
        <dc:title></dc:title>
      </cc:Work>
    </rdf:RDF>
  </metadata>
  <defs
     id="defs12" />
  <g
     id="g6"
     transform="translate(-2243,-947)">
    <path
       id="path4"
       transform="translate(2250,985.228)"
       d="m 63,306.772 a 45,45 0 1 1 45,45 45,45 0 0 1 -45,-45 z m -8.892,14 h -9.46 L -7,312.078 v -95.653 l 5.128,-5.644 10.792,-14.8 30.244,-14.842 37.588,-12.149 H 93.337 L 181.209,80.131 188.6,69.349 206.263,50.637 219.138,38.12 238.609,23.368 258.6,11.606 277.888,4.936 299.091,3 299,320.772 H 163 c -0.131,-2.318 -0.282,-4.58 -0.428,-6.769 v -0.015 c -0.293,-4.4 -0.571,-8.553 -0.571,-11.715 0,-29.5 -24.224,-53.5 -54,-53.5 -29.776,0 -54,24 -54,53.5 0,0.743 0,1.595 -0.005,2.581 v 0.009 c -0.013,3.9 -0.032,9.778 0.114,15.909 v 0 z" />
  </g>
</svg>
