<?xml version="1.0" encoding="UTF-8" standalone="no"?>
<svg
   xmlns:dc="http://purl.org/dc/elements/1.1/"
   xmlns:cc="http://creativecommons.org/ns#"
   xmlns:rdf="http://www.w3.org/1999/02/22-rdf-syntax-ns#"
   xmlns:svg="http://www.w3.org/2000/svg"
   xmlns="http://www.w3.org/2000/svg"
   id="svg8"
   version="1.1"
   viewBox="0 0 428.451 390"
   height="390"
   width="428.45099">
  <metadata
     id="metadata14">
    <rdf:RDF>
      <cc:Work
         rdf:about="">
        <dc:format>image/svg+xml</dc:format>
        <dc:type
           rdf:resource="http://purl.org/dc/dcmitype/StillImage" />
        <dc:title></dc:title>
      </cc:Work>
    </rdf:RDF>
  </metadata>
  <defs
     id="defs12" />
  <g
     id="g6"
     transform="translate(-2719.984,-2375)">
    <path
       id="path4"
       transform="translate(2726.984,2471)"
       d="m 244.015,249 a 45,45 0 1 1 45,45 45,45 0 0 1 -45,-45 z m -8.967,14 H -7 V 3 l 396.688,0.52 7.4,2.939 3.605,4.9 11.867,229.817 8.888,2.916 V 259.5 l -8.888,3.5 h -68.79 c -0.059,-0.908 -0.12,-1.811 -0.177,-2.684 l -0.007,-0.1 c -0.293,-4.4 -0.571,-8.551 -0.571,-11.714 0,-29.5 -24.224,-53.5 -54,-53.5 -29.776,0 -54,24 -54,53.5 0,0.727 0,1.556 -0.005,2.516 v 0.074 c -0.011,3.083 -0.024,7.305 0.04,11.91 v 0 z" />
  </g>
</svg>
