<?xml version="1.0" encoding="UTF-8" standalone="no"?>
<svg
   xmlns:dc="http://purl.org/dc/elements/1.1/"
   xmlns:cc="http://creativecommons.org/ns#"
   xmlns:rdf="http://www.w3.org/1999/02/22-rdf-syntax-ns#"
   xmlns:svg="http://www.w3.org/2000/svg"
   xmlns="http://www.w3.org/2000/svg"
   xmlns:sodipodi="http://sodipodi.sourceforge.net/DTD/sodipodi-0.dtd"
   xmlns:inkscape="http://www.inkscape.org/namespaces/inkscape"
   width="510.436"
   height="350"
   viewBox="0 0 510.436 350"
   version="1.1"
   id="svg8"
   sodipodi:docname="van-end-l3h3.svg"
   inkscape:version="0.92.4 (5da689c313, 2019-01-14)">
  <metadata
     id="metadata14">
    <rdf:RDF>
      <cc:Work
         rdf:about="">
        <dc:format>image/svg+xml</dc:format>
        <dc:type
           rdf:resource="http://purl.org/dc/dcmitype/StillImage" />
      </cc:Work>
    </rdf:RDF>
  </metadata>
  <defs
     id="defs12" />
  <sodipodi:namedview
     pagecolor="#ffffff"
     bordercolor="#666666"
     borderopacity="1"
     objecttolerance="10"
     gridtolerance="10"
     guidetolerance="10"
     inkscape:pageopacity="0"
     inkscape:pageshadow="2"
     inkscape:window-width="742"
     inkscape:window-height="480"
     id="namedview10"
     showgrid="false"
     inkscape:zoom="0.55638708"
     inkscape:cx="255.218"
     inkscape:cy="175"
     inkscape:window-x="0"
     inkscape:window-y="0"
     inkscape:window-maximized="0"
     inkscape:current-layer="svg8" />
  <g
     transform="translate(-2762 -1878)"
     id="g6">
    <path
       d="M325.906,307a45,45,0,1,1,45,45A45,45,0,0,1,325.906,307Zm-8.968,14H-7V3l483.775.52,6.192,2.939,3.016,4.9,9.924,287.817,7.434,2.916V317.5l-7.433,3.5H425.66c-.06-.932-.122-1.858-.182-2.752l0-.033c-.293-4.4-.571-8.553-.571-11.714,0-29.5-24.224-53.5-54-53.5s-54,24-54,53.5c0,.746,0,1.6-.005,2.59v.012c-.01,3.083-.023,7.305.04,11.9h0Z"
       transform="translate(2769.094 1876)"
       id="path4" />
  </g>
</svg>
