<svg xmlns="http://www.w3.org/2000/svg" width="305.999" height="390" viewBox="0 0 305.999 390"><path d="M5820,13615a45,45,0,1,1,45,45A45,45,0,0,1,5820,13615Zm100,14c-.13-2.32-.284-4.587-.428-6.777v-.007c-.292-4.4-.569-8.554-.569-11.714,0-29.5-24.224-53.5-54-53.5s-54,24-54,53.5c0,.754,0,1.646,0,2.588-.014,3.895-.031,9.777.113,15.91h-9.462l-51.646-8.693v-95.65l5.125-5.646,10.792-14.8,30.244-14.841,37.587-12.149h16.589l88.743-89.606,14.865-10.771,26.277-5.817L6056,13369v260Zm97-328v-18a13,13,0,0,1,13-13h26v31Z" transform="translate(-5750.001 -13270.002)"/></svg>