<?xml version="1.0" encoding="UTF-8" standalone="no"?>
<svg
   xmlns:dc="http://purl.org/dc/elements/1.1/"
   xmlns:cc="http://creativecommons.org/ns#"
   xmlns:rdf="http://www.w3.org/1999/02/22-rdf-syntax-ns#"
   xmlns:svg="http://www.w3.org/2000/svg"
   xmlns="http://www.w3.org/2000/svg"
   id="svg8"
   version="1.1"
   viewBox="0 0 358.436 390"
   height="390"
   width="358.436">
  <metadata
     id="metadata14">
    <rdf:RDF>
      <cc:Work
         rdf:about="">
        <dc:format>image/svg+xml</dc:format>
        <dc:type
           rdf:resource="http://purl.org/dc/dcmitype/StillImage" />
        <dc:title></dc:title>
      </cc:Work>
    </rdf:RDF>
  </metadata>
  <defs
     id="defs12" />
  <g
     id="g6"
     transform="translate(-3242,-2988)">
    <path
       id="path4"
       transform="translate(3249,3084)"
       d="m 174,249 a 45,45 0 1 1 45,45 45,45 0 0 1 -45,-45 z m 99.754,14 c -0.062,-0.951 -0.124,-1.884 -0.185,-2.786 -0.293,-4.4 -0.571,-8.553 -0.571,-11.714 a 53.5,53.5 0 0 0 -0.756,-8.971 H 344 v 1.65 l 7.436,2.916 V 259.5 L 344,263 Z M -7,263 V 239.529 H 165.756 A 53.559,53.559 0 0 0 165,248.5 c 0,0.752 0,1.6 -0.005,2.591 -0.01,3.083 -0.024,7.3 0.04,11.908 v 0 z" />
  </g>
</svg>
