<?xml version="1.0" encoding="UTF-8" standalone="no"?>
<svg
   xmlns:dc="http://purl.org/dc/elements/1.1/"
   xmlns:cc="http://creativecommons.org/ns#"
   xmlns:rdf="http://www.w3.org/1999/02/22-rdf-syntax-ns#"
   xmlns:svg="http://www.w3.org/2000/svg"
   xmlns="http://www.w3.org/2000/svg"
   id="svg4"
   version="1.1"
   viewBox="0 0 585.434 390.00001"
   height="390"
   width="585.43402">
  <metadata
     id="metadata10">
    <rdf:RDF>
      <cc:Work
         rdf:about="">
        <dc:format>image/svg+xml</dc:format>
        <dc:type
           rdf:resource="http://purl.org/dc/dcmitype/StillImage" />
        <dc:title></dc:title>
      </cc:Work>
    </rdf:RDF>
  </metadata>
  <defs
     id="defs8" />
  <path
     id="path2"
     d="m 453,390.00001 a 44.85,44.85 0 1 1 17.514,-3.536 44.721,44.721 0 0 1 -17.514,3.536 z m -53.967,-31 v 0 H 0 v -23.471 h 399.757 a 53.559,53.559 0 0 0 -0.757,8.97 c 0,0.749 0,1.6 0,2.591 v 0.01 c -0.011,3.067 -0.025,7.269 0.038,11.9 z m 178.964,0 h -70.242 l -0.049,-0.728 -0.033,-0.494 c -0.035,-0.521 -0.07,-1.035 -0.1,-1.54 v -0.03 l -0.022,-0.341 v 0 c -0.282,-4.26 -0.548,-8.283 -0.548,-11.361 a 53.589,53.589 0 0 0 -0.757,-8.977 h 71.756 v 1.651 l 7.435,2.916 v 15.4 l -7.437,3.504 v 0 z m 7,-28 h -79.636 c -6.05,-23.549 -27.583,-40 -52.365,-40 -24.782,0 -46.308,16.446 -52.362,40 H 5 V 1.4160156e-5 H 585 V 331.00001 v 0 z m -297.645,-123.539 v 9.45 a 5,5 0 0 0 10,0 v -9.45 l 13.105,13.106 a 2.482,2.482 0 0 0 1.767,0.729 2.5,2.5 0 0 0 1.771,-4.27 l -16.268,-16.261 a 2.527,2.527 0 0 0 -0.375,-0.309 v -27.131 l 23.492,13.565 a 2.368,2.368 0 0 0 0.081,0.483 l 5.952,22.217 a 2.5001668,2.5001668 0 0 0 4.83,-1.294 l -4.8,-17.9 6.9,3.985 a 5.000756,5.000756 0 0 0 5,-8.662 l -6.9,-3.981 17.9,-4.795 a 2.5,2.5 0 0 0 -0.642,-4.917 2.531,2.531 0 0 0 -0.647,0.09 l -22.22,5.949 a 2.59,2.59 0 0 0 -0.456,0.175 l -23.5,-13.565 23.5,-13.565 a 2.35,2.35 0 0 0 0.456,0.172 l 22.22,5.955 a 2.5000374,2.5000374 0 0 0 1.293,-4.83 l -17.908,-4.8 6.9,-3.985 a 5,5 0 0 0 1.83,-6.828 5,5 0 0 0 -6.832,-1.829 l -6.9,3.985 4.8,-17.905 a 2.5,2.5 0 0 0 -2.415,-3.148 2.5,2.5 0 0 0 -2.412,1.852 l -5.956,22.217 a 2.385,2.385 0 0 0 -0.081,0.486 l -23.492,13.565 v -27.13 a 2.8,2.8 0 0 0 0.375,-0.312 l 16.28,-16.275 a 2.5010368,2.5010368 0 0 0 -3.538,-3.536 l -13.105,13.109 v -7.971 a 5,5 0 0 0 -10,0 v 7.967 l -13.106,-13.105 a 2.5,2.5 0 0 0 -3.537,0 2.508,2.508 0 0 0 0,3.536 l 16.265,16.265 a 2.584,2.584 0 0 0 0.378,0.313 v 27.13 l -23.5,-13.565 a 2.656,2.656 0 0 0 -0.081,-0.486 l -5.952,-22.213 a 2.5,2.5 0 0 0 -4.582,-0.6 2.483,2.483 0 0 0 -0.249,1.9 l 4.795,17.905 -8.181,-4.726 a 5.000756,5.000756 0 1 0 -5,8.662 l 8.181,4.721 -17.9,4.8 a 2.5,2.5 0 0 0 -1.767,3.061 2.5,2.5 0 0 0 3.063,1.77 l 22.216,-5.955 a 2.24,2.24 0 0 0 0.459,-0.172 l 23.5,13.565 -23.5,13.565 a 2.486,2.486 0 0 0 -0.459,-0.175 l -22.216,-5.952 a 2.5,2.5 0 0 0 -3.063,1.77 2.47,2.47 0 0 0 0.252,1.9 2.5,2.5 0 0 0 1.518,1.168 l 17.9,4.795 -8.181,4.722 a 5.000323,5.000323 0 1 0 5,8.661 l 8.178,-4.725 -4.792,17.9 a 2.5,2.5 0 0 0 1.763,3.061 2.541,2.541 0 0 0 0.649,0.09 2.507,2.507 0 0 0 2.414,-1.853 l 5.952,-22.217 a 2.7,2.7 0 0 0 0.081,-0.483 l 23.5,-13.565 v 27.131 a 2.225,2.225 0 0 0 -0.378,0.309 l -16.265,16.261 a 2.515,2.515 0 0 0 0,3.54 2.5,2.5 0 0 0 3.537,0 l 13.1,-13.1 z" />
</svg>
