<?xml version="1.0" encoding="UTF-8" standalone="no"?>
<svg
   xmlns:dc="http://purl.org/dc/elements/1.1/"
   xmlns:cc="http://creativecommons.org/ns#"
   xmlns:rdf="http://www.w3.org/1999/02/22-rdf-syntax-ns#"
   xmlns:svg="http://www.w3.org/2000/svg"
   xmlns="http://www.w3.org/2000/svg"
   id="svg4"
   version="1.1"
   viewBox="0 0 515.434 390.00001"
   height="390"
   width="515.43402">
  <metadata
     id="metadata10">
    <rdf:RDF>
      <cc:Work
         rdf:about="">
        <dc:format>image/svg+xml</dc:format>
        <dc:type
           rdf:resource="http://purl.org/dc/dcmitype/StillImage" />
        <dc:title></dc:title>
      </cc:Work>
    </rdf:RDF>
  </metadata>
  <defs
     id="defs8" />
  <path
     id="path2"
     d="m 383,390.00001 a 44.855,44.855 0 1 1 17.516,-3.536 44.7,44.7 0 0 1 -17.516,3.536 z m -53.963,-31 H 0 v -23.471 h 329.757 a 53.551,53.551 0 0 0 -0.757,8.97 c 0,0.749 0,1.6 0,2.591 v 0.01 c -0.011,3.066 -0.025,7.265 0.039,11.9 z m 178.965,0 h -70.246 c -0.029,-0.488 -0.062,-0.981 -0.093,-1.457 l -0.01,-0.122 -0.01,-0.138 c -0.023,-0.353 -0.046,-0.7 -0.068,-1.045 v -0.03 c -0.283,-4.171 -0.575,-8.483 -0.575,-11.711 a 53.6,53.6 0 0 0 -0.757,-8.977 h 71.756 v 1.651 l 7.435,2.916 v 15.4 l -7.434,3.513 z m 7,-28 h -79.636 c -6.054,-23.549 -27.586,-40 -52.365,-40 -24.779,0 -46.312,16.446 -52.362,40 H 5 V 1.4160156e-5 H 515 V 331.00001 Z m -262.351,-123.539 v 9.45 a 5,5 0 1 0 10,0 v -9.45 l 13.109,13.106 a 2.5,2.5 0 0 0 3.534,0 2.516,2.516 0 0 0 0,-3.54 l -16.265,-16.261 a 2.554,2.554 0 0 0 -0.378,-0.309 v -27.131 l 23.5,13.565 a 2.29,2.29 0 0 0 0.077,0.483 l 5.956,22.217 a 2.5001668,2.5001668 0 0 0 4.83,-1.294 l -4.8,-17.9 6.9,3.985 a 5.000756,5.000756 0 0 0 5,-8.662 l -6.9,-3.981 17.9,-4.795 a 2.5005204,2.5005204 0 1 0 -1.293,-4.831 l -22.216,5.949 a 2.66,2.66 0 0 0 -0.459,0.175 l -23.5,-13.565 23.5,-13.565 a 2.446,2.446 0 0 0 0.459,0.172 l 22.216,5.955 a 2.5,2.5 0 0 0 2.812,-3.665 2.476,2.476 0 0 0 -1.515,-1.165 l -17.909,-4.8 6.9,-3.985 a 5,5 0 0 0 1.833,-6.828 5,5 0 0 0 -6.832,-1.829 l -6.9,3.985 4.8,-17.905 a 2.5,2.5 0 1 0 -4.827,-1.3 l -5.959,22.217 a 2.32,2.32 0 0 0 -0.077,0.486 l -23.5,13.565 v -27.13 a 2.894,2.894 0 0 0 0.378,-0.312 l 16.265,-16.265 a 2.5,2.5 0 0 0 -3.534,-3.536 l -13.109,13.109 v -7.971 a 5,5 0 0 0 -10,0 v 7.967 l -13.106,-13.105 a 2.5006832,2.5006832 0 1 0 -3.537,3.536 l 16.261,16.265 a 2.782,2.782 0 0 0 0.382,0.313 v 27.13 l -23.5,-13.565 a 2.656,2.656 0 0 0 -0.081,-0.486 l -5.952,-22.213 a 2.511,2.511 0 0 0 -2.418,-1.855 2.478,2.478 0 0 0 -0.645,0.09 2.5,2.5 0 0 0 -1.771,3.063 l 4.8,17.905 -8.185,-4.726 a 5.000756,5.000756 0 1 0 -5,8.662 l 8.181,4.721 -17.9,4.8 a 2.5009448,2.5009448 0 0 0 1.3,4.83 l 22.216,-5.955 a 2.353,2.353 0 0 0 0.459,-0.172 l 23.5,13.565 -23.5,13.565 a 2.459,2.459 0 0 0 -0.459,-0.175 l -22.216,-5.952 a 2.5,2.5 0 0 0 -3.063,1.77 2.5,2.5 0 0 0 1.77,3.064 l 17.9,4.795 -8.181,4.722 a 5.000323,5.000323 0 1 0 5,8.661 l 8.181,-4.725 -4.795,17.9 a 2.5,2.5 0 0 0 1.767,3.061 2.534,2.534 0 0 0 0.649,0.09 2.507,2.507 0 0 0 2.414,-1.853 l 5.952,-22.217 a 2.682,2.682 0 0 0 0.081,-0.483 l 23.5,-13.565 v 27.131 a 2.2,2.2 0 0 0 -0.382,0.309 L 236,217.03501 a 2.509,2.509 0 0 0 0,3.54 2.5,2.5 0 0 0 3.537,0 l 13.1,-13.105 z" />
</svg>
