<?xml version="1.0" encoding="UTF-8" standalone="no"?>
<svg
   xmlns:dc="http://purl.org/dc/elements/1.1/"
   xmlns:cc="http://creativecommons.org/ns#"
   xmlns:rdf="http://www.w3.org/1999/02/22-rdf-syntax-ns#"
   xmlns:svg="http://www.w3.org/2000/svg"
   xmlns="http://www.w3.org/2000/svg"
   id="svg4"
   version="1.1"
   viewBox="0 0 428.434 390.00002"
   height="390"
   width="428.43399">
  <metadata
     id="metadata10">
    <rdf:RDF>
      <cc:Work
         rdf:about="">
        <dc:format>image/svg+xml</dc:format>
        <dc:type
           rdf:resource="http://purl.org/dc/dcmitype/StillImage" />
        <dc:title></dc:title>
      </cc:Work>
    </rdf:RDF>
  </metadata>
  <defs
     id="defs8" />
  <path
     id="path2"
     d="m 250.999,345.00001 a 45,45 0 0 1 45,-45 h -291 v -62 h 423 v 62 h -132 a 45,45 0 1 1 -45,45 z m 99.755,14 c -0.062,-0.962 -0.127,-1.93 -0.186,-2.784 -0.293,-4.4 -0.572,-8.556 -0.572,-11.718 a 53.276,53.276 0 0 0 -0.758,-8.979 l 71.76,0.01 v 1.65 l 7.436,2.915 v 15.4 l -7.435,3.506 z m -350.755,-23.47 h 242.754 a 53.6,53.6 0 0 0 -0.755,8.969 c 0,0.727 0,1.557 -0.01,2.519 v 0.07 c -0.01,3.084 -0.021,7.308 0.042,11.907 H -0.004 Z" />
</svg>
