<?xml version="1.0" encoding="UTF-8" standalone="no"?>
<svg
   xmlns:dc="http://purl.org/dc/elements/1.1/"
   xmlns:cc="http://creativecommons.org/ns#"
   xmlns:rdf="http://www.w3.org/1999/02/22-rdf-syntax-ns#"
   xmlns:svg="http://www.w3.org/2000/svg"
   xmlns="http://www.w3.org/2000/svg"
   width="585.43597"
   height="390"
   viewBox="0 0 585.436 390"
   version="1.1"
   id="svg6">
  <metadata
     id="metadata12">
    <rdf:RDF>
      <cc:Work
         rdf:about="">
        <dc:format>image/svg+xml</dc:format>
        <dc:type
           rdf:resource="http://purl.org/dc/dcmitype/StillImage" />
        <dc:title></dc:title>
      </cc:Work>
    </rdf:RDF>
  </metadata>
  <defs
     id="defs10" />
  <g
     transform="translate(-3015,-2988)"
     id="g4">
    <path
       d="m 174,249 a 45,45 0 1 1 45,45 45,45 0 0 1 -45,-45 z m 170,14 h -70.245 c -0.06,-0.935 -0.122,-1.864 -0.183,-2.761 v -0.029 c -0.293,-4.4 -0.571,-8.548 -0.571,-11.709 a 53.523,53.523 0 0 0 -0.757,-8.98 L 344,239.53 v 1.65 l 7.436,2.916 v 15.4 z m -578,0 V 239.529 H 165.756 A 53.558,53.558 0 0 0 165,248.5 c 0,0.746 0,1.6 -0.005,2.59 v 0.012 c -0.01,3.083 -0.023,7.3 0.04,11.9 v 0 z"
       transform="translate(3249,3084)"
       id="path2" />
  </g>
</svg>
