<svg xmlns="http://www.w3.org/2000/svg" width="358.437" height="390" viewBox="0 0 358.437 390"><path d="M5931,13615a45,45,0,1,1,45,45A45,45,0,0,1,5931,13615Zm99.754,14c-.062-.949-.123-1.882-.185-2.787-.291-4.4-.569-8.55-.569-11.711a53.572,53.572,0,0,0-.758-8.981l71.759.01v1.649l7.436,2.917v15.4L6101,13629ZM5750,13629v-23.47h172.754a53.884,53.884,0,0,0-.754,8.972c0,.751,0,1.6-.007,2.589-.007,3.085-.024,7.3.041,11.909Zm278.364-28c-6.051-23.549-27.583-40-52.366-40s-46.312,16.448-52.362,40H5755v-331h353v331Z" transform="translate(-5750 -13269.999)"/></svg>