<svg xmlns="http://www.w3.org/2000/svg" width="428.437" height="390" viewBox="0 0 428.437 390"><path d="M6001,13615a45,45,0,1,1,45,45A45,45,0,0,1,6001,13615Zm99.754,14c-.062-.96-.127-1.927-.185-2.783-.295-4.4-.573-8.554-.573-11.715a53.215,53.215,0,0,0-.758-8.981l71.763.01v1.649l7.436,2.917v15.4L6171,13629ZM5750,13629v-23.47h242.755a53.522,53.522,0,0,0-.754,8.972c0,.728,0,1.557-.007,2.517v.072c-.01,3.085-.024,7.309.042,11.909Zm348.364-28c-6.054-23.549-27.583-40-52.366-40s-46.312,16.448-52.363,40H5755v-331h423v331Z" transform="translate(-5750 -13269.999)"/></svg>