<?xml version="1.0" encoding="UTF-8" standalone="no"?>
<svg
   xmlns:dc="http://purl.org/dc/elements/1.1/"
   xmlns:cc="http://creativecommons.org/ns#"
   xmlns:rdf="http://www.w3.org/1999/02/22-rdf-syntax-ns#"
   xmlns:svg="http://www.w3.org/2000/svg"
   xmlns="http://www.w3.org/2000/svg"
   xmlns:sodipodi="http://sodipodi.sourceforge.net/DTD/sodipodi-0.dtd"
   xmlns:inkscape="http://www.inkscape.org/namespaces/inkscape"
   width="515.436"
   height="350"
   viewBox="0 0 515.436 350"
   version="1.1"
   id="svg8"
   sodipodi:docname="van-end-l3h2.svg"
   inkscape:version="0.92.4 (5da689c313, 2019-01-14)">
  <metadata
     id="metadata14">
    <rdf:RDF>
      <cc:Work
         rdf:about="">
        <dc:format>image/svg+xml</dc:format>
        <dc:type
           rdf:resource="http://purl.org/dc/dcmitype/StillImage" />
      </cc:Work>
    </rdf:RDF>
  </metadata>
  <defs
     id="defs12" />
  <sodipodi:namedview
     pagecolor="#ffffff"
     bordercolor="#666666"
     borderopacity="1"
     objecttolerance="10"
     gridtolerance="10"
     guidetolerance="10"
     inkscape:pageopacity="0"
     inkscape:pageshadow="2"
     inkscape:window-width="742"
     inkscape:window-height="480"
     id="namedview10"
     showgrid="false"
     inkscape:zoom="0.55098987"
     inkscape:cx="257.71799"
     inkscape:cy="175"
     inkscape:window-x="0"
     inkscape:window-y="0"
     inkscape:window-maximized="0"
     inkscape:current-layer="svg8" />
  <g
     transform="translate(-1578 -987)"
     id="g6">
    <path
       d="M331,274a45,45,0,1,1,45,45A45,45,0,0,1,331,274Zm-8.967,14H-7V3l477.222.52,8.907,2.939,4.338,4.9,14.275,254.817,10.693,2.916V284.5L497.742,288H430.754c-.059-.9-.116-1.76-.185-2.785v-.005c-.293-4.4-.571-8.549-.571-11.71,0-29.5-24.224-53.5-54-53.5s-54,24-54,53.5c0,.746,0,1.6-.005,2.59v.012c-.01,3.082-.023,7.3.04,11.9h0Z"
       transform="translate(1585 1018)"
       id="path4" />
  </g>
</svg>
