<?xml version="1.0" encoding="UTF-8" standalone="no"?>
<svg
   xmlns:dc="http://purl.org/dc/elements/1.1/"
   xmlns:cc="http://creativecommons.org/ns#"
   xmlns:rdf="http://www.w3.org/1999/02/22-rdf-syntax-ns#"
   xmlns:svg="http://www.w3.org/2000/svg"
   xmlns="http://www.w3.org/2000/svg"
   xmlns:sodipodi="http://sodipodi.sourceforge.net/DTD/sodipodi-0.dtd"
   xmlns:inkscape="http://www.inkscape.org/namespaces/inkscape"
   width="428.451"
   height="350"
   viewBox="0 0 428.451 350"
   version="1.1"
   id="svg8"
   sodipodi:docname="van-end-l2h1.svg"
   inkscape:version="0.92.4 (5da689c313, 2019-01-14)">
  <metadata
     id="metadata14">
    <rdf:RDF>
      <cc:Work
         rdf:about="">
        <dc:format>image/svg+xml</dc:format>
        <dc:type
           rdf:resource="http://purl.org/dc/dcmitype/StillImage" />
      </cc:Work>
    </rdf:RDF>
  </metadata>
  <defs
     id="defs12" />
  <sodipodi:namedview
     pagecolor="#ffffff"
     bordercolor="#666666"
     borderopacity="1"
     objecttolerance="10"
     gridtolerance="10"
     guidetolerance="10"
     inkscape:pageopacity="0"
     inkscape:pageshadow="2"
     inkscape:window-width="1918"
     inkscape:window-height="1018"
     id="namedview10"
     showgrid="false"
     inkscape:zoom="0.66285295"
     inkscape:cx="214.22549"
     inkscape:cy="175"
     inkscape:window-x="1273"
     inkscape:window-y="0"
     inkscape:window-maximized="0"
     inkscape:current-layer="svg8" />
  <g
     transform="translate(-2719.984 -2415)"
     id="g6">
    <path
       d="M244.015,249a45,45,0,1,1,45,45A45,45,0,0,1,244.015,249Zm-8.967,14H-7V3l396.688.52,7.4,2.939,3.605,4.9,11.867,229.817,8.888,2.916V259.5l-8.888,3.5H343.77c-.059-.908-.12-1.811-.177-2.684l-.007-.1c-.293-4.4-.571-8.551-.571-11.714,0-29.5-24.224-53.5-54-53.5s-54,24-54,53.5c0,.727,0,1.556-.005,2.516v.074c-.011,3.083-.024,7.305.04,11.91h0Z"
       transform="translate(2726.984 2471)"
       id="path4" />
  </g>
</svg>
