<?xml version="1.0" encoding="UTF-8" standalone="no"?>
<svg
   xmlns:dc="http://purl.org/dc/elements/1.1/"
   xmlns:cc="http://creativecommons.org/ns#"
   xmlns:rdf="http://www.w3.org/1999/02/22-rdf-syntax-ns#"
   xmlns:svg="http://www.w3.org/2000/svg"
   xmlns="http://www.w3.org/2000/svg"
   width="580.341"
   height="390"
   viewBox="0 0 580.341 390"
   version="1.1"
   id="svg6">
  <metadata
     id="metadata12">
    <rdf:RDF>
      <cc:Work
         rdf:about="">
        <dc:format>image/svg+xml</dc:format>
        <dc:type
           rdf:resource="http://purl.org/dc/dcmitype/StillImage" />
        <dc:title></dc:title>
      </cc:Work>
    </rdf:RDF>
  </metadata>
  <defs
     id="defs10" />
  <g
     transform="translate(-2692.094,-1838)"
     id="g4">
    <path
       d="m 325.906,307 a 45,45 0 1 1 45,45 45,45 0 0 1 -45,-45 z m -8.968,14 H -77 V 3 l 553.775,0.52 6.192,2.939 3.016,4.9 9.924,287.817 7.434,2.916 V 317.5 l -7.433,3.5 H 425.66 c -0.06,-0.932 -0.122,-1.858 -0.182,-2.752 v -0.033 c -0.293,-4.4 -0.571,-8.553 -0.571,-11.714 0,-29.5 -24.224,-53.5 -54,-53.5 -29.776,0 -54,24 -54,53.5 0,0.746 0,1.6 -0.005,2.59 v 0.012 c -0.01,3.083 -0.023,7.3 0.04,11.9 v 0 z"
       transform="translate(2769.094,1876)"
       id="path2" />
  </g>
</svg>
