<?xml version="1.0" encoding="UTF-8" standalone="no"?>
<svg
   xmlns:dc="http://purl.org/dc/elements/1.1/"
   xmlns:cc="http://creativecommons.org/ns#"
   xmlns:rdf="http://www.w3.org/1999/02/22-rdf-syntax-ns#"
   xmlns:svg="http://www.w3.org/2000/svg"
   xmlns="http://www.w3.org/2000/svg"
   xmlns:sodipodi="http://sodipodi.sourceforge.net/DTD/sodipodi-0.dtd"
   xmlns:inkscape="http://www.inkscape.org/namespaces/inkscape"
   width="428.435"
   height="350"
   viewBox="0 0 428.435 350"
   version="1.1"
   id="svg8"
   sodipodi:docname="van-end-l2h3.svg"
   inkscape:version="0.92.4 (5da689c313, 2019-01-14)">
  <metadata
     id="metadata14">
    <rdf:RDF>
      <cc:Work
         rdf:about="">
        <dc:format>image/svg+xml</dc:format>
        <dc:type
           rdf:resource="http://purl.org/dc/dcmitype/StillImage" />
      </cc:Work>
    </rdf:RDF>
  </metadata>
  <defs
     id="defs12" />
  <sodipodi:namedview
     pagecolor="#ffffff"
     bordercolor="#666666"
     borderopacity="1"
     objecttolerance="10"
     gridtolerance="10"
     guidetolerance="10"
     inkscape:pageopacity="0"
     inkscape:pageshadow="2"
     inkscape:window-width="742"
     inkscape:window-height="480"
     id="namedview10"
     showgrid="false"
     inkscape:zoom="0.66287769"
     inkscape:cx="214.2175"
     inkscape:cy="175"
     inkscape:window-x="0"
     inkscape:window-y="0"
     inkscape:window-maximized="0"
     inkscape:current-layer="svg8" />
  <g
     transform="translate(-2386 -2353)"
     id="g6">
    <path
       d="M243.906,307a45,45,0,1,1,45,45A45,45,0,0,1,243.906,307Zm-8.968,14H-7V3l401.775.52,6.192,2.939,3.016,4.9,9.924,287.817,7.434,2.916V317.5l-7.434,3.5H343.661c-.062-.959-.127-1.929-.184-2.783-.294-4.4-.572-8.555-.572-11.717,0-29.5-24.224-53.5-54-53.5s-54,24-54,53.5c0,.728,0,1.569-.005,2.591v.012c-.01,3.083-.023,7.3.04,11.9h0Z"
       transform="translate(2393.094 2351)"
       id="path4" />
  </g>
</svg>
