<?xml version="1.0" encoding="UTF-8" standalone="no"?>
<svg
   xmlns:dc="http://purl.org/dc/elements/1.1/"
   xmlns:cc="http://creativecommons.org/ns#"
   xmlns:rdf="http://www.w3.org/1999/02/22-rdf-syntax-ns#"
   xmlns:svg="http://www.w3.org/2000/svg"
   xmlns="http://www.w3.org/2000/svg"
   id="svg4"
   version="1.1"
   viewBox="0 0 515.437 390.00002"
   height="390"
   width="515.43701">
  <metadata
     id="metadata10">
    <rdf:RDF>
      <cc:Work
         rdf:about="">
        <dc:format>image/svg+xml</dc:format>
        <dc:type
           rdf:resource="http://purl.org/dc/dcmitype/StillImage" />
        <dc:title></dc:title>
      </cc:Work>
    </rdf:RDF>
  </metadata>
  <defs
     id="defs8" />
  <path
     id="path2"
     d="m 337.999,345.00001 a 45,45 0 0 1 45,-45 h -378 v -62 h 510 v 62 h -132 a 45,45 0 1 1 -45,45 z m 99.755,14 c -0.059,-0.937 -0.121,-1.864 -0.183,-2.76 v -0.03 c -0.293,-4.4 -0.572,-8.549 -0.572,-11.708 a 53.274,53.274 0 0 0 -0.758,-8.979 h 71.756 v 1.65 l 7.439,2.915 v 15.4 l -7.437,3.512 z m -437.755,0 v -23.471 h 329.754 a 53.6,53.6 0 0 0 -0.755,8.969 c 0,0.747 0,1.6 0,2.591 v 0.01 c -0.01,3.088 -0.024,7.3 0.038,11.9 z" />
</svg>
