<svg xmlns="http://www.w3.org/2000/svg" width="585.435" height="390" viewBox="0 0 585.435 390"><path d="M6158,13615a45,45,0,1,1,45,45A45,45,0,0,1,6158,13615Zm-408,14v-23.47h399.756a53.525,53.525,0,0,0-.757,8.972c0,.744,0,1.6,0,2.589v.01c-.01,3.086-.024,7.3.038,11.9Zm507.755,0c-.062-.936-.124-1.864-.185-2.76v-.03c-.292-4.4-.569-8.547-.569-11.708a53.545,53.545,0,0,0-.757-8.979l71.756.007v1.649l7.436,2.917v15.4L6328,13629Zm-2.393-28c-6.051-23.549-27.583-40-52.366-40s-46.308,16.448-52.359,40H5755v-331h580v331Z" transform="translate(-5750 -13269.999)"/></svg>