<?xml version="1.0" encoding="UTF-8" standalone="no"?>
<svg
   xmlns:dc="http://purl.org/dc/elements/1.1/"
   xmlns:cc="http://creativecommons.org/ns#"
   xmlns:rdf="http://www.w3.org/1999/02/22-rdf-syntax-ns#"
   xmlns:svg="http://www.w3.org/2000/svg"
   xmlns="http://www.w3.org/2000/svg"
   xmlns:sodipodi="http://sodipodi.sourceforge.net/DTD/sodipodi-0.dtd"
   xmlns:inkscape="http://www.inkscape.org/namespaces/inkscape"
   width="515.435"
   height="350"
   viewBox="0 0 515.435 350"
   version="1.1"
   id="svg8"
   sodipodi:docname="van-end-l3-body.svg"
   inkscape:version="0.92.4 (5da689c313, 2019-01-14)">
  <metadata
     id="metadata14">
    <rdf:RDF>
      <cc:Work
         rdf:about="">
        <dc:format>image/svg+xml</dc:format>
        <dc:type
           rdf:resource="http://purl.org/dc/dcmitype/StillImage" />
      </cc:Work>
    </rdf:RDF>
  </metadata>
  <defs
     id="defs12" />
  <sodipodi:namedview
     pagecolor="#ffffff"
     bordercolor="#666666"
     borderopacity="1"
     objecttolerance="10"
     gridtolerance="10"
     guidetolerance="10"
     inkscape:pageopacity="0"
     inkscape:pageshadow="2"
     inkscape:window-width="742"
     inkscape:window-height="480"
     id="namedview10"
     showgrid="false"
     inkscape:zoom="0.55099091"
     inkscape:cx="257.7175"
     inkscape:cy="175"
     inkscape:window-x="0"
     inkscape:window-y="0"
     inkscape:window-maximized="0"
     inkscape:current-layer="svg8" />
  <g
     transform="translate(-3085 -3028)"
     id="g6">
    <path
       d="M174,249a45,45,0,1,1,45,45A45,45,0,0,1,174,249Zm170,14H273.755c-.06-.935-.122-1.864-.183-2.761l0-.024v-.005c-.293-4.4-.571-8.548-.571-11.709a53.5,53.5,0,0,0-.756-8.971H344v1.65l7.436,2.916V259.5L344,263Zm-508,0V239.529H165.756A53.559,53.559,0,0,0,165,248.5c0,.746,0,1.6-.005,2.59v.012c-.01,3.083-.023,7.3.04,11.9h0Z"
       transform="translate(3249 3084)"
       id="path4" />
  </g>
</svg>
