<?xml version="1.0" encoding="UTF-8" standalone="no"?>
<svg
   xmlns:dc="http://purl.org/dc/elements/1.1/"
   xmlns:cc="http://creativecommons.org/ns#"
   xmlns:rdf="http://www.w3.org/1999/02/22-rdf-syntax-ns#"
   xmlns:svg="http://www.w3.org/2000/svg"
   xmlns="http://www.w3.org/2000/svg"
   id="svg8"
   version="1.1"
   viewBox="0 0 358.436 390"
   height="390"
   width="358.436">
  <metadata
     id="metadata14">
    <rdf:RDF>
      <cc:Work
         rdf:about="">
        <dc:format>image/svg+xml</dc:format>
        <dc:type
           rdf:resource="http://purl.org/dc/dcmitype/StillImage" />
        <dc:title></dc:title>
      </cc:Work>
    </rdf:RDF>
  </metadata>
  <defs
     id="defs12" />
  <g
     id="g6"
     transform="translate(-2549,-947)">
    <path
       id="path4"
       transform="translate(2556.094,985)"
       d="m 173.906,307 a 45,45 0 1 1 45,45 45,45 0 0 1 -45,-45 z m -8.967,14 H -7 V 3 l 331.776,0.52 6.192,2.939 3.016,4.9 9.924,287.817 7.434,2.916 V 317.5 l -7.434,3.5 h -70.247 c -0.062,-0.95 -0.124,-1.884 -0.184,-2.786 -0.293,-4.4 -0.571,-8.553 -0.571,-11.714 0,-29.5 -24.224,-53.5 -54,-53.5 -29.776,0 -54,24 -54,53.5 0,0.751 0,1.6 -0.005,2.591 -0.011,3.082 -0.024,7.3 0.04,11.909 v 0 z" />
  </g>
</svg>
