<?xml version="1.0" encoding="UTF-8" standalone="no"?>
<svg
   xmlns:dc="http://purl.org/dc/elements/1.1/"
   xmlns:cc="http://creativecommons.org/ns#"
   xmlns:rdf="http://www.w3.org/1999/02/22-rdf-syntax-ns#"
   xmlns:svg="http://www.w3.org/2000/svg"
   xmlns="http://www.w3.org/2000/svg"
   id="svg8"
   version="1.1"
   viewBox="0 0 306.176 390"
   height="390"
   width="306.17599">
  <metadata
     id="metadata14">
    <rdf:RDF>
      <cc:Work
         rdf:about="">
        <dc:format>image/svg+xml</dc:format>
        <dc:type
           rdf:resource="http://purl.org/dc/dcmitype/StillImage" />
        <dc:title></dc:title>
      </cc:Work>
    </rdf:RDF>
  </metadata>
  <defs
     id="defs12" />
  <g
     id="g6"
     transform="translate(-238,-2284)">
    <path
       id="path4"
       transform="translate(245,2354.801)"
       d="m 63,274.2 a 45,45 0 1 1 45,45 45,45 0 0 1 -45,-45 z m -8.892,14 h -9.46 L -7,279.5 V 183.852 L -1.872,178.208 8.92,163.41 39.164,148.568 76.752,136.419 H 93.337 L 182.083,46.81 201.261,29.452 218.909,18.064 235.16,10.2 254.809,4.755 299.176,3 299,288.2 H 163 c -0.131,-2.321 -0.282,-4.587 -0.428,-6.779 v -0.005 c -0.293,-4.4 -0.571,-8.553 -0.571,-11.715 0,-29.5 -24.224,-53.5 -54,-53.5 -29.776,0 -54,24 -54,53.5 0,0.753 0,1.646 -0.005,2.59 -0.013,3.893 -0.032,9.777 0.114,15.909 v 0 z" />
  </g>
</svg>
