<?xml version="1.0" encoding="UTF-8" standalone="no"?>
<svg
   xmlns:dc="http://purl.org/dc/elements/1.1/"
   xmlns:cc="http://creativecommons.org/ns#"
   xmlns:rdf="http://www.w3.org/1999/02/22-rdf-syntax-ns#"
   xmlns:svg="http://www.w3.org/2000/svg"
   xmlns="http://www.w3.org/2000/svg"
   id="svg8"
   version="1.1"
   viewBox="0 0 515.435 390"
   height="390"
   width="515.435">
  <metadata
     id="metadata14">
    <rdf:RDF>
      <cc:Work
         rdf:about="">
        <dc:format>image/svg+xml</dc:format>
        <dc:type
           rdf:resource="http://purl.org/dc/dcmitype/StillImage" />
        <dc:title></dc:title>
      </cc:Work>
    </rdf:RDF>
  </metadata>
  <defs
     id="defs12" />
  <g
     id="g6"
     transform="translate(-3085,-2988)">
    <path
       id="path4"
       transform="translate(3249,3084)"
       d="m 174,249 a 45,45 0 1 1 45,45 45,45 0 0 1 -45,-45 z m 170,14 h -70.245 c -0.06,-0.935 -0.122,-1.864 -0.183,-2.761 v -0.024 -0.005 c -0.293,-4.4 -0.571,-8.548 -0.571,-11.709 a 53.5,53.5 0 0 0 -0.756,-8.971 H 344 v 1.65 l 7.436,2.916 V 259.5 Z m -508,0 V 239.529 H 165.756 A 53.559,53.559 0 0 0 165,248.5 c 0,0.746 0,1.6 -0.005,2.59 v 0.012 c -0.01,3.083 -0.023,7.3 0.04,11.9 v 0 z" />
  </g>
</svg>
