<?xml version="1.0" encoding="UTF-8" standalone="no"?>
<svg
   xmlns:dc="http://purl.org/dc/elements/1.1/"
   xmlns:cc="http://creativecommons.org/ns#"
   xmlns:rdf="http://www.w3.org/1999/02/22-rdf-syntax-ns#"
   xmlns:svg="http://www.w3.org/2000/svg"
   xmlns="http://www.w3.org/2000/svg"
   xmlns:sodipodi="http://sodipodi.sourceforge.net/DTD/sodipodi-0.dtd"
   xmlns:inkscape="http://www.inkscape.org/namespaces/inkscape"
   width="427.435"
   height="350"
   viewBox="0 0 427.435 350"
   version="1.1"
   id="svg8"
   sodipodi:docname="van-end-l2h2.svg"
   inkscape:version="0.92.4 (5da689c313, 2019-01-14)">
  <metadata
     id="metadata14">
    <rdf:RDF>
      <cc:Work
         rdf:about="">
        <dc:format>image/svg+xml</dc:format>
        <dc:type
           rdf:resource="http://purl.org/dc/dcmitype/StillImage" />
      </cc:Work>
    </rdf:RDF>
  </metadata>
  <defs
     id="defs12" />
  <sodipodi:namedview
     pagecolor="#ffffff"
     bordercolor="#666666"
     borderopacity="1"
     objecttolerance="10"
     gridtolerance="10"
     guidetolerance="10"
     inkscape:pageopacity="0"
     inkscape:pageshadow="2"
     inkscape:window-width="742"
     inkscape:window-height="480"
     id="namedview10"
     showgrid="false"
     inkscape:zoom="0.66442851"
     inkscape:cx="213.7175"
     inkscape:cy="175"
     inkscape:window-x="0"
     inkscape:window-y="0"
     inkscape:window-maximized="0"
     inkscape:current-layer="svg8" />
  <g
     transform="translate(-1666 -1378)"
     id="g6">
    <path
       d="M242.906,274a45,45,0,1,1,45,45A45,45,0,0,1,242.906,274Zm-8.968,14H-7V3l395.66.52,7.384,2.939,3.6,4.9,11.836,254.817,8.865,2.916V284.5l-8.865,3.5H342.661c-.059-.91-.12-1.815-.178-2.69l-.006-.1c-.293-4.4-.571-8.551-.571-11.714,0-29.5-24.224-53.5-54-53.5s-54,24-54,53.5c0,.726,0,1.556-.005,2.516v.074c-.01,3.084-.024,7.308.04,11.91h0Z"
       transform="translate(1673.094 1409)"
       id="path4" />
  </g>
</svg>
