<?xml version="1.0" standalone="no"?>
<!DOCTYPE svg PUBLIC "-//W3C//DTD SVG 1.1//EN" "http://www.w3.org/Graphics/SVG/1.1/DTD/svg11.dtd" >
<svg xmlns="http://www.w3.org/2000/svg">
<defs>
  <font id="transportation-font" horiz-adv-x="1672.6742">
    <font-face font-family="transportation-font"
      units-per-em="1000" ascent="1000"
      descent="0" />
    <missing-glyph horiz-adv-x="0" />
    <glyph glyph-name="container-end-2-small"
      unicode="&#xF101;"
      horiz-adv-x="454.8419677419355" d="M262.9064702586187 -0.0000322580656A136.65807420812158 136.65806892445377 0 1 0 316.2677643656612 10.774161637876A136.27420321315498 136.2741979443289 0 0 0 262.9064702586187 -0.0000322580656zM454.8419677419355 296.7741708636829H0.0032258066804V999.9999999999998H454.8419677419355zM362.9064773507669 951.6129016649322A24.219356556382234 24.219355619979208 0 0 1 338.7129272478278 927.4193524973984V408.0644970343386A24.1935501029391 24.19354916753384 0 1 1 387.100027453706 408.0644970343386V927.4193524973984A24.22580816974301 24.225807233090553 0 0 1 362.9064773507669 951.6129016649325zM227.4225967743079 951.6129016649322A24.22580816974301 24.225807233090553 0 0 1 203.2290466713689 927.4193524973984V408.0644970343386A24.1935501029391 24.19354916753384 0 1 1 251.6161468772471 408.0644970343386V927.4193524973984A24.22580816974301 24.225807233090553 0 0 1 227.4225967743079 951.6129016649325zM91.938716197849 951.6129016649322A24.22580816974301 24.225807233090553 0 0 1 67.7451660949099 927.4193524973984V408.0644970343386A24.1935501029391 24.19354916753384 0 1 1 116.1322663007881 408.0644970343386V927.4193524973984A24.219356556382234 24.219355619979208 0 0 1 91.938716197849 951.6129016649325z" />
    <glyph glyph-name="container-end-2-small-1"
      unicode="&#x63;&#x6F;&#x6E;&#x74;&#x61;&#x69;&#x6E;&#x65;&#x72;&#x2D;&#x65;&#x6E;&#x64;&#x2D;&#x32;&#x2D;&#x73;&#x6D;&#x61;&#x6C;&#x6C;"
      horiz-adv-x="454.8419677419355" d="M262.9064702586187 -0.0000322580656A136.65807420812158 136.65806892445377 0 1 0 316.2677643656612 10.774161637876A136.27420321315498 136.2741979443289 0 0 0 262.9064702586187 -0.0000322580656zM454.8419677419355 296.7741708636829H0.0032258066804V999.9999999999998H454.8419677419355zM362.9064773507669 951.6129016649322A24.219356556382234 24.219355619979208 0 0 1 338.7129272478278 927.4193524973984V408.0644970343386A24.1935501029391 24.19354916753384 0 1 1 387.100027453706 408.0644970343386V927.4193524973984A24.22580816974301 24.225807233090553 0 0 1 362.9064773507669 951.6129016649325zM227.4225967743079 951.6129016649322A24.22580816974301 24.225807233090553 0 0 1 203.2290466713689 927.4193524973984V408.0644970343386A24.1935501029391 24.19354916753384 0 1 1 251.6161468772471 408.0644970343386V927.4193524973984A24.22580816974301 24.225807233090553 0 0 1 227.4225967743079 951.6129016649325zM91.938716197849 951.6129016649322A24.22580816974301 24.225807233090553 0 0 1 67.7451660949099 927.4193524973984V408.0644970343386A24.1935501029391 24.19354916753384 0 1 1 116.1322663007881 408.0644970343386V927.4193524973984A24.219356556382234 24.219355619979208 0 0 1 91.938716197849 951.6129016649325z" />
    <glyph glyph-name="container-end-2"
      unicode="&#xF102;"
      horiz-adv-x="912.9064838709677" d="M717.7451866522528 -0.0000322580656A136.66452095815004 136.66452053756515 0 1 0 771.1161562800816 10.7741616378762A136.28387578340937 136.28387536399595 0 0 0 717.7451866522528 -0.0000322580656zM912.9064838709676 296.7741708636829H0.0032258065656V999.9999999999998H912.9064838709676zM795.164544226619 951.6129016649322A24.222581501079844 24.222581426534884 0 0 1 770.9709949846296 927.4193524973984V408.0644970343386A24.19354924198945 24.19354916753384 0 1 1 819.3580934686086 408.0644970343386V927.4193524973984A24.225807307645432 24.22580723309055 0 0 1 795.1645442266191 951.6129016649325zM659.680668471478 951.6129016649322A24.225807307645432 24.22580723309055 0 0 1 635.4871192294886 927.4193524973984V408.0644970343386A24.19354924198945 24.19354916753384 0 1 1 683.8742177134676 408.0644970343386V927.4193524973984A24.222581501079844 24.222581426534884 0 0 1 659.6806684714782 951.6129016649325zM524.1967927163371 951.6129016649322A24.225807307645432 24.22580723309055 0 0 1 500.0032434743476 927.4193524973984V408.0644970343386A24.19354924198945 24.19354916753384 0 1 1 548.3903419583266 408.0644970343386V927.4193524973984A24.219355694514245 24.219355619979208 0 0 1 524.1967927163372 951.6129016649325zM388.7129169611962 951.6129016649322A24.222581501079844 24.222581426534884 0 0 1 364.5193677192067 927.4193524973984V408.0644970343386A24.19354924198945 24.19354916753384 0 1 1 412.9064662031856 408.0644970343386V927.4193524973984A24.225807307645432 24.22580723309055 0 0 1 388.7129169611961 951.6129016649325zM253.2290412060552 951.6129016649322A24.232258920776637 24.23225884620189 0 0 1 229.0354919640657 927.4193524973984V408.0644970343386A24.203226661686248 24.20322658720086 0 0 1 277.4419452874382 408.0644970343386V927.4193524973984A24.225807307645432 24.22580723309055 0 0 1 253.2290412060553 951.6129016649322zM117.7451654509142 951.6129016649322A24.225807307645432 24.22580723309055 0 0 1 93.5516162089247 927.4193524973984V408.0644970343386A24.19354924198945 24.19354916753384 0 1 1 141.9387146929037 408.0644970343386V927.4193524973984A24.219355694514245 24.219355619979208 0 0 1 117.7451654509142 951.6129016649325z" />
    <glyph glyph-name="container-end-2-1"
      unicode="&#x63;&#x6F;&#x6E;&#x74;&#x61;&#x69;&#x6E;&#x65;&#x72;&#x2D;&#x65;&#x6E;&#x64;&#x2D;&#x32;"
      horiz-adv-x="912.9064838709677" d="M717.7451866522528 -0.0000322580656A136.66452095815004 136.66452053756515 0 1 0 771.1161562800816 10.7741616378762A136.28387578340937 136.28387536399595 0 0 0 717.7451866522528 -0.0000322580656zM912.9064838709676 296.7741708636829H0.0032258065656V999.9999999999998H912.9064838709676zM795.164544226619 951.6129016649322A24.222581501079844 24.222581426534884 0 0 1 770.9709949846296 927.4193524973984V408.0644970343386A24.19354924198945 24.19354916753384 0 1 1 819.3580934686086 408.0644970343386V927.4193524973984A24.225807307645432 24.22580723309055 0 0 1 795.1645442266191 951.6129016649325zM659.680668471478 951.6129016649322A24.225807307645432 24.22580723309055 0 0 1 635.4871192294886 927.4193524973984V408.0644970343386A24.19354924198945 24.19354916753384 0 1 1 683.8742177134676 408.0644970343386V927.4193524973984A24.222581501079844 24.222581426534884 0 0 1 659.6806684714782 951.6129016649325zM524.1967927163371 951.6129016649322A24.225807307645432 24.22580723309055 0 0 1 500.0032434743476 927.4193524973984V408.0644970343386A24.19354924198945 24.19354916753384 0 1 1 548.3903419583266 408.0644970343386V927.4193524973984A24.219355694514245 24.219355619979208 0 0 1 524.1967927163372 951.6129016649325zM388.7129169611962 951.6129016649322A24.222581501079844 24.222581426534884 0 0 1 364.5193677192067 927.4193524973984V408.0644970343386A24.19354924198945 24.19354916753384 0 1 1 412.9064662031856 408.0644970343386V927.4193524973984A24.225807307645432 24.22580723309055 0 0 1 388.7129169611961 951.6129016649325zM253.2290412060552 951.6129016649322A24.232258920776637 24.23225884620189 0 0 1 229.0354919640657 927.4193524973984V408.0644970343386A24.203226661686248 24.20322658720086 0 0 1 277.4419452874382 408.0644970343386V927.4193524973984A24.225807307645432 24.22580723309055 0 0 1 253.2290412060553 951.6129016649322zM117.7451654509142 951.6129016649322A24.225807307645432 24.22580723309055 0 0 1 93.5516162089247 927.4193524973984V408.0644970343386A24.19354924198945 24.19354916753384 0 1 1 141.9387146929037 408.0644970343386V927.4193524973984A24.219355694514245 24.219355619979208 0 0 1 117.7451654509142 951.6129016649325z" />
    <glyph glyph-name="container-end-4"
      unicode="&#xF103;"
      horiz-adv-x="912.9064838709677" d="M743.5516391770416 0.0032258065556A136.65161773188763 136.65161731134248 0 1 0 796.9161571917391 10.7774197024975A136.2741983637126 136.27419794432896 0 0 0 743.5516391770416 0.0032258065556zM456.4548548387667 0.0032258065556A136.65161773188763 136.65161731134248 0 1 0 509.8193728534642 10.7774197024975A136.28387578340937 136.28387536399595 0 0 0 456.4548548387667 0.0032258065556zM912.9064838709676 296.7774289283041H0.0032258065656V1000.003248645266H912.9064838709676zM795.164544226619 951.6161500521338A24.222581501079844 24.222581426534884 0 0 1 770.9709949846296 927.4226008845998V408.0677550989598A24.19354924198945 24.19354916753384 0 1 1 819.3580934686086 408.0677550989598V927.4226008845998A24.225807307645432 24.22580723309055 0 0 1 795.1645442266191 951.6161500521338zM659.680668471478 951.6161500521338A24.225807307645432 24.22580723309055 0 0 1 635.4871192294886 927.4226008845998V408.0677550989598A24.19354924198945 24.19354916753384 0 1 1 683.8742177134676 408.0677550989598V927.4226008845998A24.222581501079844 24.222581426534884 0 0 1 659.6806684714782 951.6161500521338zM524.1967927163371 951.6161500521338A24.225807307645432 24.22580723309055 0 0 1 500.0032434743476 927.4226008845998V408.0677550989598A24.19354924198945 24.19354916753384 0 1 1 548.3903419583266 408.0677550989598V927.4226008845998A24.219355694514245 24.219355619979208 0 0 1 524.1967927163372 951.6161500521338zM388.7129169611962 951.6161500521338A24.222581501079844 24.222581426534884 0 0 1 364.5193677192067 927.4226008845998V408.0677550989598A24.19354924198945 24.19354916753384 0 1 1 412.9064662031856 408.0677550989598V927.4226008845998A24.225807307645432 24.22580723309055 0 0 1 388.7129169611961 951.6161500521338zM253.2290412060552 951.6161500521338A24.232258920776637 24.23225884620189 0 0 1 229.0354919640657 927.4226008845998V408.0677550989598A24.203226661686248 24.20322658720086 0 0 1 277.4419452874382 408.0677550989598V927.4226008845998A24.225807307645432 24.22580723309055 0 0 1 253.2290412060551 951.6161500521338zM117.7451654509142 951.6161500521338A24.225807307645432 24.22580723309055 0 0 1 93.5516162089247 927.4226008845998V408.0677550989598A24.19354924198945 24.19354916753384 0 1 1 141.9387146929037 408.0677550989598V927.4226008845998A24.219355694514245 24.219355619979208 0 0 1 117.7451654509142 951.6161500521338z" />
    <glyph glyph-name="container-end-4-1"
      unicode="&#x63;&#x6F;&#x6E;&#x74;&#x61;&#x69;&#x6E;&#x65;&#x72;&#x2D;&#x65;&#x6E;&#x64;&#x2D;&#x34;"
      horiz-adv-x="912.9064838709677" d="M743.5516391770416 0.0032258065556A136.65161773188763 136.65161731134248 0 1 0 796.9161571917391 10.7774197024975A136.2741983637126 136.27419794432896 0 0 0 743.5516391770416 0.0032258065556zM456.4548548387667 0.0032258065556A136.65161773188763 136.65161731134248 0 1 0 509.8193728534642 10.7774197024975A136.28387578340937 136.28387536399595 0 0 0 456.4548548387667 0.0032258065556zM912.9064838709676 296.7774289283041H0.0032258065656V1000.003248645266H912.9064838709676zM795.164544226619 951.6161500521338A24.222581501079844 24.222581426534884 0 0 1 770.9709949846296 927.4226008845998V408.0677550989598A24.19354924198945 24.19354916753384 0 1 1 819.3580934686086 408.0677550989598V927.4226008845998A24.225807307645432 24.22580723309055 0 0 1 795.1645442266191 951.6161500521338zM659.680668471478 951.6161500521338A24.225807307645432 24.22580723309055 0 0 1 635.4871192294886 927.4226008845998V408.0677550989598A24.19354924198945 24.19354916753384 0 1 1 683.8742177134676 408.0677550989598V927.4226008845998A24.222581501079844 24.222581426534884 0 0 1 659.6806684714782 951.6161500521338zM524.1967927163371 951.6161500521338A24.225807307645432 24.22580723309055 0 0 1 500.0032434743476 927.4226008845998V408.0677550989598A24.19354924198945 24.19354916753384 0 1 1 548.3903419583266 408.0677550989598V927.4226008845998A24.219355694514245 24.219355619979208 0 0 1 524.1967927163372 951.6161500521338zM388.7129169611962 951.6161500521338A24.222581501079844 24.222581426534884 0 0 1 364.5193677192067 927.4226008845998V408.0677550989598A24.19354924198945 24.19354916753384 0 1 1 412.9064662031856 408.0677550989598V927.4226008845998A24.225807307645432 24.22580723309055 0 0 1 388.7129169611961 951.6161500521338zM253.2290412060552 951.6161500521338A24.232258920776637 24.23225884620189 0 0 1 229.0354919640657 927.4226008845998V408.0677550989598A24.203226661686248 24.20322658720086 0 0 1 277.4419452874382 408.0677550989598V927.4226008845998A24.225807307645432 24.22580723309055 0 0 1 253.2290412060551 951.6161500521338zM117.7451654509142 951.6161500521338A24.225807307645432 24.22580723309055 0 0 1 93.5516162089247 927.4226008845998V408.0677550989598A24.19354924198945 24.19354916753384 0 1 1 141.9387146929037 408.0677550989598V927.4226008845998A24.219355694514245 24.219355619979208 0 0 1 117.7451654509142 951.6161500521338z" />
    <glyph glyph-name="container-end-6"
      unicode="&#xF104;"
      horiz-adv-x="912.9035067628814" d="M743.5492143573738 0.0032257960457A136.65117209299325 136.65117209299325 0 1 0 796.9135583433609 10.7773845890817A136.2737539556324 136.2737539556324 0 0 0 743.5492143573738 0.0032257960457zM456.4533662794643 0.0032257960457A136.65117209299325 136.65117209299325 0 1 0 509.8177102654515 10.7773845890817A136.28343134376988 136.28343134376988 0 0 0 456.4533662794643 0.0032257960457zM169.3575182015549 0.0032257960457A136.65117209299325 136.65117209299325 0 1 0 222.721862187542 10.7773845890817A136.28343134376988 136.28343134376988 0 0 0 169.3575182015549 0.0032257960457zM912.9035067628822 296.7764620114129H0.0032257960465V1000H912.9035067628822V296.7764620114129zM795.1619510904811 941.9356711752542A24.219276712010608 24.219276712010608 0 0 1 770.968480746837 917.7422008316101V398.3890374547178A24.193470343644055 24.193470343644055 0 1 1 819.3554214341252 398.3890374547178V917.7422008316101A24.225728304102244 24.225728304102244 0 0 1 795.1619510904811 941.9356711752542zM659.6785171660744 941.9356711752542A24.225728304102244 24.225728304102244 0 0 1 635.4850468224304 917.7422008316101V398.3890374547178A24.193470343644055 24.193470343644055 0 1 1 683.8719875097185 398.3890374547178V917.7422008316101A24.219276712010608 24.219276712010608 0 0 1 659.6785171660744 941.9356711752542zM524.1950832416677 941.9356711752542A24.225728304102244 24.225728304102244 0 0 1 500.0016128980236 917.7422008316101V398.3890374547178A24.193470343644055 24.193470343644055 0 1 1 548.3885535853117 398.3890374547178V917.7422008316101A24.219276712010608 24.219276712010608 0 0 1 524.1950832416677 941.9356711752542zM388.711649317261 941.9356711752542A24.219276712010608 24.219276712010608 0 0 1 364.5181789736169 917.7422008316101V398.3890374547178A24.193470343644055 24.193470343644055 0 1 1 412.9051196609051 398.3890374547178V917.7422008316101A24.225728304102244 24.225728304102244 0 0 1 388.711649317261 941.9356711752542zM253.2282153928543 941.9356711752542A24.232179896193884 24.232179896193884 0 0 1 229.0347450492102 917.7422008316101V398.3890374547178A24.193470343644055 24.193470343644055 0 1 1 277.4410405127732 398.3890374547178V917.7422008316101A24.225728304102244 24.225728304102244 0 0 1 253.2282153928543 941.9356711752542zM117.7447814684476 941.9356711752542A24.225728304102244 24.225728304102244 0 0 1 93.5513111248035 917.7422008316101V398.3890374547178A24.193470343644055 24.193470343644055 0 1 1 141.9382518120916 398.3890374547178V917.7422008316101A24.219276712010608 24.219276712010608 0 0 1 117.7447814684476 941.9356711752542z" />
    <glyph glyph-name="container-end-6-1"
      unicode="&#x63;&#x6F;&#x6E;&#x74;&#x61;&#x69;&#x6E;&#x65;&#x72;&#x2D;&#x65;&#x6E;&#x64;&#x2D;&#x36;"
      horiz-adv-x="912.9035067628814" d="M743.5492143573738 0.0032257960457A136.65117209299325 136.65117209299325 0 1 0 796.9135583433609 10.7773845890817A136.2737539556324 136.2737539556324 0 0 0 743.5492143573738 0.0032257960457zM456.4533662794643 0.0032257960457A136.65117209299325 136.65117209299325 0 1 0 509.8177102654515 10.7773845890817A136.28343134376988 136.28343134376988 0 0 0 456.4533662794643 0.0032257960457zM169.3575182015549 0.0032257960457A136.65117209299325 136.65117209299325 0 1 0 222.721862187542 10.7773845890817A136.28343134376988 136.28343134376988 0 0 0 169.3575182015549 0.0032257960457zM912.9035067628822 296.7764620114129H0.0032257960465V1000H912.9035067628822V296.7764620114129zM795.1619510904811 941.9356711752542A24.219276712010608 24.219276712010608 0 0 1 770.968480746837 917.7422008316101V398.3890374547178A24.193470343644055 24.193470343644055 0 1 1 819.3554214341252 398.3890374547178V917.7422008316101A24.225728304102244 24.225728304102244 0 0 1 795.1619510904811 941.9356711752542zM659.6785171660744 941.9356711752542A24.225728304102244 24.225728304102244 0 0 1 635.4850468224304 917.7422008316101V398.3890374547178A24.193470343644055 24.193470343644055 0 1 1 683.8719875097185 398.3890374547178V917.7422008316101A24.219276712010608 24.219276712010608 0 0 1 659.6785171660744 941.9356711752542zM524.1950832416677 941.9356711752542A24.225728304102244 24.225728304102244 0 0 1 500.0016128980236 917.7422008316101V398.3890374547178A24.193470343644055 24.193470343644055 0 1 1 548.3885535853117 398.3890374547178V917.7422008316101A24.219276712010608 24.219276712010608 0 0 1 524.1950832416677 941.9356711752542zM388.711649317261 941.9356711752542A24.219276712010608 24.219276712010608 0 0 1 364.5181789736169 917.7422008316101V398.3890374547178A24.193470343644055 24.193470343644055 0 1 1 412.9051196609051 398.3890374547178V917.7422008316101A24.225728304102244 24.225728304102244 0 0 1 388.711649317261 941.9356711752542zM253.2282153928543 941.9356711752542A24.232179896193884 24.232179896193884 0 0 1 229.0347450492102 917.7422008316101V398.3890374547178A24.193470343644055 24.193470343644055 0 1 1 277.4410405127732 398.3890374547178V917.7422008316101A24.225728304102244 24.225728304102244 0 0 1 253.2282153928543 941.9356711752542zM117.7447814684476 941.9356711752542A24.225728304102244 24.225728304102244 0 0 1 93.5513111248035 917.7422008316101V398.3890374547178A24.193470343644055 24.193470343644055 0 1 1 141.9382518120916 398.3890374547178V917.7422008316101A24.219276712010608 24.219276712010608 0 0 1 117.7447814684476 941.9356711752542z" />
    <glyph glyph-name="container-mid-2"
      unicode="&#xF105;"
      horiz-adv-x="609.6806774193549" d="M304.8419516129886 0.0032258065556A136.65807174667617 136.6580689244538 0 1 0 358.203244758903 10.7774197024975A136.27420075862372 136.27419794432896 0 0 0 304.8419516129886 0.0032258065556zM609.6806774193549 296.7774289283041H0.0032258066223V1000.0032298065559H609.6806774193549zM508.0677688172327 932.2612913632674A24.22903354001711 24.22903303964623 0 0 1 483.8742191500608 908.0677421957336V388.7129157649328A24.193549667171926 24.193549167533845 0 1 1 532.2613184844046 388.7129157649328V908.0677421957336A24.22580773339482 24.225807233090553 0 0 1 508.0677688172327 932.2612913632674zM372.58389068107 932.2612913632674A24.22580773339482 24.225807233090553 0 0 1 348.390341013898 908.0677421957336V388.7129157649328A24.193549667171926 24.193549167533845 0 1 1 396.7774403482419 388.7129157649328V908.0677421957336A24.22903354001711 24.22903303964623 0 0 1 372.58389068107 932.2612913632674zM237.1000125449072 932.2612913632674A24.22903354001711 24.22903303964623 0 0 1 212.9064628777352 908.0677421957336V388.7129157649328A24.203227087038794 24.20322658720086 0 0 1 261.3129170518128 388.7129157649328V908.0677421957336A24.23548515326169 24.235484652757567 0 0 1 237.1000125449072 932.2612913632674zM101.6161344087444 932.2612913632674A24.22903354001711 24.22903303964623 0 0 1 77.4225847415724 908.0677421957336V388.7129157649328A24.193549667171926 24.193549167533845 0 1 1 125.8096840759163 388.7129157649328V908.0677421957336A24.22580773339482 24.225807233090553 0 0 1 101.6161344087444 932.2612913632674z" />
    <glyph glyph-name="container-mid-2-1"
      unicode="&#x63;&#x6F;&#x6E;&#x74;&#x61;&#x69;&#x6E;&#x65;&#x72;&#x2D;&#x6D;&#x69;&#x64;&#x2D;&#x32;"
      horiz-adv-x="609.6806774193549" d="M304.8419516129886 0.0032258065556A136.65807174667617 136.6580689244538 0 1 0 358.203244758903 10.7774197024975A136.27420075862372 136.27419794432896 0 0 0 304.8419516129886 0.0032258065556zM609.6806774193549 296.7774289283041H0.0032258066223V1000.0032298065559H609.6806774193549zM508.0677688172327 932.2612913632674A24.22903354001711 24.22903303964623 0 0 1 483.8742191500608 908.0677421957336V388.7129157649328A24.193549667171926 24.193549167533845 0 1 1 532.2613184844046 388.7129157649328V908.0677421957336A24.22580773339482 24.225807233090553 0 0 1 508.0677688172327 932.2612913632674zM372.58389068107 932.2612913632674A24.22580773339482 24.225807233090553 0 0 1 348.390341013898 908.0677421957336V388.7129157649328A24.193549667171926 24.193549167533845 0 1 1 396.7774403482419 388.7129157649328V908.0677421957336A24.22903354001711 24.22903303964623 0 0 1 372.58389068107 932.2612913632674zM237.1000125449072 932.2612913632674A24.22903354001711 24.22903303964623 0 0 1 212.9064628777352 908.0677421957336V388.7129157649328A24.203227087038794 24.20322658720086 0 0 1 261.3129170518128 388.7129157649328V908.0677421957336A24.23548515326169 24.235484652757567 0 0 1 237.1000125449072 932.2612913632674zM101.6161344087444 932.2612913632674A24.22903354001711 24.22903303964623 0 0 1 77.4225847415724 908.0677421957336V388.7129157649328A24.193549667171926 24.193549167533845 0 1 1 125.8096840759163 388.7129157649328V908.0677421957336A24.22580773339482 24.225807233090553 0 0 1 101.6161344087444 932.2612913632674z" />
    <glyph glyph-name="container-mid-4"
      unicode="&#xF106;"
      horiz-adv-x="609.6709677419354" d="M449.9967741935484 3.2258064516128A136.658064516129 136.658064516129 0 1 0 503.3612903225806 13.9999999999999A136.26451612903222 136.26451612903222 0 0 0 449.9967741935484 3.2258064516128zM162.9 3.2258064516128A136.658064516129 136.658064516129 0 1 0 216.2645161290323 13.9999999999999A136.26451612903222 136.26451612903222 0 0 0 162.9 3.2258064516128zM609.674193548387 296.7741935483871H-0.0032258064516V999.9999999999998H609.674193548387zM508.0612903225806 935.4838709677418A24.22258064516129 24.22258064516129 0 0 1 483.8677419354838 911.290322580645V391.9354838709677A24.193548387096772 24.193548387096772 0 1 1 532.2548387096774 391.9354838709677V911.290322580645A24.22258064516129 24.22258064516129 0 0 1 508.0612903225806 935.4838709677418zM372.5774193548387 935.4838709677418A24.21612903225806 24.21612903225806 0 0 1 348.3838709677419 911.290322580645V391.9354838709677A24.193548387096772 24.193548387096772 0 1 1 396.7709677419355 391.9354838709677V911.290322580645A24.225806451612897 24.225806451612897 0 0 1 372.5774193548387 935.4838709677418zM237.0935483870968 935.4838709677418A24.22258064516129 24.22258064516129 0 0 1 212.9 911.290322580645V391.9354838709677A24.193548387096772 24.193548387096772 0 1 1 261.2870967741935 391.9354838709677V911.290322580645A24.22258064516129 24.22258064516129 0 0 1 237.0935483870968 935.4838709677418zM101.6096774193548 935.4838709677418A24.22258064516129 24.22258064516129 0 0 1 77.416129032258 911.290322580645V391.9354838709677A24.193548387096772 24.193548387096772 0 1 1 125.8032258064516 391.9354838709677V911.290322580645A24.21612903225806 24.21612903225806 0 0 1 101.6096774193548 935.4838709677418z" />
    <glyph glyph-name="container-mid-4-1"
      unicode="&#x63;&#x6F;&#x6E;&#x74;&#x61;&#x69;&#x6E;&#x65;&#x72;&#x2D;&#x6D;&#x69;&#x64;&#x2D;&#x34;"
      horiz-adv-x="609.6709677419354" d="M449.9967741935484 3.2258064516128A136.658064516129 136.658064516129 0 1 0 503.3612903225806 13.9999999999999A136.26451612903222 136.26451612903222 0 0 0 449.9967741935484 3.2258064516128zM162.9 3.2258064516128A136.658064516129 136.658064516129 0 1 0 216.2645161290323 13.9999999999999A136.26451612903222 136.26451612903222 0 0 0 162.9 3.2258064516128zM609.674193548387 296.7741935483871H-0.0032258064516V999.9999999999998H609.674193548387zM508.0612903225806 935.4838709677418A24.22258064516129 24.22258064516129 0 0 1 483.8677419354838 911.290322580645V391.9354838709677A24.193548387096772 24.193548387096772 0 1 1 532.2548387096774 391.9354838709677V911.290322580645A24.22258064516129 24.22258064516129 0 0 1 508.0612903225806 935.4838709677418zM372.5774193548387 935.4838709677418A24.21612903225806 24.21612903225806 0 0 1 348.383870967742 911.290322580645V391.9354838709677A24.193548387096772 24.193548387096772 0 1 1 396.7709677419355 391.9354838709677V911.290322580645A24.225806451612897 24.225806451612897 0 0 1 372.5774193548387 935.4838709677418zM237.0935483870968 935.4838709677418A24.22258064516129 24.22258064516129 0 0 1 212.9 911.290322580645V391.9354838709677A24.193548387096772 24.193548387096772 0 1 1 261.2870967741935 391.9354838709677V911.290322580645A24.22258064516129 24.22258064516129 0 0 1 237.0935483870968 935.4838709677418zM101.6096774193548 935.4838709677418A24.22258064516129 24.22258064516129 0 0 1 77.416129032258 911.290322580645V391.9354838709677A24.193548387096772 24.193548387096772 0 1 1 125.8032258064516 391.9354838709677V911.290322580645A24.21612903225806 24.21612903225806 0 0 1 101.6096774193548 935.4838709677418z" />
    <glyph glyph-name="container-mid-big"
      unicode="&#xF107;"
      horiz-adv-x="912.9032258064516" d="M912.9032258064516 296.7741708636829H0V999.9999999999998H912.9032258064516zM795.1612903225806 932.2580720083248A24.22258064516129 24.222581426534887 0 0 1 770.9677419354838 908.064522840791V388.7096577003114A24.193548387096772 24.193549167533845 0 1 1 819.3548387096773 388.7096577003114V908.064522840791A24.225806451612897 24.225807233090553 0 0 1 795.1612903225806 932.2580720083248zM659.6774193548387 932.2580720083248A24.225806451612897 24.225807233090553 0 0 1 635.483870967742 908.064522840791V388.7096577003114A24.193548387096772 24.193549167533845 0 1 1 683.8709677419355 388.7096577003114V908.064522840791A24.22258064516129 24.222581426534887 0 0 1 659.6774193548387 932.2580720083248zM524.1935483870967 932.2580720083248A24.225806451612897 24.225807233090553 0 0 1 499.9999999999999 908.064522840791V388.7096577003114A24.193548387096772 24.193549167533845 0 1 1 548.3870967741935 388.7096577003114V908.064522840791A24.22258064516129 24.222581426534887 0 0 1 524.1935483870967 932.2580720083248zM388.7096774193548 932.2580720083248A24.22258064516129 24.222581426534887 0 0 1 364.5161290322581 908.064522840791V388.7096577003114A24.193548387096772 24.193549167533845 0 1 1 412.9032258064516 388.7096577003114V908.064522840791A24.225806451612897 24.225807233090553 0 0 1 388.7096774193548 932.2580720083248zM253.2258064516129 932.2580720083248A24.225806451612897 24.225807233090553 0 0 1 229.0322580645162 908.064522840791V388.7096577003114A24.193548387096772 24.193549167533845 0 0 1 277.4193548387097 388.7096577003114V908.064522840791A24.225806451612897 24.225807233090553 0 0 1 253.2258064516129 932.2580720083248zM117.741935483871 932.2580720083248A24.225806451612897 24.225807233090553 0 0 1 93.5483870967742 908.064522840791V388.7096577003114A24.193548387096772 24.193549167533845 0 1 1 141.9354838709678 388.7096577003114V908.064522840791A24.22258064516129 24.222581426534887 0 0 1 117.741935483871 932.2580720083248z" />
    <glyph glyph-name="container-mid-big-1"
      unicode="&#x63;&#x6F;&#x6E;&#x74;&#x61;&#x69;&#x6E;&#x65;&#x72;&#x2D;&#x6D;&#x69;&#x64;&#x2D;&#x62;&#x69;&#x67;"
      horiz-adv-x="912.9032258064516" d="M912.9032258064516 296.7741708636829H0V999.9999999999998H912.9032258064516zM795.1612903225806 932.2580720083248A24.22258064516129 24.222581426534887 0 0 1 770.9677419354838 908.064522840791V388.7096577003114A24.193548387096772 24.193549167533845 0 1 1 819.3548387096773 388.7096577003114V908.064522840791A24.225806451612897 24.225807233090553 0 0 1 795.1612903225806 932.2580720083248zM659.6774193548387 932.2580720083248A24.225806451612897 24.225807233090553 0 0 1 635.483870967742 908.064522840791V388.7096577003114A24.193548387096772 24.193549167533845 0 1 1 683.8709677419355 388.7096577003114V908.064522840791A24.22258064516129 24.222581426534887 0 0 1 659.6774193548387 932.2580720083248zM524.1935483870967 932.2580720083248A24.225806451612897 24.225807233090553 0 0 1 499.9999999999999 908.064522840791V388.7096577003114A24.193548387096772 24.193549167533845 0 1 1 548.3870967741935 388.7096577003114V908.064522840791A24.22258064516129 24.222581426534887 0 0 1 524.1935483870967 932.2580720083248zM388.7096774193548 932.2580720083248A24.22258064516129 24.222581426534887 0 0 1 364.5161290322581 908.064522840791V388.7096577003114A24.193548387096772 24.193549167533845 0 1 1 412.9032258064516 388.7096577003114V908.064522840791A24.225806451612897 24.225807233090553 0 0 1 388.7096774193548 932.2580720083248zM253.2258064516129 932.2580720083248A24.225806451612897 24.225807233090553 0 0 1 229.0322580645162 908.064522840791V388.7096577003114A24.193548387096772 24.193549167533845 0 0 1 277.4193548387097 388.7096577003114V908.064522840791A24.225806451612897 24.225807233090553 0 0 1 253.2258064516129 932.2580720083248zM117.741935483871 932.2580720083248A24.225806451612897 24.225807233090553 0 0 1 93.5483870967742 908.064522840791V388.7096577003114A24.193548387096772 24.193549167533845 0 1 1 141.9354838709678 388.7096577003114V908.064522840791A24.22258064516129 24.222581426534887 0 0 1 117.741935483871 932.2580720083248z" />
    <glyph glyph-name="container-mid-small"
      unicode="&#xF108;"
      horiz-adv-x="225.8064516129032" d="M225.8064516129032 296.7741708636829H0V999.9999999999998H225.8064516129032zM114.5161290322581 932.2580687825182A24.21290322580645 24.212904006867866 0 0 1 90.3225806451613 908.0645196149844V388.7096577003114A24.193548387096772 24.193549167533845 0 0 1 138.7096774193548 388.7096577003114V908.0645196149844A24.219354838709673 24.219355619979208 0 0 1 114.5161290322581 932.2580687825182z" />
    <glyph glyph-name="container-mid-small-1"
      unicode="&#x63;&#x6F;&#x6E;&#x74;&#x61;&#x69;&#x6E;&#x65;&#x72;&#x2D;&#x6D;&#x69;&#x64;&#x2D;&#x73;&#x6D;&#x61;&#x6C;&#x6C;"
      horiz-adv-x="225.8064516129032" d="M225.8064516129032 296.7741708636829H0V999.9999999999998H225.8064516129032zM114.5161290322581 932.2580687825182A24.21290322580645 24.212904006867866 0 0 1 90.3225806451613 908.0645196149844V388.7096577003114A24.193548387096772 24.193549167533845 0 0 1 138.7096774193548 388.7096577003114V908.0645196149844A24.219354838709673 24.219355619979208 0 0 1 114.5161290322581 932.2580687825182z" />
    <glyph glyph-name="container-mid"
      unicode="&#xF109;"
      horiz-adv-x="454.83870967741933" d="M454.8387096774193 296.7741708636829H0V999.9999999999998H454.8387096774193zM362.9032258064516 932.2580720083248A24.219354838709673 24.219355619979208 0 0 1 338.7096774193548 908.064522840791V388.7096577003114A24.193548387096772 24.193549167533845 0 1 1 387.0967741935484 388.7096577003114V908.064522840791A24.225806451612897 24.225807233090553 0 0 1 362.9032258064516 932.2580720083248zM227.4193548387097 932.2580720083248A24.225806451612897 24.225807233090553 0 0 1 203.2258064516129 908.064522840791V388.7096577003114A24.193548387096772 24.193549167533845 0 0 1 251.6129032258065 388.7096577003114V908.064522840791A24.225806451612897 24.225807233090553 0 0 1 227.4193548387097 932.2580720083248zM91.9354838709677 932.2580720083248A24.225806451612897 24.225807233090553 0 0 1 67.741935483871 908.064522840791V388.7096577003114A24.193548387096772 24.193549167533845 0 1 1 116.1290322580645 388.7096577003114V908.064522840791A24.22258064516129 24.222581426534887 0 0 1 91.9354838709677 932.2580720083248z" />
    <glyph glyph-name="container-mid-1"
      unicode="&#x63;&#x6F;&#x6E;&#x74;&#x61;&#x69;&#x6E;&#x65;&#x72;&#x2D;&#x6D;&#x69;&#x64;"
      horiz-adv-x="454.83870967741933" d="M454.8387096774193 296.7741708636829H0V999.9999999999998H454.8387096774193zM362.9032258064516 932.2580720083248A24.219354838709673 24.219355619979208 0 0 1 338.7096774193548 908.064522840791V388.7096577003114A24.193548387096772 24.193549167533845 0 1 1 387.0967741935484 388.7096577003114V908.064522840791A24.225806451612897 24.225807233090553 0 0 1 362.9032258064516 932.2580720083248zM227.4193548387097 932.2580720083248A24.225806451612897 24.225807233090553 0 0 1 203.2258064516129 908.064522840791V388.7096577003114A24.193548387096772 24.193549167533845 0 0 1 251.6129032258065 388.7096577003114V908.064522840791A24.225806451612897 24.225807233090553 0 0 1 227.4193548387097 932.2580720083248zM91.9354838709677 932.2580720083248A24.225806451612897 24.225807233090553 0 0 1 67.741935483871 908.064522840791V388.7096577003114A24.193548387096772 24.193549167533845 0 1 1 116.1290322580645 388.7096577003114V908.064522840791A24.22258064516129 24.222581426534887 0 0 1 91.9354838709677 932.2580720083248z" />
    <glyph glyph-name="container-start-2"
      unicode="&#xF10A;"
      horiz-adv-x="780.645868884294" d="M553.2272476540405 0.0032257960457A136.6576236850849 136.6576236850849 0 1 0 606.5883658439819 10.7773845890817A136.2737539556324 136.2737539556324 0 0 0 553.2272476540405 0.0032257960457zM780.6458688842947 296.7764620114129H0.0032257960465V316.131238286328H325.8086264237865V1000H780.6458688842947V296.7764620114129zM691.9364776242664 935.4840790836158A24.219276712010608 24.219276712010608 0 0 1 667.7430072806225 911.2906087399718V391.9374453630794A24.193470343644055 24.193470343644055 0 1 1 716.1299479679105 391.9374453630794V911.2906087399718A24.225728304102244 24.225728304102244 0 0 1 691.9364776242664 935.4840790836158zM556.4530436998598 935.4840790836158A24.225728304102244 24.225728304102244 0 0 1 532.2595733562157 911.2906087399718V391.9374453630794A24.193470343644055 24.193470343644055 0 1 1 580.6465140435038 391.9374453630794V911.2906087399718A24.225728304102244 24.225728304102244 0 0 1 556.4530436998598 935.4840790836158zM420.969609775453 935.4840790836158A24.225728304102244 24.225728304102244 0 0 1 396.776139431809 911.2906087399718V391.9374453630794A24.193470343644055 24.193470343644055 0 1 1 445.1630801190971 391.9374453630794V911.2906087399718A24.222502508056433 24.222502508056433 0 0 1 420.969609775453 935.4840790836158z" />
    <glyph glyph-name="container-start-2-1"
      unicode="&#x63;&#x6F;&#x6E;&#x74;&#x61;&#x69;&#x6E;&#x65;&#x72;&#x2D;&#x73;&#x74;&#x61;&#x72;&#x74;&#x2D;&#x32;"
      horiz-adv-x="780.645868884294" d="M553.2272476540405 0.0032257960457A136.6576236850849 136.6576236850849 0 1 0 606.5883658439819 10.7773845890817A136.2737539556324 136.2737539556324 0 0 0 553.2272476540405 0.0032257960457zM780.6458688842947 296.7764620114129H0.0032257960465V316.1312382863281H325.8086264237865V1000H780.6458688842947V296.7764620114129zM691.9364776242664 935.4840790836158A24.219276712010608 24.219276712010608 0 0 1 667.7430072806225 911.2906087399718V391.9374453630794A24.193470343644055 24.193470343644055 0 1 1 716.1299479679105 391.9374453630794V911.2906087399718A24.225728304102244 24.225728304102244 0 0 1 691.9364776242664 935.4840790836158zM556.4530436998598 935.4840790836158A24.225728304102244 24.225728304102244 0 0 1 532.2595733562157 911.2906087399718V391.9374453630794A24.193470343644055 24.193470343644055 0 1 1 580.6465140435038 391.9374453630794V911.2906087399718A24.225728304102244 24.225728304102244 0 0 1 556.4530436998598 935.4840790836158zM420.969609775453 935.4840790836158A24.225728304102244 24.225728304102244 0 0 1 396.776139431809 911.2906087399718V391.9374453630794A24.193470343644055 24.193470343644055 0 1 1 445.1630801190971 391.9374453630794V911.2906087399718A24.222502508056433 24.222502508056433 0 0 1 420.969609775453 935.4840790836158z" />
    <glyph glyph-name="container-start-big"
      unicode="&#xF10B;"
      horiz-adv-x="803.229064516129" d="M803.2290645161291 0.0032258065556H780.6484184479892V296.7774289283041H409.6806616142623V277.4225895942771H393.5516287084481V296.7774289283041H0.0032258065812V1000.003248645266H803.2290645161291zM672.583897979034 932.2613107181068A24.229033231114116 24.22903303964622 0 0 1 648.3903486203127 908.067761550573V388.7129157649328A24.19354935872132 24.193549167533845 0 1 1 696.7774473377553 388.7129157649328V908.0677615505728A24.222581617951786 24.22258142653488 0 0 1 672.583897979034 932.2613107181066zM537.1000215701946 932.2613107181068A24.229033231114116 24.22903303964622 0 0 1 512.9064722114732 908.067761550573V388.7129157649328A24.19354935872132 24.193549167533845 0 1 1 561.2935709289159 388.7129157649328V908.0677615505728A24.225807424532945 24.225807233090553 0 0 1 537.1000215701946 932.2613107181066zM401.6000161284493 932.2613107181068A24.222581617951786 24.22258142653488 0 0 1 377.406466769728 908.067761550573V388.7129157649328A24.19354935872132 24.193549167533845 0 1 1 425.7935654871706 388.7129157649328V908.0677615505728A24.229033231114116 24.22903303964622 0 0 1 401.6161451613551 932.2613107181066zM266.1161397196099 932.2613107181068A24.229033231114116 24.22903303964622 0 0 1 241.9225903608886 908.067761550573V388.7129157649328A24.19354935872132 24.193549167533845 0 1 1 290.3096890783313 388.7129157649328V908.0677615505728A24.229033231114116 24.22903303964622 0 0 1 266.1322687525158 932.2613107181066zM130.6322633107705 932.2613107181068A24.229033231114116 24.22903303964622 0 0 1 106.4387139520492 908.067761550573V388.7129157649328A24.19354935872132 24.193549167533845 0 1 1 154.8258126694918 388.7129157649328V908.0677615505728A24.225807424532945 24.225807233090553 0 0 1 130.6483923436763 932.2613107181066z" />
    <glyph glyph-name="container-start-big-1"
      unicode="&#x63;&#x6F;&#x6E;&#x74;&#x61;&#x69;&#x6E;&#x65;&#x72;&#x2D;&#x73;&#x74;&#x61;&#x72;&#x74;&#x2D;&#x62;&#x69;&#x67;"
      horiz-adv-x="803.229064516129" d="M803.2290645161291 0.0032258065556H780.6484184479892V296.7774289283041H409.6806616142623V277.4225895942771H393.5516287084481V296.7774289283041H0.0032258065812V1000.003248645266H803.2290645161291zM672.583897979034 932.2613107181068A24.229033231114116 24.22903303964622 0 0 1 648.3903486203127 908.067761550573V388.7129157649328A24.19354935872132 24.193549167533845 0 1 1 696.7774473377553 388.7129157649328V908.0677615505728A24.222581617951786 24.22258142653488 0 0 1 672.583897979034 932.2613107181066zM537.1000215701946 932.2613107181068A24.229033231114116 24.22903303964622 0 0 1 512.9064722114732 908.067761550573V388.7129157649328A24.19354935872132 24.193549167533845 0 1 1 561.2935709289159 388.7129157649328V908.0677615505728A24.225807424532945 24.225807233090553 0 0 1 537.1000215701946 932.2613107181066zM401.6000161284493 932.2613107181068A24.222581617951786 24.22258142653488 0 0 1 377.406466769728 908.067761550573V388.7129157649328A24.19354935872132 24.193549167533845 0 1 1 425.7935654871706 388.7129157649328V908.0677615505728A24.229033231114116 24.22903303964622 0 0 1 401.6161451613551 932.2613107181066zM266.1161397196099 932.2613107181068A24.229033231114116 24.22903303964622 0 0 1 241.9225903608886 908.067761550573V388.7129157649328A24.19354935872132 24.193549167533845 0 1 1 290.3096890783313 388.7129157649328V908.0677615505728A24.229033231114116 24.22903303964622 0 0 1 266.1322687525158 932.2613107181066zM130.6322633107705 932.2613107181068A24.229033231114116 24.22903303964622 0 0 1 106.4387139520492 908.067761550573V388.7129157649328A24.19354935872132 24.193549167533845 0 1 1 154.8258126694918 388.7129157649328V908.0677615505728A24.225807424532945 24.225807233090553 0 0 1 130.6483923436763 932.2613107181066z" />
    <glyph glyph-name="container-start"
      unicode="&#xF10C;"
      horiz-adv-x="551.6096451612902" d="M551.6128709675532 296.7741708636829H0V316.1290101977101H325.8064325597829V999.9999999999998H551.6128709675532zM440.3225548951521 932.2580720083248A24.21935342236485 24.219355619979215 0 0 1 416.129007922891 908.064522840791V388.7096577003114A24.193546972261107 24.19354916753384 0 0 1 464.5161018674132 388.7096577003114V908.064522840791A24.212901809838915 24.212904006867873 0 0 1 440.322554895152 932.2580720083248z" />
    <glyph glyph-name="container-start-1"
      unicode="&#x63;&#x6F;&#x6E;&#x74;&#x61;&#x69;&#x6E;&#x65;&#x72;&#x2D;&#x73;&#x74;&#x61;&#x72;&#x74;"
      horiz-adv-x="551.6096451612902" d="M551.6128709675532 296.7741708636829H0V316.1290101977101H325.8064325597829V999.9999999999998H551.6128709675532zM440.3225548951521 932.2580720083248A24.21935342236485 24.219355619979215 0 0 1 416.129007922891 908.064522840791V388.7096577003114A24.193546972261107 24.19354916753384 0 0 1 464.5161018674132 388.7096577003114V908.064522840791A24.212901809838915 24.212904006867873 0 0 1 440.322554895152 932.2580720083248z" />
    <glyph glyph-name="flatbed-end-2-small"
      unicode="&#xF10D;"
      horiz-adv-x="454.83870967741933" d="M125.8064516129032 137.0967741935483A137.09677419354836 137.09677419354836 0 1 0 262.9032258064516 0A137.09677419354836 137.09677419354836 0 0 0 125.8064516129032 137.0967741935483zM0 296.7741935483871V370.9677419354838H454.8387096774193V296.7741935483871z" />
    <glyph glyph-name="flatbed-end-2-small-1"
      unicode="&#x66;&#x6C;&#x61;&#x74;&#x62;&#x65;&#x64;&#x2D;&#x65;&#x6E;&#x64;&#x2D;&#x32;&#x2D;&#x73;&#x6D;&#x61;&#x6C;&#x6C;"
      horiz-adv-x="454.83870967741933" d="M125.8064516129032 137.0967741935483A137.09677419354836 137.09677419354836 0 1 0 262.9032258064516 0A137.09677419354836 137.09677419354836 0 0 0 125.8064516129032 137.0967741935483zM0 296.7741935483871V370.9677419354838H454.8387096774193V296.7741935483871z" />
    <glyph glyph-name="flatbed-end-2"
      unicode="&#xF10E;"
      horiz-adv-x="912.9032258064516" d="M580.6451612903226 137.0967741935483A137.09677419354836 137.09677419354836 0 1 0 717.741935483871 0A137.09677419354836 137.09677419354836 0 0 0 580.6451612903226 137.0967741935483zM0 296.7741935483871V370.9677419354838H912.9032258064516V296.7741935483871z" />
    <glyph glyph-name="flatbed-end-2-1"
      unicode="&#x66;&#x6C;&#x61;&#x74;&#x62;&#x65;&#x64;&#x2D;&#x65;&#x6E;&#x64;&#x2D;&#x32;"
      horiz-adv-x="912.9032258064516" d="M580.6451612903226 137.0967741935483A137.09677419354836 137.09677419354836 0 1 0 717.741935483871 0A137.09677419354836 137.09677419354836 0 0 0 580.6451612903226 137.0967741935483zM0 296.7741935483871V370.9677419354838H912.9032258064516V296.7741935483871z" />
    <glyph glyph-name="flatbed-end-4"
      unicode="&#xF10F;"
      horiz-adv-x="912.9032258064516" d="M606.4516129032257 137.0967741935483A137.09677419354836 137.09677419354836 0 1 0 743.5483870967741 0A137.09677419354836 137.09677419354836 0 0 0 606.4516129032257 137.0967741935483zM319.3548387096774 137.0967741935483A137.09677419354836 137.09677419354836 0 1 0 456.4516129032258 0A137.09677419354836 137.09677419354836 0 0 0 319.3548387096774 137.0967741935483zM0 296.7741935483871V370.9677419354838H912.9032258064516V296.7741935483871z" />
    <glyph glyph-name="flatbed-end-4-1"
      unicode="&#x66;&#x6C;&#x61;&#x74;&#x62;&#x65;&#x64;&#x2D;&#x65;&#x6E;&#x64;&#x2D;&#x34;"
      horiz-adv-x="912.9032258064516" d="M606.4516129032257 137.0967741935483A137.09677419354836 137.09677419354836 0 1 0 743.5483870967741 0A137.09677419354836 137.09677419354836 0 0 0 606.4516129032257 137.0967741935483zM319.3548387096774 137.0967741935483A137.09677419354836 137.09677419354836 0 1 0 456.4516129032258 0A137.09677419354836 137.09677419354836 0 0 0 319.3548387096774 137.0967741935483zM0 296.7741935483871V370.9677419354838H912.9032258064516V296.7741935483871z" />
    <glyph glyph-name="flatbed-end-6"
      unicode="&#xF110;"
      horiz-adv-x="912.9032258064516" d="M606.4516129032257 137.0967741935483A137.09677419354836 137.09677419354836 0 1 0 743.5483870967741 0A137.09677419354836 137.09677419354836 0 0 0 606.4516129032257 137.0967741935483zM319.3548387096774 137.0967741935483A137.09677419354836 137.09677419354836 0 1 0 456.4516129032258 0A137.09677419354836 137.09677419354836 0 0 0 319.3548387096774 137.0967741935483zM32.258064516129 137.0967741935483A137.09677419354836 137.09677419354836 0 1 0 169.3548387096774 0A137.09677419354836 137.09677419354836 0 0 0 32.258064516129 137.0967741935483zM0 296.7741935483871V370.9677419354838H912.9032258064516V296.7741935483871z" />
    <glyph glyph-name="flatbed-end-6-1"
      unicode="&#x66;&#x6C;&#x61;&#x74;&#x62;&#x65;&#x64;&#x2D;&#x65;&#x6E;&#x64;&#x2D;&#x36;"
      horiz-adv-x="912.9032258064516" d="M606.4516129032257 137.0967741935483A137.09677419354836 137.09677419354836 0 1 0 743.5483870967741 0A137.09677419354836 137.09677419354836 0 0 0 606.4516129032257 137.0967741935483zM319.3548387096774 137.0967741935483A137.09677419354836 137.09677419354836 0 1 0 456.4516129032258 0A137.09677419354836 137.09677419354836 0 0 0 319.3548387096774 137.0967741935483zM32.258064516129 137.0967741935483A137.09677419354836 137.09677419354836 0 1 0 169.3548387096774 0A137.09677419354836 137.09677419354836 0 0 0 32.258064516129 137.0967741935483zM0 296.7741935483871V370.9677419354838H912.9032258064516V296.7741935483871z" />
    <glyph glyph-name="flatbed-mid-2"
      unicode="&#xF111;"
      horiz-adv-x="612.9032258064516" d="M170.9677419354839 137.0967741935483A137.09677419354836 137.09677419354836 0 1 0 308.0645161290323 0A137.09677419354836 137.09677419354836 0 0 0 170.9677419354839 137.0967741935483zM3.2258064516129 296.7741935483871V370.9677419354838H612.9032258064516V296.7741935483871z" />
    <glyph glyph-name="flatbed-mid-2-1"
      unicode="&#x66;&#x6C;&#x61;&#x74;&#x62;&#x65;&#x64;&#x2D;&#x6D;&#x69;&#x64;&#x2D;&#x32;"
      horiz-adv-x="612.9032258064516" d="M170.9677419354839 137.0967741935483A137.09677419354836 137.09677419354836 0 1 0 308.0645161290323 0A137.09677419354836 137.09677419354836 0 0 0 170.9677419354839 137.0967741935483zM3.2258064516129 296.7741935483871V370.9677419354838H612.9032258064516V296.7741935483871z" />
    <glyph glyph-name="flatbed-mid-4"
      unicode="&#xF112;"
      horiz-adv-x="612.9032258064516" d="M316.1290322580645 140.3225806451612A137.09677419354836 137.09677419354836 0 1 0 453.2258064516129 3.2258064516128A137.09677419354836 137.09677419354836 0 0 0 316.1290322580645 140.3225806451612zM29.0322580645161 140.3225806451612A137.09677419354836 137.09677419354836 0 1 0 166.1290322580645 3.2258064516128A137.09677419354836 137.09677419354836 0 0 0 29.0322580645161 140.3225806451612zM3.2258064516129 296.7741935483871V370.9677419354838H612.9032258064516V296.7741935483871z" />
    <glyph glyph-name="flatbed-mid-4-1"
      unicode="&#x66;&#x6C;&#x61;&#x74;&#x62;&#x65;&#x64;&#x2D;&#x6D;&#x69;&#x64;&#x2D;&#x34;"
      horiz-adv-x="612.9032258064516" d="M316.1290322580645 140.3225806451612A137.09677419354836 137.09677419354836 0 1 0 453.2258064516129 3.2258064516128A137.09677419354836 137.09677419354836 0 0 0 316.1290322580645 140.3225806451612zM29.0322580645161 140.3225806451612A137.09677419354836 137.09677419354836 0 1 0 166.1290322580645 3.2258064516128A137.09677419354836 137.09677419354836 0 0 0 29.0322580645161 140.3225806451612zM3.2258064516129 296.7741935483871V370.9677419354838H612.9032258064516V296.7741935483871z" />
    <glyph glyph-name="flatbed-mid-big"
      unicode="&#xF113;"
      horiz-adv-x="912.9032258064516" d="M0 370.9677419354838H912.9032258064516V296.7741935483871H0V370.9677419354838z" />
    <glyph glyph-name="flatbed-mid-big-1"
      unicode="&#x66;&#x6C;&#x61;&#x74;&#x62;&#x65;&#x64;&#x2D;&#x6D;&#x69;&#x64;&#x2D;&#x62;&#x69;&#x67;"
      horiz-adv-x="912.9032258064516" d="M0 370.9677419354838H912.9032258064516V296.7741935483871H0V370.9677419354838z" />
    <glyph glyph-name="flatbed-mid-small"
      unicode="&#xF114;"
      horiz-adv-x="225.8064516129032" d="M0 370.9677419354838H225.8064516129032V296.7741935483871H0V370.9677419354838z" />
    <glyph glyph-name="flatbed-mid-small-1"
      unicode="&#x66;&#x6C;&#x61;&#x74;&#x62;&#x65;&#x64;&#x2D;&#x6D;&#x69;&#x64;&#x2D;&#x73;&#x6D;&#x61;&#x6C;&#x6C;"
      horiz-adv-x="225.8064516129032" d="M0 370.9677419354838H225.8064516129032V296.7741935483871H0V370.9677419354838z" />
    <glyph glyph-name="flatbed-mid"
      unicode="&#xF115;"
      horiz-adv-x="454.83870967741933" d="M0 370.9677419354838H454.8387096774193V296.7741935483871H0V370.9677419354838z" />
    <glyph glyph-name="flatbed-mid-1"
      unicode="&#x66;&#x6C;&#x61;&#x74;&#x62;&#x65;&#x64;&#x2D;&#x6D;&#x69;&#x64;"
      horiz-adv-x="454.83870967741933" d="M0 370.9677419354838H454.8387096774193V296.7741935483871H0V370.9677419354838z" />
    <glyph glyph-name="flatbed-start-2"
      unicode="&#xF116;"
      horiz-adv-x="780.6451612903226" d="M416.1290322580645 137.0967741935483A137.09677419354836 137.09677419354836 0 1 0 553.2258064516129 0A137.09677419354836 137.09677419354836 0 0 0 416.1290322580645 137.0967741935483zM325.8064516129033 296.7741935483871H0V316.1290322580644H325.8064516129033V370.9677419354838H780.6451612903226V296.7741935483871z" />
    <glyph glyph-name="flatbed-start-2-1"
      unicode="&#x66;&#x6C;&#x61;&#x74;&#x62;&#x65;&#x64;&#x2D;&#x73;&#x74;&#x61;&#x72;&#x74;&#x2D;&#x32;"
      horiz-adv-x="780.6451612903226" d="M416.1290322580645 137.0967741935483A137.09677419354836 137.09677419354836 0 1 0 553.2258064516129 0A137.09677419354836 137.09677419354836 0 0 0 416.1290322580645 137.0967741935483zM325.8064516129033 296.7741935483871H0V316.1290322580644H325.8064516129033V370.9677419354838H780.6451612903226V296.7741935483871z" />
    <glyph glyph-name="flatbed-start-big"
      unicode="&#xF117;"
      horiz-adv-x="803.2258064516128" d="M780.6451612903226 0V296.7741935483871H803.2258064516128V0zM393.5483870967742 277.4193548387097V296.7741935483871H0V370.9677419354838H803.2258064516128V296.7741935483871H409.6774193548387V277.4193548387097z" />
    <glyph glyph-name="flatbed-start-big-1"
      unicode="&#x66;&#x6C;&#x61;&#x74;&#x62;&#x65;&#x64;&#x2D;&#x73;&#x74;&#x61;&#x72;&#x74;&#x2D;&#x62;&#x69;&#x67;"
      horiz-adv-x="803.2258064516128" d="M780.6451612903226 0V296.7741935483871H803.2258064516128V0zM393.5483870967742 277.4193548387097V296.7741935483871H0V370.9677419354838H803.2258064516128V296.7741935483871H409.6774193548387V277.4193548387097z" />
    <glyph glyph-name="flatbed-start"
      unicode="&#xF118;"
      horiz-adv-x="551.6129032258065" d="M325.8064516129033 296.7741935483871H0V316.1290322580644H325.8064516129033V370.9677419354838H551.6129032258065V296.7741935483871z" />
    <glyph glyph-name="flatbed-start-1"
      unicode="&#x66;&#x6C;&#x61;&#x74;&#x62;&#x65;&#x64;&#x2D;&#x73;&#x74;&#x61;&#x72;&#x74;"
      horiz-adv-x="551.6129032258065" d="M325.8064516129033 296.7741935483871H0V316.1290322580644H325.8064516129033V370.9677419354838H551.6129032258065V296.7741935483871z" />
    <glyph glyph-name="frame-end-2"
      unicode="&#xF119;"
      horiz-adv-x="274.19354838709677" d="M0 137.0967741935483A137.09677419354836 137.09677419354836 0 1 0 137.0967741935484 0A137.09677419354836 137.09677419354836 0 0 0 0 137.0967741935483z" />
    <glyph glyph-name="frame-end-2-1"
      unicode="&#x66;&#x72;&#x61;&#x6D;&#x65;&#x2D;&#x65;&#x6E;&#x64;&#x2D;&#x32;"
      horiz-adv-x="274.19354838709677" d="M0 137.0967741935483A137.09677419354836 137.09677419354836 0 1 0 137.0967741935484 0A137.09677419354836 137.09677419354836 0 0 0 0 137.0967741935483z" />
    <glyph glyph-name="frame-end-4"
      unicode="&#xF11A;"
      horiz-adv-x="561.2903225806451" d="M287.0967741935484 137.0967741935483A137.09677419354836 137.09677419354836 0 1 0 424.1935483870968 0A137.09677419354836 137.09677419354836 0 0 0 287.0967741935484 137.0967741935483zM0 137.0967741935483A137.09677419354836 137.09677419354836 0 1 0 137.0967741935484 0A137.09677419354836 137.09677419354836 0 0 0 0 137.0967741935483z" />
    <glyph glyph-name="frame-end-4-1"
      unicode="&#x66;&#x72;&#x61;&#x6D;&#x65;&#x2D;&#x65;&#x6E;&#x64;&#x2D;&#x34;"
      horiz-adv-x="561.2903225806451" d="M287.0967741935484 137.0967741935483A137.09677419354836 137.09677419354836 0 1 0 424.1935483870969 0A137.09677419354836 137.09677419354836 0 0 0 287.0967741935484 137.0967741935483zM0 137.0967741935483A137.09677419354836 137.09677419354836 0 1 0 137.0967741935484 0A137.09677419354836 137.09677419354836 0 0 0 0 137.0967741935483z" />
    <glyph glyph-name="frame-end-6"
      unicode="&#xF11B;"
      horiz-adv-x="848.3870967741935" d="M574.1935483870967 137.0967741935483A137.09677419354836 137.09677419354836 0 1 0 711.2903225806451 0A137.09677419354836 137.09677419354836 0 0 0 574.1935483870967 137.0967741935483zM287.0967741935484 137.0967741935483A137.09677419354836 137.09677419354836 0 1 0 424.1935483870968 0A137.09677419354836 137.09677419354836 0 0 0 287.0967741935484 137.0967741935483zM0 137.0967741935483A137.09677419354836 137.09677419354836 0 1 0 137.0967741935484 0A137.09677419354836 137.09677419354836 0 0 0 0 137.0967741935483z" />
    <glyph glyph-name="frame-end-6-1"
      unicode="&#x66;&#x72;&#x61;&#x6D;&#x65;&#x2D;&#x65;&#x6E;&#x64;&#x2D;&#x36;"
      horiz-adv-x="848.3870967741935" d="M574.1935483870967 137.0967741935483A137.09677419354836 137.09677419354836 0 1 0 711.2903225806451 0A137.09677419354836 137.09677419354836 0 0 0 574.1935483870967 137.0967741935483zM287.0967741935484 137.0967741935483A137.09677419354836 137.09677419354836 0 1 0 424.1935483870969 0A137.09677419354836 137.09677419354836 0 0 0 287.0967741935484 137.0967741935483zM0 137.0967741935483A137.09677419354836 137.09677419354836 0 1 0 137.0967741935484 0A137.09677419354836 137.09677419354836 0 0 0 0 137.0967741935483z" />
    <glyph glyph-name="frame-link"
      unicode="&#xF11C;"
      horiz-adv-x="58.064516129032256" d="M0 370.9677419354838H58.0645161290323V122.5806451612903H29.0322580645161V296.7741935483871H0z" />
    <glyph glyph-name="frame-link-1"
      unicode="&#x66;&#x72;&#x61;&#x6D;&#x65;&#x2D;&#x6C;&#x69;&#x6E;&#x6B;"
      horiz-adv-x="58.064516129032256" d="M0 370.9677419354838H58.0645161290323V122.5806451612903H29.0322580645161V296.7741935483871H0z" />
    <glyph glyph-name="frame-mid-big"
      unicode="&#xF11D;"
      horiz-adv-x="912.9032258064516" d="M0 151.6129032258064H912.9032258064516V122.5806451612903H0V151.6129032258064z" />
    <glyph glyph-name="frame-mid-big-1"
      unicode="&#x66;&#x72;&#x61;&#x6D;&#x65;&#x2D;&#x6D;&#x69;&#x64;&#x2D;&#x62;&#x69;&#x67;"
      horiz-adv-x="912.9032258064516" d="M0 151.6129032258064H912.9032258064516V122.5806451612903H0V151.6129032258064z" />
    <glyph glyph-name="frame-mid-lo"
      unicode="&#xF11E;"
      horiz-adv-x="108.06451612903226" d="M64.5161290322581 151.6129032258064H0V122.5806451612903H64.5161290322581C64.5161290322581 122.5806451612903 79.0322580645161 122.5806451612903 79.0322580645161 137.0967741935483C79.0322580645161 151.6129032258064 64.5161290322581 151.6129032258064 64.5161290322581 151.6129032258064z" />
    <glyph glyph-name="frame-mid-lo-1"
      unicode="&#x66;&#x72;&#x61;&#x6D;&#x65;&#x2D;&#x6D;&#x69;&#x64;&#x2D;&#x6C;&#x6F;"
      horiz-adv-x="108.06451612903226" d="M64.5161290322581 151.6129032258064H0V122.5806451612903H64.5161290322581C64.5161290322581 122.5806451612903 79.0322580645161 122.5806451612903 79.0322580645161 137.0967741935483C79.0322580645161 151.6129032258064 64.5161290322581 151.6129032258064 64.5161290322581 151.6129032258064z" />
    <glyph glyph-name="frame-mid-ol"
      unicode="&#xF11F;"
      horiz-adv-x="108.06451612903226" d="M43.5483870967742 151.6129032258064H108.0645161290323V122.5806451612903H43.5483870967742C43.5483870967742 122.5806451612903 29.0322580645161 122.5806451612903 29.0322580645161 137.0967741935483C29.0322580645161 151.6129032258064 43.5483870967742 151.6129032258064 43.5483870967742 151.6129032258064z" />
    <glyph glyph-name="frame-mid-ol-1"
      unicode="&#x66;&#x72;&#x61;&#x6D;&#x65;&#x2D;&#x6D;&#x69;&#x64;&#x2D;&#x6F;&#x6C;"
      horiz-adv-x="108.06451612903226" d="M43.5483870967742 151.6129032258064H108.0645161290323V122.5806451612903H43.5483870967742C43.5483870967742 122.5806451612903 29.0322580645161 122.5806451612903 29.0322580645161 137.0967741935483C29.0322580645161 151.6129032258064 43.5483870967742 151.6129032258064 43.5483870967742 151.6129032258064z" />
    <glyph glyph-name="frame-mid-olo"
      unicode="&#xF120;"
      horiz-adv-x="137.09677419354838" d="M93.5483870967742 151.6129032258064H43.5483870967742C43.5483870967742 151.6129032258064 29.0322580645161 151.6129032258064 29.0322580645161 137.0967741935483C29.0322580645161 122.5806451612903 43.5483870967742 122.5806451612903 43.5483870967742 122.5806451612903H93.5483870967742C93.5483870967742 122.5806451612903 108.0645161290323 122.5806451612903 108.0645161290323 137.0967741935483C108.0645161290323 151.6129032258064 93.5483870967742 151.6129032258064 93.5483870967742 151.6129032258064z" />
    <glyph glyph-name="frame-mid-olo-1"
      unicode="&#x66;&#x72;&#x61;&#x6D;&#x65;&#x2D;&#x6D;&#x69;&#x64;&#x2D;&#x6F;&#x6C;&#x6F;"
      horiz-adv-x="137.09677419354838" d="M93.5483870967742 151.6129032258064H43.5483870967742C43.5483870967742 151.6129032258064 29.0322580645161 151.6129032258064 29.0322580645161 137.0967741935483C29.0322580645161 122.5806451612903 43.5483870967742 122.5806451612903 43.5483870967742 122.5806451612903H93.5483870967742C93.5483870967742 122.5806451612903 108.0645161290323 122.5806451612903 108.0645161290323 137.0967741935483C108.0645161290323 151.6129032258064 93.5483870967742 151.6129032258064 93.5483870967742 151.6129032258064z" />
    <glyph glyph-name="frame-mid-small"
      unicode="&#xF121;"
      horiz-adv-x="225.8064516129032" d="M0 151.6129032258064H225.8064516129032V122.5806451612903H0V151.6129032258064z" />
    <glyph glyph-name="frame-mid-small-1"
      unicode="&#x66;&#x72;&#x61;&#x6D;&#x65;&#x2D;&#x6D;&#x69;&#x64;&#x2D;&#x73;&#x6D;&#x61;&#x6C;&#x6C;"
      horiz-adv-x="225.8064516129032" d="M0 151.6129032258064H225.8064516129032V122.5806451612903H0V151.6129032258064z" />
    <glyph glyph-name="frame-mid"
      unicode="&#xF122;"
      horiz-adv-x="454.83870967741933" d="M0 151.6129032258064H454.8387096774193V122.5806451612903H0V151.6129032258064z" />
    <glyph glyph-name="frame-mid-1"
      unicode="&#x66;&#x72;&#x61;&#x6D;&#x65;&#x2D;&#x6D;&#x69;&#x64;"
      horiz-adv-x="454.83870967741933" d="M0 151.6129032258064H454.8387096774193V122.5806451612903H0V151.6129032258064z" />
    <glyph glyph-name="glass-start-2"
      unicode="&#xF123;"
      horiz-adv-x="780.6451612903226" d="M416.1290322580645 137.0967741935483A137.09677419354836 137.09677419354836 0 1 0 553.2258064516129 0A137.09677419354836 137.09677419354836 0 0 0 416.1290322580645 137.0967741935483zM325.8064516129033 296.7741935483871H0V316.1290322580644H325.8064516129033V654.8387096774193L467.7419354838709 999.9999999999998H780.6451612903226V296.7741935483871z" />
    <glyph glyph-name="glass-start-2-1"
      unicode="&#x67;&#x6C;&#x61;&#x73;&#x73;&#x2D;&#x73;&#x74;&#x61;&#x72;&#x74;&#x2D;&#x32;"
      horiz-adv-x="780.6451612903226" d="M416.1290322580645 137.0967741935483A137.09677419354836 137.09677419354836 0 1 0 553.2258064516129 0A137.09677419354836 137.09677419354836 0 0 0 416.1290322580645 137.0967741935483zM325.8064516129033 296.7741935483871H0V316.1290322580644H325.8064516129033V654.8387096774193L467.7419354838709 999.9999999999998H780.6451612903226V296.7741935483871z" />
    <glyph glyph-name="glass-start-big"
      unicode="&#xF124;"
      horiz-adv-x="803.2258064516128" d="M780.6451612903226 0V296.7741935483871H803.2258064516128V0zM393.5483870967742 277.4193548387097V296.7741935483871H0V654.8387096774193L141.9354838709678 999.9999999999998H803.2258064516128V296.7741935483871H409.6774193548387V277.4193548387097z" />
    <glyph glyph-name="glass-start-big-1"
      unicode="&#x67;&#x6C;&#x61;&#x73;&#x73;&#x2D;&#x73;&#x74;&#x61;&#x72;&#x74;&#x2D;&#x62;&#x69;&#x67;"
      horiz-adv-x="803.2258064516128" d="M780.6451612903226 0V296.7741935483871H803.2258064516128V0zM393.5483870967742 277.4193548387097V296.7741935483871H0V654.8387096774193L141.9354838709678 999.9999999999998H803.2258064516128V296.7741935483871H409.6774193548387V277.4193548387097z" />
    <glyph glyph-name="glass-start"
      unicode="&#xF125;"
      horiz-adv-x="551.6129032258065" d="M325.8064516129033 296.7741935483871H0V316.1290322580644H325.8064516129033V654.8387096774193L467.7419354838709 999.9999999999998H551.6129032258065V296.7741935483871z" />
    <glyph glyph-name="glass-start-1"
      unicode="&#x67;&#x6C;&#x61;&#x73;&#x73;&#x2D;&#x73;&#x74;&#x61;&#x72;&#x74;"
      horiz-adv-x="551.6129032258065" d="M325.8064516129033 296.7741935483871H0V316.1290322580644H325.8064516129033V654.8387096774193L467.7419354838709 999.9999999999998H551.6129032258065V296.7741935483871z" />
    <glyph glyph-name="lowbed-link"
      unicode="&#xF126;"
      horiz-adv-x="74.19354838709677" d="M0 370.9677419354838H74.1935483870968V46.4001290322581H0z" />
    <glyph glyph-name="lowbed-link-1"
      unicode="&#x6C;&#x6F;&#x77;&#x62;&#x65;&#x64;&#x2D;&#x6C;&#x69;&#x6E;&#x6B;"
      horiz-adv-x="74.19354838709677" d="M0 370.9677419354838H74.1935483870968V46.4001290322581H0z" />
    <glyph glyph-name="lowbed-mid-big"
      unicode="&#xF127;"
      horiz-adv-x="912.9032258064516" d="M912.9016451612902 120.5936774193549L912.9016451612902 46.4001290322581L0.0000573767742 46.4001290322581L0.0000573767742 120.5936774193549z" />
    <glyph glyph-name="lowbed-mid-big-1"
      unicode="&#x6C;&#x6F;&#x77;&#x62;&#x65;&#x64;&#x2D;&#x6D;&#x69;&#x64;&#x2D;&#x62;&#x69;&#x67;"
      horiz-adv-x="912.9032258064516" d="M912.9016451612902 120.5936774193549L912.9016451612902 46.4001290322581L0.0000573767742 46.4001290322581L0.0000573767742 120.5936774193549z" />
    <glyph glyph-name="lowbed-mid-small"
      unicode="&#xF128;"
      horiz-adv-x="225.8064516129032" d="M225.7942131612903 120.5936774193549L225.7942131612903 46.4001290322581L0.0000158850218 46.4001290322581L0.0000158850218 120.5936774193549z" />
    <glyph glyph-name="lowbed-mid-small-1"
      unicode="&#x6C;&#x6F;&#x77;&#x62;&#x65;&#x64;&#x2D;&#x6D;&#x69;&#x64;&#x2D;&#x73;&#x6D;&#x61;&#x6C;&#x6C;"
      horiz-adv-x="225.8064516129032" d="M225.7942131612903 120.5936774193549L225.7942131612903 46.4001290322581L0.0000158850218 46.4001290322581L0.0000158850218 120.5936774193549z" />
    <glyph glyph-name="lowbed-mid"
      unicode="&#xF129;"
      horiz-adv-x="454.83870967741933" d="M454.8642445161291 120.5936774193549L454.8642445161291 46.4001290322581L0.0000344860259 46.4001290322581L0.0000344860259 120.5936774193549z" />
    <glyph glyph-name="lowbed-mid-1"
      unicode="&#x6C;&#x6F;&#x77;&#x62;&#x65;&#x64;&#x2D;&#x6D;&#x69;&#x64;"
      horiz-adv-x="454.83870967741933" d="M454.8642445161291 120.5936774193549L454.8642445161291 46.4001290322581L0.0000344860259 46.4001290322581L0.0000344860259 120.5936774193549z" />
    <glyph glyph-name="tank-start-2"
      unicode="&#xF12A;"
      horiz-adv-x="780.6451612903226" d="M416.1290322580645 137.0967741935483A137.09677419354836 137.09677419354836 0 1 0 553.2258064516129 0A137.09677419354836 137.09677419354836 0 0 0 416.1290322580645 137.0967741935483zM325.8064516129033 296.7741935483871H0V316.1290322580644H467.7419354838709S325.8064516129033 483.8709677419354 325.8064516129033 654.8387096774193S467.7419354838709 999.9999999999998 467.7419354838709 999.9999999999998H780.6451612903226V296.7741935483871z" />
    <glyph glyph-name="tank-start-2-1"
      unicode="&#x74;&#x61;&#x6E;&#x6B;&#x2D;&#x73;&#x74;&#x61;&#x72;&#x74;&#x2D;&#x32;"
      horiz-adv-x="780.6451612903226" d="M416.1290322580645 137.0967741935483A137.09677419354836 137.09677419354836 0 1 0 553.2258064516129 0A137.09677419354836 137.09677419354836 0 0 0 416.1290322580645 137.0967741935483zM325.8064516129033 296.7741935483871H0V316.1290322580644H467.7419354838709S325.8064516129033 483.8709677419354 325.8064516129033 654.8387096774193S467.7419354838709 999.9999999999998 467.7419354838709 999.9999999999998H780.6451612903226V296.7741935483871z" />
    <glyph glyph-name="tank-start-big"
      unicode="&#xF12B;"
      horiz-adv-x="803.2258064516128" d="M780.6451612903226 0V296.7741935483871H803.2258064516128V0zM393.5483870967742 277.4193548387097V296.7741935483871H141.9354838709678S0 479.0322580645161 0 654.8387096774193S141.9354838709678 999.9999999999998 141.9354838709678 999.9999999999998H803.2258064516128V296.7741935483871H409.6774193548387V277.4193548387097z" />
    <glyph glyph-name="tank-start-big-1"
      unicode="&#x74;&#x61;&#x6E;&#x6B;&#x2D;&#x73;&#x74;&#x61;&#x72;&#x74;&#x2D;&#x62;&#x69;&#x67;"
      horiz-adv-x="803.2258064516128" d="M780.6451612903226 0V296.7741935483871H803.2258064516128V0zM393.5483870967742 277.4193548387097V296.7741935483871H141.9354838709678S0 479.0322580645161 0 654.8387096774193S141.9354838709678 999.9999999999998 141.9354838709678 999.9999999999998H803.2258064516128V296.7741935483871H409.6774193548387V277.4193548387097z" />
    <glyph glyph-name="tank-start"
      unicode="&#xF12C;"
      horiz-adv-x="551.6129032258065" d="M325.8064516129033 296.7741935483871H0V316.1290322580644H467.7419354838709C467.7419354838709 316.1290322580644 325.8064516129033 483.8709677419354 325.8064516129033 654.8387096774193C325.8064516129033 825.8064516129032 467.7419354838709 999.9999999999998 467.7419354838709 999.9999999999998H551.6129032258065V296.7741935483871z" />
    <glyph glyph-name="tank-start-1"
      unicode="&#x74;&#x61;&#x6E;&#x6B;&#x2D;&#x73;&#x74;&#x61;&#x72;&#x74;"
      horiz-adv-x="551.6129032258065" d="M325.8064516129033 296.7741935483871H0V316.1290322580644H467.7419354838709C467.7419354838709 316.1290322580644 325.8064516129033 483.8709677419354 325.8064516129033 654.8387096774193C325.8064516129033 825.8064516129032 467.7419354838709 999.9999999999998 467.7419354838709 999.9999999999998H551.6129032258065V296.7741935483871z" />
    <glyph glyph-name="tank-u-end"
      unicode="&#xF12D;"
      horiz-adv-x="145.16129032258064" d="M0 999.9999999999998C0 999.9999999999998 145.1612903225807 827.4193548387095 145.1612903225807 651.6129032258063C145.1612903225807 475.8064516129032 0 296.7741935483871 0 296.7741935483871z" />
    <glyph glyph-name="tank-u-end-1"
      unicode="&#x74;&#x61;&#x6E;&#x6B;&#x2D;&#x75;&#x2D;&#x65;&#x6E;&#x64;"
      horiz-adv-x="145.16129032258064" d="M0 999.9999999999998C0 999.9999999999998 145.1612903225807 827.4193548387095 145.1612903225807 651.6129032258063C145.1612903225807 475.8064516129032 0 296.7741935483871 0 296.7741935483871z" />
    <glyph glyph-name="tank-u-start"
      unicode="&#xF12E;"
      horiz-adv-x="145.16129032258064" d="M145.1612903225807 296.7741935483866C145.1612903225807 296.7741935483866 0 469.354838709677 0 645.1612903225803C-1e-13 820.9677419354834 145.1612903225806 999.9999999999995 145.1612903225806 999.9999999999995z" />
    <glyph glyph-name="tank-u-start-1"
      unicode="&#x74;&#x61;&#x6E;&#x6B;&#x2D;&#x75;&#x2D;&#x73;&#x74;&#x61;&#x72;&#x74;"
      horiz-adv-x="145.16129032258064" d="M145.1612903225807 296.7741935483866C145.1612903225807 296.7741935483866 0 469.354838709677 0 645.1612903225803C-1e-13 820.9677419354834 145.1612903225806 999.9999999999995 145.1612903225806 999.9999999999995z" />
    <glyph glyph-name="tipper-start-2"
      unicode="&#xF12F;"
      horiz-adv-x="780.6451612903226" d="M416.1290322580645 137.0967741935483A137.09677419354836 137.09677419354836 0 1 0 553.2258064516129 0A137.09677419354836 137.09677419354836 0 0 0 416.1290322580645 137.0967741935483zM325.8064516129033 296.7741935483871H0V316.1290322580644H467.7419354838709L325.8064516129033 999.9999999999998H780.6451612903226V296.7741935483871z" />
    <glyph glyph-name="tipper-start-2-1"
      unicode="&#x74;&#x69;&#x70;&#x70;&#x65;&#x72;&#x2D;&#x73;&#x74;&#x61;&#x72;&#x74;&#x2D;&#x32;"
      horiz-adv-x="780.6451612903226" d="M416.1290322580645 137.0967741935483A137.09677419354836 137.09677419354836 0 1 0 553.2258064516129 0A137.09677419354836 137.09677419354836 0 0 0 416.1290322580645 137.0967741935483zM325.8064516129033 296.7741935483871H0V316.1290322580644H467.7419354838709L325.8064516129033 999.9999999999998H780.6451612903226V296.7741935483871z" />
    <glyph glyph-name="tipper-start-big"
      unicode="&#xF130;"
      horiz-adv-x="803.2258064516128" d="M780.6451612903226 0V296.7741935483871H803.2258064516128V0zM393.5483870967742 277.4193548387097V296.7741935483871H141.9354838709678L0 999.9999999999998H803.2258064516128V296.7741935483871H409.6774193548387V277.4193548387097z" />
    <glyph glyph-name="tipper-start-big-1"
      unicode="&#x74;&#x69;&#x70;&#x70;&#x65;&#x72;&#x2D;&#x73;&#x74;&#x61;&#x72;&#x74;&#x2D;&#x62;&#x69;&#x67;"
      horiz-adv-x="803.2258064516128" d="M780.6451612903226 0V296.7741935483871H803.2258064516128V0zM393.5483870967742 277.4193548387097V296.7741935483871H141.9354838709678L0 999.9999999999998H803.2258064516128V296.7741935483871H409.6774193548387V277.4193548387097z" />
    <glyph glyph-name="tipper-start"
      unicode="&#xF131;"
      horiz-adv-x="551.6129032258065" d="M325.8064516129033 296.7741935483871H0V316.1290322580644H467.7419354838709L325.8064516129033 999.9999999999998H551.6129032258065V296.7741935483871z" />
    <glyph glyph-name="tipper-start-1"
      unicode="&#x74;&#x69;&#x70;&#x70;&#x65;&#x72;&#x2D;&#x73;&#x74;&#x61;&#x72;&#x74;"
      horiz-adv-x="551.6129032258065" d="M325.8064516129033 296.7741935483871H0V316.1290322580644H467.7419354838709L325.8064516129033 999.9999999999998H551.6129032258065V296.7741935483871z" />
    <glyph glyph-name="tipper-u-end"
      unicode="&#xF132;"
      horiz-adv-x="145.16129032258064" d="M0 999.9999999999998L145.1612903225807 296.7741935483871H0z" />
    <glyph glyph-name="tipper-u-end-1"
      unicode="&#x74;&#x69;&#x70;&#x70;&#x65;&#x72;&#x2D;&#x75;&#x2D;&#x65;&#x6E;&#x64;"
      horiz-adv-x="145.16129032258064" d="M0 999.9999999999998L145.1612903225807 296.7741935483871H0z" />
    <glyph glyph-name="tipper-u-start"
      unicode="&#xF133;"
      horiz-adv-x="145.16129032258064" d="M145.1612903225807 296.7741935483866L-1e-13 999.9999999999995L145.1612903225807 296.7741935483871z" />
    <glyph glyph-name="tipper-u-start-1"
      unicode="&#x74;&#x69;&#x70;&#x70;&#x65;&#x72;&#x2D;&#x75;&#x2D;&#x73;&#x74;&#x61;&#x72;&#x74;"
      horiz-adv-x="145.16129032258064" d="M145.1612903225807 296.7741935483866L-1e-13 999.9999999999995L145.1612903225807 296.7741935483871z" />
    <glyph glyph-name="trailer-end-2-small"
      unicode="&#xF134;"
      horiz-adv-x="454.83870967741933" d="M125.8064516129032 137.0967741935483A137.09677419354836 137.09677419354836 0 1 0 262.9032258064516 0A137.09677419354836 137.09677419354836 0 0 0 125.8064516129032 137.0967741935483zM0 296.7741935483871V999.9999999999998H454.8387096774193V296.7741935483871z" />
    <glyph glyph-name="trailer-end-2-small-1"
      unicode="&#x74;&#x72;&#x61;&#x69;&#x6C;&#x65;&#x72;&#x2D;&#x65;&#x6E;&#x64;&#x2D;&#x32;&#x2D;&#x73;&#x6D;&#x61;&#x6C;&#x6C;"
      horiz-adv-x="454.83870967741933" d="M125.8064516129032 137.0967741935483A137.09677419354836 137.09677419354836 0 1 0 262.9032258064516 0A137.09677419354836 137.09677419354836 0 0 0 125.8064516129032 137.0967741935483zM0 296.7741935483871V999.9999999999998H454.8387096774193V296.7741935483871z" />
    <glyph glyph-name="trailer-end-2"
      unicode="&#xF135;"
      horiz-adv-x="912.9032258064516" d="M580.6451612903226 137.0967741935483A137.09677419354836 137.09677419354836 0 1 0 717.741935483871 0A137.09677419354836 137.09677419354836 0 0 0 580.6451612903226 137.0967741935483zM0 296.7741935483871V999.9999999999998H912.9032258064516V296.7741935483871z" />
    <glyph glyph-name="trailer-end-2-1"
      unicode="&#x74;&#x72;&#x61;&#x69;&#x6C;&#x65;&#x72;&#x2D;&#x65;&#x6E;&#x64;&#x2D;&#x32;"
      horiz-adv-x="912.9032258064516" d="M580.6451612903226 137.0967741935483A137.09677419354836 137.09677419354836 0 1 0 717.741935483871 0A137.09677419354836 137.09677419354836 0 0 0 580.6451612903226 137.0967741935483zM0 296.7741935483871V999.9999999999998H912.9032258064516V296.7741935483871z" />
    <glyph glyph-name="trailer-end-4"
      unicode="&#xF136;"
      horiz-adv-x="912.9032258064516" d="M606.4516129032257 137.0967741935483A137.09677419354836 137.09677419354836 0 1 0 743.5483870967741 0A137.09677419354836 137.09677419354836 0 0 0 606.4516129032257 137.0967741935483zM319.3548387096774 137.0967741935483A137.09677419354836 137.09677419354836 0 1 0 456.4516129032258 0A137.09677419354836 137.09677419354836 0 0 0 319.3548387096774 137.0967741935483zM0 296.7741935483871V999.9999999999998H912.9032258064516V296.7741935483871z" />
    <glyph glyph-name="trailer-end-4-1"
      unicode="&#x74;&#x72;&#x61;&#x69;&#x6C;&#x65;&#x72;&#x2D;&#x65;&#x6E;&#x64;&#x2D;&#x34;"
      horiz-adv-x="912.9032258064516" d="M606.4516129032257 137.0967741935483A137.09677419354836 137.09677419354836 0 1 0 743.5483870967741 0A137.09677419354836 137.09677419354836 0 0 0 606.4516129032257 137.0967741935483zM319.3548387096774 137.0967741935483A137.09677419354836 137.09677419354836 0 1 0 456.4516129032258 0A137.09677419354836 137.09677419354836 0 0 0 319.3548387096774 137.0967741935483zM0 296.7741935483871V999.9999999999998H912.9032258064516V296.7741935483871z" />
    <glyph glyph-name="trailer-end-6"
      unicode="&#xF137;"
      horiz-adv-x="912.9032258064516" d="M606.4516129032257 137.0967741935483A137.09677419354836 137.09677419354836 0 1 0 743.5483870967741 0A137.09677419354836 137.09677419354836 0 0 0 606.4516129032257 137.0967741935483zM319.3548387096774 137.0967741935483A137.09677419354836 137.09677419354836 0 1 0 456.4516129032258 0A137.09677419354836 137.09677419354836 0 0 0 319.3548387096774 137.0967741935483zM32.258064516129 137.0967741935483A137.09677419354836 137.09677419354836 0 1 0 169.3548387096774 0A137.09677419354836 137.09677419354836 0 0 0 32.258064516129 137.0967741935483zM0 296.7741935483871V999.9999999999998H912.9032258064516V296.7741935483871z" />
    <glyph glyph-name="trailer-end-6-1"
      unicode="&#x74;&#x72;&#x61;&#x69;&#x6C;&#x65;&#x72;&#x2D;&#x65;&#x6E;&#x64;&#x2D;&#x36;"
      horiz-adv-x="912.9032258064516" d="M606.4516129032257 137.0967741935483A137.09677419354836 137.09677419354836 0 1 0 743.5483870967741 0A137.09677419354836 137.09677419354836 0 0 0 606.4516129032257 137.0967741935483zM319.3548387096774 137.0967741935483A137.09677419354836 137.09677419354836 0 1 0 456.4516129032258 0A137.09677419354836 137.09677419354836 0 0 0 319.3548387096774 137.0967741935483zM32.258064516129 137.0967741935483A137.09677419354836 137.09677419354836 0 1 0 169.3548387096774 0A137.09677419354836 137.09677419354836 0 0 0 32.258064516129 137.0967741935483zM0 296.7741935483871V999.9999999999998H912.9032258064516V296.7741935483871z" />
    <glyph glyph-name="trailer-mid-2"
      unicode="&#xF138;"
      horiz-adv-x="612.9032258064516" d="M170.9677419354839 137.0967741935483A137.09677419354836 137.09677419354836 0 1 0 308.0645161290323 0A137.09677419354836 137.09677419354836 0 0 0 170.9677419354839 137.0967741935483zM3.2258064516129 296.7741935483871V999.9999999999998H612.9032258064516V296.7741935483871z" />
    <glyph glyph-name="trailer-mid-2-1"
      unicode="&#x74;&#x72;&#x61;&#x69;&#x6C;&#x65;&#x72;&#x2D;&#x6D;&#x69;&#x64;&#x2D;&#x32;"
      horiz-adv-x="612.9032258064516" d="M170.9677419354839 137.0967741935483A137.09677419354836 137.09677419354836 0 1 0 308.0645161290323 0A137.09677419354836 137.09677419354836 0 0 0 170.9677419354839 137.0967741935483zM3.2258064516129 296.7741935483871V999.9999999999998H612.9032258064516V296.7741935483871z" />
    <glyph glyph-name="trailer-mid-4"
      unicode="&#xF139;"
      horiz-adv-x="612.9032258064516" d="M316.1290322580645 140.3225806451612A137.09677419354836 137.09677419354836 0 1 0 453.2258064516129 3.2258064516128A137.09677419354836 137.09677419354836 0 0 0 316.1290322580645 140.3225806451612zM29.0322580645161 140.3225806451612A137.09677419354836 137.09677419354836 0 1 0 166.1290322580645 3.2258064516128A137.09677419354836 137.09677419354836 0 0 0 29.0322580645161 140.3225806451612zM3.2258064516129 296.7741935483871V999.9999999999998H612.9032258064516V296.7741935483871z" />
    <glyph glyph-name="trailer-mid-4-1"
      unicode="&#x74;&#x72;&#x61;&#x69;&#x6C;&#x65;&#x72;&#x2D;&#x6D;&#x69;&#x64;&#x2D;&#x34;"
      horiz-adv-x="612.9032258064516" d="M316.1290322580645 140.3225806451612A137.09677419354836 137.09677419354836 0 1 0 453.2258064516129 3.2258064516128A137.09677419354836 137.09677419354836 0 0 0 316.1290322580645 140.3225806451612zM29.0322580645161 140.3225806451612A137.09677419354836 137.09677419354836 0 1 0 166.1290322580645 3.2258064516128A137.09677419354836 137.09677419354836 0 0 0 29.0322580645161 140.3225806451612zM3.2258064516129 296.7741935483871V999.9999999999998H612.9032258064516V296.7741935483871z" />
    <glyph glyph-name="trailer-mid-big"
      unicode="&#xF13A;"
      horiz-adv-x="912.9032258064516" d="M0 999.9999999999998H912.9032258064516V296.7741935483871H0V999.9999999999998z" />
    <glyph glyph-name="trailer-mid-big-1"
      unicode="&#x74;&#x72;&#x61;&#x69;&#x6C;&#x65;&#x72;&#x2D;&#x6D;&#x69;&#x64;&#x2D;&#x62;&#x69;&#x67;"
      horiz-adv-x="912.9032258064516" d="M0 999.9999999999998H912.9032258064516V296.7741935483871H0V999.9999999999998z" />
    <glyph glyph-name="trailer-mid-small"
      unicode="&#xF13B;"
      horiz-adv-x="225.8064516129032" d="M0 999.9999999999998H225.8064516129032V296.7741935483871H0V999.9999999999998z" />
    <glyph glyph-name="trailer-mid-small-1"
      unicode="&#x74;&#x72;&#x61;&#x69;&#x6C;&#x65;&#x72;&#x2D;&#x6D;&#x69;&#x64;&#x2D;&#x73;&#x6D;&#x61;&#x6C;&#x6C;"
      horiz-adv-x="225.8064516129032" d="M0 999.9999999999998H225.8064516129032V296.7741935483871H0V999.9999999999998z" />
    <glyph glyph-name="trailer-mid"
      unicode="&#xF13C;"
      horiz-adv-x="454.83870967741933" d="M0 999.9999999999998H454.8387096774193V296.7741935483871H0V999.9999999999998z" />
    <glyph glyph-name="trailer-mid-1"
      unicode="&#x74;&#x72;&#x61;&#x69;&#x6C;&#x65;&#x72;&#x2D;&#x6D;&#x69;&#x64;"
      horiz-adv-x="454.83870967741933" d="M0 999.9999999999998H454.8387096774193V296.7741935483871H0V999.9999999999998z" />
    <glyph glyph-name="trailer-start-2"
      unicode="&#xF13D;"
      horiz-adv-x="780.6426430882482" d="M416.1276899106778 137.099557743362A137.09633194731632 137.09633194731632 0 1 0 553.2240218579941 0.0032257960457A137.09633194731632 137.09633194731632 0 0 0 416.1276899106778 137.099557743362zM325.80540062774 296.7764620114129H0V316.131238286328H325.80540062774V1000H780.6426430882482V296.7764620114129z" />
    <glyph glyph-name="trailer-start-2-1"
      unicode="&#x74;&#x72;&#x61;&#x69;&#x6C;&#x65;&#x72;&#x2D;&#x73;&#x74;&#x61;&#x72;&#x74;&#x2D;&#x32;"
      horiz-adv-x="780.6426430882482" d="M416.1276899106778 137.099557743362A137.09633194731632 137.09633194731632 0 1 0 553.2240218579941 0.0032257960457A137.09633194731632 137.09633194731632 0 0 0 416.1276899106778 137.099557743362zM325.8054006277401 296.7764620114129H0V316.1312382863281H325.8054006277401V1000H780.6426430882482V296.7764620114129z" />
    <glyph glyph-name="trailer-start-big"
      unicode="&#xF13E;"
      horiz-adv-x="803.2232154089827" d="M780.6426430882482 0V296.773236215367H803.2232154089827V0zM393.5471175899433 277.4184599404518V296.773236215367H0V999.9967742039541H803.2232154089827V296.773236215367H409.6760978190394V277.4184599404518z" />
    <glyph glyph-name="trailer-start-big-1"
      unicode="&#x74;&#x72;&#x61;&#x69;&#x6C;&#x65;&#x72;&#x2D;&#x73;&#x74;&#x61;&#x72;&#x74;&#x2D;&#x62;&#x69;&#x67;"
      horiz-adv-x="803.2232154089827" d="M780.6426430882482 0V296.773236215367H803.2232154089827V0zM393.5471175899433 277.4184599404518V296.773236215367H0V999.9967742039541H803.2232154089827V296.773236215367H409.6760978190394V277.4184599404518z" />
    <glyph glyph-name="trailer-start"
      unicode="&#xF13F;"
      horiz-adv-x="551.6129032258065" d="M325.8064516129033 296.7741935483871H0V316.1290322580644H325.8064516129033V999.9999999999998H551.6129032258065V296.7741935483871z" />
    <glyph glyph-name="trailer-start-1"
      unicode="&#x74;&#x72;&#x61;&#x69;&#x6C;&#x65;&#x72;&#x2D;&#x73;&#x74;&#x61;&#x72;&#x74;"
      horiz-adv-x="551.6129032258065" d="M325.8064516129033 296.7741935483871H0V316.1290322580644H325.8064516129033V999.9999999999998H551.6129032258065V296.7741935483871z" />
    <glyph glyph-name="truck-end-4x2-container"
      unicode="&#xF140;"
      horiz-adv-x="780.6484193548387" d="M572.5838946281347 0.0032258065556A136.65161854996333 136.65161731134248 0 1 0 625.9484129623031 10.7774197024975A136.28387659928353 136.28387536399597 0 0 0 572.5838946281347 0.0032258065556zM409.6806620901726 116.1322618107181H0.0032258065849V264.5193633715924H507.6613113002331A160.93226471458195 160.93226325587946 0 0 1 409.6838878967575 116.1322618107181zM732.2613205811865 116.1322618107181A160.8967808421479 160.89677938376704 0 0 1 634.2838971777109 264.5193633715924H780.6484193548386V116.1322618107181zM464.519374033645 277.4225895942771H448.3903411090943V296.7774289283041H109.6806496935297V1000.003248645266H780.6484193548387V296.7774289283041H464.519374033645zM646.7774460810679 932.2613107181066A24.229033259260053 24.229033039646225 0 0 1 622.5838966942418 908.0677615505728V388.7129157649328A24.193549386826042 24.193549167533845 0 1 1 670.9709954678939 388.7129157649328V908.0677615505728A24.225807452675138 24.225807233090553 0 0 1 646.7774460810679 932.2613107181066zM511.293569514842 932.2613107181066A24.229033259260053 24.229033039646225 0 0 1 487.100020128016 908.0677615505728V388.7129157649328A24.193549386826042 24.193549167533845 0 1 1 535.487118901668 388.7129157649328V908.0677615505728A24.229033259260053 24.229033039646225 0 0 1 511.293569514842 932.2613107181066zM375.8096929486161 932.2613107181066A24.229033259260053 24.229033039646225 0 0 1 351.6161435617901 908.0677615505728V388.7129157649328A24.193549386826042 24.193549167533845 0 1 1 400.0032423354421 388.7129157649328V908.0677615505728A24.229033259260053 24.229033039646225 0 0 1 375.8096929486161 932.2613107181066zM240.3258163823903 932.2613107181066A24.229033259260053 24.229033039646225 0 0 1 216.1322669955642 908.0677615505728V388.7129157649328A24.193549386826042 24.193549167533845 0 1 1 264.5193657692163 388.7129157649328V908.0677615505728A24.225807452675138 24.225807233090553 0 0 1 240.3258163823903 932.2613107181066z" />
    <glyph glyph-name="truck-end-4x2-container-1"
      unicode="&#x74;&#x72;&#x75;&#x63;&#x6B;&#x2D;&#x65;&#x6E;&#x64;&#x2D;&#x34;&#x78;&#x32;&#x2D;&#x63;&#x6F;&#x6E;&#x74;&#x61;&#x69;&#x6E;&#x65;&#x72;"
      horiz-adv-x="780.6484193548387" d="M572.5838946281347 0.0032258065556A136.65161854996333 136.65161731134248 0 1 0 625.9484129623031 10.7774197024975A136.28387659928353 136.28387536399597 0 0 0 572.5838946281347 0.0032258065556zM409.6806620901726 116.1322618107181H0.0032258065849V264.5193633715924H507.6613113002331A160.93226471458195 160.93226325587946 0 0 1 409.6838878967575 116.1322618107181zM732.2613205811865 116.1322618107181A160.8967808421479 160.89677938376704 0 0 1 634.2838971777109 264.5193633715924H780.6484193548386V116.1322618107181zM464.519374033645 277.4225895942771H448.3903411090943V296.7774289283041H109.6806496935297V1000.003248645266H780.6484193548387V296.7774289283041H464.519374033645zM646.7774460810679 932.2613107181066A24.229033259260053 24.229033039646225 0 0 1 622.5838966942418 908.0677615505728V388.7129157649328A24.193549386826042 24.193549167533845 0 1 1 670.9709954678939 388.7129157649328V908.0677615505728A24.225807452675138 24.225807233090553 0 0 1 646.7774460810679 932.2613107181066zM511.293569514842 932.2613107181066A24.229033259260053 24.229033039646225 0 0 1 487.100020128016 908.0677615505728V388.7129157649328A24.193549386826042 24.193549167533845 0 1 1 535.487118901668 388.7129157649328V908.0677615505728A24.229033259260053 24.229033039646225 0 0 1 511.293569514842 932.2613107181066zM375.8096929486161 932.2613107181066A24.229033259260053 24.229033039646225 0 0 1 351.6161435617901 908.0677615505728V388.7129157649328A24.193549386826042 24.193549167533845 0 1 1 400.0032423354421 388.7129157649328V908.0677615505728A24.229033259260053 24.229033039646225 0 0 1 375.8096929486161 932.2613107181066zM240.3258163823903 932.2613107181066A24.229033259260053 24.229033039646225 0 0 1 216.1322669955642 908.0677615505728V388.7129157649328A24.193549386826042 24.193549167533845 0 1 1 264.5193657692163 388.7129157649328V908.0677615505728A24.225807452675138 24.225807233090553 0 0 1 240.3258163823903 932.2613107181066z" />
    <glyph glyph-name="truck-end-4x2-flatbed"
      unicode="&#xF141;"
      horiz-adv-x="780.6451612903226" d="M435.4838709677419 137.0967741935483A137.09677419354836 137.09677419354836 0 1 0 572.5806451612902 0A137.09677419354836 137.09677419354836 0 0 0 435.4838709677419 137.0967741935483zM780.6451612903226 116.1290322580645H732.258064516129A161.15806451612903 161.15806451612903 0 0 1 634.2838709677419 264.5161290322581H780.6451612903226V116.1290322580645zM0 116.1290322580645V264.5161290322581H507.6516129032258A161.16451612903225 161.16451612903225 0 0 1 409.6774193548387 116.1290322580645zM448.3870967741936 277.4193548387097V296.7741935483871H464.516129032258V277.4193548387097zM109.6774193548387 296.7741935483871V370.9677419354838H780.6451612903226V296.7741935483871z" />
    <glyph glyph-name="truck-end-4x2-flatbed-1"
      unicode="&#x74;&#x72;&#x75;&#x63;&#x6B;&#x2D;&#x65;&#x6E;&#x64;&#x2D;&#x34;&#x78;&#x32;&#x2D;&#x66;&#x6C;&#x61;&#x74;&#x62;&#x65;&#x64;"
      horiz-adv-x="780.6451612903226" d="M435.4838709677419 137.0967741935483A137.09677419354836 137.09677419354836 0 1 0 572.5806451612902 0A137.09677419354836 137.09677419354836 0 0 0 435.4838709677419 137.0967741935483zM780.6451612903226 116.1290322580645H732.258064516129A161.15806451612903 161.15806451612903 0 0 1 634.2838709677419 264.5161290322581H780.6451612903226V116.1290322580645zM0 116.1290322580645V264.5161290322581H507.6516129032258A161.16451612903225 161.16451612903225 0 0 1 409.6774193548387 116.1290322580645zM448.3870967741936 277.4193548387097V296.7741935483871H464.516129032258V277.4193548387097zM109.6774193548387 296.7741935483871V370.9677419354838H780.6451612903226V296.7741935483871z" />
    <glyph glyph-name="truck-end-4x2-glass"
      unicode="&#xF142;"
      horiz-adv-x="780.6451612903226" d="M435.4838709677419 137.0967741935483A137.09677419354836 137.09677419354836 0 1 0 572.5806451612902 0A137.09677419354836 137.09677419354836 0 0 0 435.4838709677419 137.0967741935483zM780.6451612903226 116.1290322580645H732.258064516129A161.15806451612903 161.15806451612903 0 0 1 634.2838709677419 264.5161290322581H780.6451612903226zM0 116.1290322580645V264.5161290322581H507.6516129032258A161.16451612903225 161.16451612903225 0 0 1 409.6774193548387 116.1290322580645zM448.3870967741936 277.4193548387097V296.7741935483871H464.516129032258V277.4193548387097zM109.6774193548387 296.7741935483871V654.8387096774193L251.6129032258065 999.9999999999998H780.6451612903226V296.7741935483871z" />
    <glyph glyph-name="truck-end-4x2-glass-1"
      unicode="&#x74;&#x72;&#x75;&#x63;&#x6B;&#x2D;&#x65;&#x6E;&#x64;&#x2D;&#x34;&#x78;&#x32;&#x2D;&#x67;&#x6C;&#x61;&#x73;&#x73;"
      horiz-adv-x="780.6451612903226" d="M435.4838709677419 137.0967741935483A137.09677419354836 137.09677419354836 0 1 0 572.5806451612902 0A137.09677419354836 137.09677419354836 0 0 0 435.4838709677419 137.0967741935483zM780.6451612903226 116.1290322580645H732.258064516129A161.15806451612903 161.15806451612903 0 0 1 634.2838709677419 264.5161290322581H780.6451612903226zM0 116.1290322580645V264.5161290322581H507.6516129032258A161.16451612903225 161.16451612903225 0 0 1 409.6774193548387 116.1290322580645zM448.3870967741936 277.4193548387097V296.7741935483871H464.516129032258V277.4193548387097zM109.6774193548387 296.7741935483871V654.8387096774193L251.6129032258065 999.9999999999998H780.6451612903226V296.7741935483871z" />
    <glyph glyph-name="truck-end-4x2-tandem-container"
      unicode="&#xF143;"
      horiz-adv-x="1309.6774193548385" d="M1008.0677419354836 0.0032258065556A137.09677419354836 137.0967786160251 0 1 0 1008.0677419354836 274.1967830386059H12.9064516129032V1000.003248645266H1309.6806451612902V274.1967830386059H1008.0677419354836A137.09677419354836 137.0967786160251 0 1 0 1008.0677419354836 0.0032258065556zM1211.2935483870967 932.2613107181068A24.232258064516124 24.232258846201894 0 0 1 1187.1 908.067761550573V388.7129157649328A24.193548387096772 24.193549167533845 0 1 1 1235.4870967741933 388.7129157649328V908.0677615505728A24.232258064516124 24.232258846201894 0 0 1 1211.2935483870967 932.2613107181066zM1075.8096774193548 932.2613107181068A24.232258064516124 24.232258846201894 0 0 1 1051.616129032258 908.067761550573V388.7129157649328A24.193548387096772 24.193549167533845 0 1 1 1100.0032258064514 388.7129157649328V908.0677615505728A24.225806451612897 24.225807233090553 0 0 1 1075.8096774193548 932.2613107181066zM940.3258064516128 932.2613107181068A24.225806451612897 24.225807233090553 0 0 1 916.132258064516 908.067761550573V388.7129157649328A24.193548387096772 24.193549167533845 0 1 1 964.5193548387095 388.7129157649328V908.0677615505728A24.232258064516124 24.232258846201894 0 0 1 940.3258064516128 932.2613107181066zM804.8419354838709 932.2613107181068A24.232258064516124 24.232258846201894 0 0 1 780.6483870967741 908.067761550573V388.7129157649328A24.193548387096772 24.193549167533845 0 1 1 829.0354838709676 388.7129157649328V908.0677615505728A24.232258064516124 24.232258846201894 0 0 1 804.8419354838709 932.2613107181066zM669.3580645161289 932.2613107181068A24.232258064516124 24.232258846201894 0 0 1 645.1645161290321 908.067761550573V388.7129157649328A24.193548387096772 24.193549167533845 0 1 1 693.5516129032256 388.7129157649328V908.0677615505728A24.225806451612897 24.225807233090553 0 0 1 669.3580645161289 932.2613107181066zM533.874193548387 932.2613107181068A24.232258064516124 24.232258846201894 0 0 1 509.6806451612902 908.067761550573V388.7129157649328A24.193548387096772 24.193549167533845 0 1 1 558.0677419354838 388.7129157649328V908.0677615505728A24.225806451612897 24.225807233090553 0 0 1 533.874193548387 932.2613107181066zM398.3903225806451 932.2613107181068A24.225806451612897 24.225807233090553 0 0 1 374.1967741935483 908.067761550573V388.7129157649328A24.193548387096772 24.193549167533845 0 1 1 422.5838709677419 388.7129157649328V908.0677615505728A24.232258064516124 24.232258846201894 0 0 1 398.3903225806451 932.2613107181066zM262.9064516129032 932.2613107181068A24.232258064516124 24.232258846201894 0 0 1 238.7129032258064 908.067761550573V388.7129157649328A24.193548387096772 24.193549167533845 0 1 1 287.0999999999999 388.7129157649328V908.0677615505728A24.232258064516124 24.232258846201894 0 0 1 262.9064516129032 932.2613107181066zM127.4225806451612 932.2613107181068A24.232258064516124 24.232258846201894 0 0 1 103.2290322580644 908.067761550573V388.7129157649328A24.193548387096772 24.193549167533845 0 1 1 151.616129032258 388.7129157649328V908.0677615505728A24.225806451612897 24.225807233090553 0 0 1 127.4225806451612 932.2613107181066zM1309.6806451612902 116.1322618107181H1167.7129032258063C1167.7451612903224 117.1193586167534 1167.7451612903224 118.2032296194591 1167.7451612903224 119.3580683663893A160.96774193548384 160.96774712799183 0 0 1 1076.8354838709674 264.5193633715924H1309.6806451612902zM845.1967741935482 116.1322618107181H0.0032258064516V264.5193633715924H936.074193548387A160.96774193548384 160.96774712799183 0 0 1 845.1645161290321 119.3580683663893C845.1645161290321 118.3000038161291 845.1645161290321 117.2064553937567 845.1967741935482 116.1322618107181z" />
    <glyph glyph-name="truck-end-4x2-tandem-container-1"
      unicode="&#x74;&#x72;&#x75;&#x63;&#x6B;&#x2D;&#x65;&#x6E;&#x64;&#x2D;&#x34;&#x78;&#x32;&#x2D;&#x74;&#x61;&#x6E;&#x64;&#x65;&#x6D;&#x2D;&#x63;&#x6F;&#x6E;&#x74;&#x61;&#x69;&#x6E;&#x65;&#x72;"
      horiz-adv-x="1309.6774193548385" d="M1008.0677419354836 0.0032258065556A137.09677419354836 137.0967786160251 0 1 0 1008.0677419354836 274.1967830386059H12.9064516129032V1000.003248645266H1309.6806451612902V274.1967830386059H1008.0677419354836A137.09677419354836 137.0967786160251 0 1 0 1008.0677419354836 0.0032258065556zM1211.2935483870967 932.2613107181068A24.232258064516124 24.232258846201894 0 0 1 1187.1 908.067761550573V388.7129157649328A24.193548387096772 24.193549167533845 0 1 1 1235.4870967741933 388.7129157649328V908.0677615505728A24.232258064516124 24.232258846201894 0 0 1 1211.2935483870967 932.2613107181066zM1075.8096774193548 932.2613107181068A24.232258064516124 24.232258846201894 0 0 1 1051.616129032258 908.067761550573V388.7129157649328A24.193548387096772 24.193549167533845 0 1 1 1100.0032258064514 388.7129157649328V908.0677615505728A24.225806451612897 24.225807233090553 0 0 1 1075.8096774193548 932.2613107181066zM940.3258064516128 932.2613107181068A24.225806451612897 24.225807233090553 0 0 1 916.132258064516 908.067761550573V388.7129157649328A24.193548387096772 24.193549167533845 0 1 1 964.5193548387095 388.7129157649328V908.0677615505728A24.232258064516124 24.232258846201894 0 0 1 940.3258064516128 932.2613107181066zM804.8419354838709 932.2613107181068A24.232258064516124 24.232258846201894 0 0 1 780.6483870967741 908.067761550573V388.7129157649328A24.193548387096772 24.193549167533845 0 1 1 829.0354838709676 388.7129157649328V908.0677615505728A24.232258064516124 24.232258846201894 0 0 1 804.8419354838709 932.2613107181066zM669.3580645161289 932.2613107181068A24.232258064516124 24.232258846201894 0 0 1 645.1645161290321 908.067761550573V388.7129157649328A24.193548387096772 24.193549167533845 0 1 1 693.5516129032256 388.7129157649328V908.0677615505728A24.225806451612897 24.225807233090553 0 0 1 669.3580645161289 932.2613107181066zM533.874193548387 932.2613107181068A24.232258064516124 24.232258846201894 0 0 1 509.6806451612902 908.067761550573V388.7129157649328A24.193548387096772 24.193549167533845 0 1 1 558.0677419354838 388.7129157649328V908.0677615505728A24.225806451612897 24.225807233090553 0 0 1 533.874193548387 932.2613107181066zM398.3903225806451 932.2613107181068A24.225806451612897 24.225807233090553 0 0 1 374.1967741935483 908.067761550573V388.7129157649328A24.193548387096772 24.193549167533845 0 1 1 422.5838709677419 388.7129157649328V908.0677615505728A24.232258064516124 24.232258846201894 0 0 1 398.3903225806451 932.2613107181066zM262.9064516129032 932.2613107181068A24.232258064516124 24.232258846201894 0 0 1 238.7129032258064 908.067761550573V388.7129157649328A24.193548387096772 24.193549167533845 0 1 1 287.0999999999999 388.7129157649328V908.0677615505728A24.232258064516124 24.232258846201894 0 0 1 262.9064516129032 932.2613107181066zM127.4225806451612 932.2613107181068A24.232258064516124 24.232258846201894 0 0 1 103.2290322580644 908.067761550573V388.7129157649328A24.193548387096772 24.193549167533845 0 1 1 151.616129032258 388.7129157649328V908.0677615505728A24.225806451612897 24.225807233090553 0 0 1 127.4225806451612 932.2613107181066zM1309.6806451612902 116.1322618107181H1167.7129032258063C1167.7451612903224 117.1193586167534 1167.7451612903224 118.2032296194591 1167.7451612903224 119.3580683663893A160.96774193548384 160.96774712799183 0 0 1 1076.8354838709674 264.5193633715924H1309.6806451612902zM845.1967741935482 116.1322618107181H0.0032258064516V264.5193633715924H936.074193548387A160.96774193548384 160.96774712799183 0 0 1 845.1645161290321 119.3580683663893C845.1645161290321 118.3000038161291 845.1645161290321 117.2064553937567 845.1967741935482 116.1322618107181z" />
    <glyph glyph-name="truck-end-4x2-tandem-flatbed"
      unicode="&#xF144;"
      horiz-adv-x="1309.6731946025982" d="M870.964932371186 137.099557743362A137.09633194731632 137.09633194731632 0 0 0 1008.0612643185024 274.1958896906783H12.9031841832768V348.3891987445201H1309.6731946025982V274.1958896906783H1008.0612643185024A137.09633194731632 137.09633194731632 0 1 0 870.964932371186 137.099557743362zM1309.6731946025982 116.1318834455372H1167.7091364221408C1167.7284911984154 117.1609123841536 1167.7413943825989 118.2447798555487 1167.7413943825989 119.3576794913564A160.25432176025242 160.25432176025242 0 0 1 1076.8352360153679 264.5185015532208H1309.6731946025982V116.1318834455372H1309.6731946025982zM0 116.1318834455372V264.5185015532208H936.0614965758176A160.25109596420657 160.25109596420657 0 0 1 845.1585640046324 119.3576794913564C845.1585640046324 118.2931667962361 845.1585640046324 117.2060735287951 845.1908219650905 116.1318834455372H845.1908219650905z" />
    <glyph glyph-name="truck-end-4x2-tandem-flatbed-1"
      unicode="&#x74;&#x72;&#x75;&#x63;&#x6B;&#x2D;&#x65;&#x6E;&#x64;&#x2D;&#x34;&#x78;&#x32;&#x2D;&#x74;&#x61;&#x6E;&#x64;&#x65;&#x6D;&#x2D;&#x66;&#x6C;&#x61;&#x74;&#x62;&#x65;&#x64;"
      horiz-adv-x="1309.6731946025982" d="M870.964932371186 137.099557743362A137.09633194731632 137.09633194731632 0 0 0 1008.0612643185024 274.1958896906783H12.9031841832768V348.3891987445201H1309.6731946025982V274.1958896906783H1008.0612643185024A137.09633194731632 137.09633194731632 0 1 0 870.964932371186 137.099557743362zM1309.6731946025982 116.1318834455372H1167.7091364221408C1167.7284911984154 117.1609123841536 1167.7413943825989 118.2447798555487 1167.7413943825989 119.3576794913564A160.25432176025242 160.25432176025242 0 0 1 1076.8352360153679 264.5185015532208H1309.6731946025982V116.1318834455372H1309.6731946025982zM0 116.1318834455372V264.5185015532208H936.0614965758176A160.25109596420657 160.25109596420657 0 0 1 845.1585640046324 119.3576794913564C845.1585640046324 118.2931667962361 845.1585640046324 117.2060735287951 845.1908219650905 116.1318834455372H845.1908219650905z" />
    <glyph glyph-name="truck-end-4x2-tandem-tank"
      unicode="&#xF145;"
      horiz-adv-x="1309.6774193548385" d="M870.9677419354838 137.0967741935483A137.09677419354836 137.09677419354836 0 0 0 1008.0645161290322 274.1935483870967H154.8387096774193S12.9032258064516 473.3870967741934 12.9032258064516 654.8387096774193S154.8387096774193 999.9999999999998 154.8387096774193 999.9999999999998H1167.741935483871S1309.6774193548385 836.2903225806451 1309.6774193548385 654.8387096774193S1167.741935483871 274.1935483870967 1167.741935483871 274.1935483870967H1008.0645161290322A137.09677419354836 137.09677419354836 0 1 0 870.9677419354838 137.0967741935483zM1309.6774193548385 116.1290322580645H1167.7129032258063C1167.732258064516 117.158064516129 1167.7451612903224 118.2419354838709 1167.7451612903224 119.3548387096773A160.25483870967741 160.25483870967741 0 0 1 1076.8387096774193 264.5161290322581H1309.6774193548385V116.1290322580645zM0 116.1290322580645V264.5161290322581H936.0645161290322A160.25161290322578 160.25161290322578 0 0 1 845.1612903225806 119.3548387096773C845.1612903225806 118.2903225806451 845.1612903225806 117.2032258064517 845.1935483870967 116.1290322580645H0z" />
    <glyph glyph-name="truck-end-4x2-tandem-tank-1"
      unicode="&#x74;&#x72;&#x75;&#x63;&#x6B;&#x2D;&#x65;&#x6E;&#x64;&#x2D;&#x34;&#x78;&#x32;&#x2D;&#x74;&#x61;&#x6E;&#x64;&#x65;&#x6D;&#x2D;&#x74;&#x61;&#x6E;&#x6B;"
      horiz-adv-x="1309.6774193548385" d="M870.9677419354838 137.0967741935483A137.09677419354836 137.09677419354836 0 0 0 1008.0645161290322 274.1935483870967H154.8387096774193S12.9032258064516 473.3870967741934 12.9032258064516 654.8387096774193S154.8387096774193 999.9999999999998 154.8387096774193 999.9999999999998H1167.741935483871S1309.6774193548385 836.2903225806451 1309.6774193548385 654.8387096774193S1167.741935483871 274.1935483870967 1167.741935483871 274.1935483870967H1008.0645161290322A137.09677419354836 137.09677419354836 0 1 0 870.9677419354838 137.0967741935483zM1309.6774193548385 116.1290322580645H1167.7129032258063C1167.732258064516 117.158064516129 1167.7451612903224 118.2419354838709 1167.7451612903224 119.3548387096773A160.25483870967741 160.25483870967741 0 0 1 1076.8387096774193 264.5161290322581H1309.6774193548385V116.1290322580645zM0 116.1290322580645V264.5161290322581H936.0645161290322A160.25161290322578 160.25161290322578 0 0 1 845.1612903225806 119.3548387096773C845.1612903225806 118.2903225806451 845.1612903225806 117.2032258064517 845.1935483870967 116.1290322580645H0z" />
    </font>
</defs>
</svg>
